<?xml version="1.0" standalone="no"?><!DOCTYPE svg PUBLIC "-//W3C//DTD SVG 1.1//EN" "http://www.w3.org/Graphics/SVG/1.1/DTD/svg11.dtd"><svg class="icon" width="32px" height="32.00px" viewBox="0 0 1024 1024" version="1.1" xmlns="http://www.w3.org/2000/svg"><path d="M579.2 874.666667a21.333333 21.333333 0 0 1 14.421333 37.056C574.037333 929.685333 546.837333 938.666667 512 938.666667s-62.037333-8.981333-81.621333-26.944A21.333333 21.333333 0 0 1 444.821333 874.666667h134.357334z m28.8-85.333334a32 32 0 0 1 0 64h-192a32 32 0 0 1 0-64h192zM512 85.333333c176.725333 0 320 143.274667 320 320 0 114.090667-59.733333 214.250667-149.610667 270.912A85.333333 85.333333 0 0 1 597.333333 768h-170.666666a85.333333 85.333333 0 0 1-85.098667-91.776C251.733333 619.584 192 519.424 192 405.333333c0-176.725333 143.274667-320 320-320z m29.098667 106.666667a29.098667 29.098667 0 1 0 0 58.176 126.08 126.08 0 0 1 126.058666 126.08 29.098667 29.098667 0 1 0 58.176 0A184.234667 184.234667 0 0 0 541.098667 192z"  /></svg>