<?xml version="1.0" standalone="no"?><!DOCTYPE svg PUBLIC "-//W3C//DTD SVG 1.1//EN" "http://www.w3.org/Graphics/SVG/1.1/DTD/svg11.dtd"><svg class="icon" width="64px" height="64.00px" viewBox="0 0 1024 1024" version="1.1" xmlns="http://www.w3.org/2000/svg"><path d="M864.2 121.3a38.1 38.1 0 0 0-13.5 2.4l-33.9 12.4-112.2 41-112.1 41.1-224.3 82-112.2 41-112.1 41.1-55.2 20.2a38.7 38.7 0 0 0-14.1 63.7l28.3 28.2 71.1 71.1 101.9 101.9v232.8c0 23.6 19.3 40.1 40.1 40.1a40.1 40.1 0 0 0 22.7-7.2L458.5 850l99.3 99.4a38.7 38.7 0 0 0 63.7-14.1l20.2-55.2L682.8 768l41-112.2 41-112.1 41-112.2 82.1-224.3 12.4-33.9c9.6-26.3-10.7-52-36.1-52z m-84.9 173.3l-41.1 112.2-41 112.1-41 112.2-41.1 112.1-41 112.2-2.3 6.2-62.4-62.5-42.6-42.5-49.4 34.2-69.5 48.3V637.6L162.4 452.2l6.2-2.3 112.2-41 112.1-41.1 224.3-82 112.2-41.1L808 216zM575.9 405a4 4 0 0 0-5.6 0L394.9 580.4a4 4 0 0 0 0 5.7l39.6 39.6a4.2 4.2 0 0 0 5.7 0l175.3-175.4a4 4 0 0 0 0-5.7z" /></svg>