<?xml version="1.0" standalone="no"?><!DOCTYPE svg PUBLIC "-//W3C//DTD SVG 1.1//EN" "http://www.w3.org/Graphics/SVG/1.1/DTD/svg11.dtd"><svg class="icon" width="32px" height="32.00px" viewBox="0 0 1024 1024" version="1.1" xmlns="http://www.w3.org/2000/svg"><path d="M486.570667 97.216a33.130667 33.130667 0 0 1 51.264 0.512c34.709333 43.328 152.064 98.261333 307.776 117.034667 16.576 2.005333 29.056 16 29.056 32.64v372.629333a167.04 167.04 0 0 1-20.096 79.402667C761.813333 871.146667 633.770667 938.666667 511.530667 938.666667l-6.528-0.106667c-118.954667-3.413333-244.586667-70.741333-335.573334-239.125333a167.808 167.808 0 0 1-19.925333-71.914667L149.333333 620.032V247.402667c0-16.64 12.48-30.634667 29.056-32.64 152.426667-18.368 269.077333-72.277333 305.237334-114.005334z m25.408 67.178667l-1.792 1.450666c-52.693333 41.813333-163.456 91.882667-290.389334 109.802667l-4.416 0.597333v342.976l0.149334 5.866667c0.746667 15.104 4.864 29.866667 12.074666 43.221333 80.96 149.845333 188.714667 201.962667 278.826667 204.544l5.568 0.085334c92.522667 0 201.92-51.989333 284.373333-204.629334a101.546667 101.546667 0 0 0 12.224-48.277333V276.245333l-16.277333-2.325333c-120.938667-18.048-227.904-67.690667-278.954667-108.416l-1.386666-1.109333z m161.194666 250.517333a32.853333 32.853333 0 0 1 0 46.186667l-187.306666 190.656a32.256 32.256 0 0 1-45.845334 0l-89.173333-91.157334a32.853333 32.853333 0 0 1 0-46.208 32.256 32.256 0 0 1 45.845333 0l51.029334 52.416a21.333333 21.333333 0 0 0 30.165333 0.426667l0.341333-0.362667 149.077334-151.957333a32.256 32.256 0 0 1 45.866666 0z"  /></svg>