<?xml version="1.0" standalone="no"?><!DOCTYPE svg PUBLIC "-//W3C//DTD SVG 1.1//EN" "http://www.w3.org/Graphics/SVG/1.1/DTD/svg11.dtd"><svg class="icon" width="32px" height="32.00px" viewBox="0 0 1024 1024" version="1.1" xmlns="http://www.w3.org/2000/svg"><path d="M486.570667 97.216a33.130667 33.130667 0 0 1 51.264 0.512c34.709333 43.328 152.064 98.261333 307.776 117.034667 16.576 2.005333 29.056 16 29.056 32.64v372.629333a167.04 167.04 0 0 1-20.096 79.402667C761.813333 871.146667 633.770667 938.666667 511.530667 938.666667l-6.528-0.106667c-118.954667-3.413333-244.586667-70.741333-335.573334-239.125333a167.808 167.808 0 0 1-19.925333-71.914667L149.333333 620.032V247.402667c0-16.64 12.48-30.634667 29.056-32.64 152.426667-18.368 269.077333-72.277333 305.237334-114.005334z m186.602666 317.696a32.256 32.256 0 0 0-45.866666 0l-149.077334 151.957333-0.341333 0.341334a21.333333 21.333333 0 0 1-30.165333-0.405334l-51.029334-52.416a32.256 32.256 0 0 0-45.866666 0 32.853333 32.853333 0 0 0 0 46.208l89.194666 91.157334a32.256 32.256 0 0 0 45.866667 0l187.285333-190.656a32.853333 32.853333 0 0 0 0-46.186667z"  /></svg>