<?xml version="1.0" standalone="no"?><!DOCTYPE svg PUBLIC "-//W3C//DTD SVG 1.1//EN" "http://www.w3.org/Graphics/SVG/1.1/DTD/svg11.dtd"><svg class="icon" width="64px" height="64.00px" viewBox="0 0 1024 1024" version="1.1" xmlns="http://www.w3.org/2000/svg"><path d="M555.633778 726.300444a45.966222 45.966222 0 0 0 0-64.910222l-363.463111-363.52a45.909333 45.909333 0 0 0-64.910223 0 45.909333 45.909333 0 0 0 0 64.910222l363.52 363.463112a45.966222 45.966222 0 0 0 64.853334 0.056888zM490.723556 726.300444a45.852444 45.852444 0 0 0 64.853333 0l345.088-345.088a45.852444 45.852444 0 0 0 0-64.853333 45.511111 45.511111 0 0 0-64.796445 0l-345.144888 345.088a45.909333 45.909333 0 0 0 0 64.853333z" /></svg>