<?xml version="1.0" standalone="no"?><!DOCTYPE svg PUBLIC "-//W3C//DTD SVG 1.1//EN" "http://www.w3.org/Graphics/SVG/1.1/DTD/svg11.dtd"><svg class="icon" width="32px" height="32.00px" viewBox="0 0 1024 1024" version="1.1" xmlns="http://www.w3.org/2000/svg"><path d="M486.570667 97.216a33.130667 33.130667 0 0 1 51.264 0.512c34.709333 43.328 152.064 98.261333 307.776 117.034667 16.576 2.005333 29.056 16 29.056 32.64v372.629333a167.04 167.04 0 0 1-20.096 79.402667C761.813333 871.146667 633.770667 938.666667 511.530667 938.666667l-6.528-0.106667c-118.954667-3.413333-244.586667-70.741333-335.573334-239.125333a167.808 167.808 0 0 1-19.925333-71.914667L149.333333 620.032V247.402667c0-16.64 12.48-30.634667 29.056-32.64 152.426667-18.368 269.077333-72.277333 305.237334-114.005334z m-10.026667 256.213333h-122.090667v346.026667h38.442667V389.845333h45.205333c-9.045333 30.997333-21.845333 65.493333-38.058666 104.234667 24.490667 32.170667 36.906667 61.226667 36.906666 87.189333 0 6.186667-1.493333 10.453333-4.117333 12.8-3.029333 2.304-9.045333 3.861333-17.706667 4.629334-5.290667 0-12.053333-0.768-20.352-2.325334l12.437334 40.32c26.752-0.405333 45.589333-5.44 56.874666-15.509333 7.552-8.149333 11.306667-21.333333 11.306667-39.914667-2.261333-26.346667-14.293333-57.344-36.906667-93.397333a1520.768 1520.768 0 0 0 38.037334-104.234667v-30.208z m155.946667 148.8c-11.306667 58.112-24.106667 107.306667-39.168 147.626667h-132.608v38.741333h226.773333v-38.741333h-55.744c15.445333-40.32 28.629333-85.632 39.189333-136.789333l-38.442666-10.837334z m-121.685334 11.221334l-33.514666 11.626666c12.8 34.88 23.722667 71.68 32 110.058667l33.92-8.533333c-9.813333-42.624-20.352-80.213333-32.405334-113.152z m59.904-13.952l-33.514666 11.626666c11.306667 33.706667 20.330667 68.970667 27.861333 106.176l33.536-8.917333c-8.277333-41.066667-17.322667-77.098667-27.882667-108.885333z m21.12-158.869334h-34.688c-23.338667 51.541333-57.258667 93.397333-101.333333 125.930667l19.968 31.786667c13.568-9.685333 26.752-20.928 39.189333-33.322667v20.522667h120.533334v-19.370667a338.133333 338.133333 0 0 0 38.826666 32.554667l21.461334-33.706667c-49.344-35.648-84.010667-77.12-103.978667-124.373333z m-17.344 39.530667a279.530667 279.530667 0 0 0 44.821334 68.970667h-90.026667a370.410667 370.410667 0 0 0 45.205333-68.970667z"  /></svg>