<?xml version="1.0" standalone="no"?><!DOCTYPE svg PUBLIC "-//W3C//DTD SVG 1.1//EN" "http://www.w3.org/Graphics/SVG/1.1/DTD/svg11.dtd"><svg class="icon" width="32px" height="32.00px" viewBox="0 0 1024 1024" version="1.1" xmlns="http://www.w3.org/2000/svg"><path d="M789.333333 486.250667V746.666667c0 58.901333-124.16 106.666667-277.333333 106.666666-150.570667 0-273.109333-46.144-277.226667-103.68L234.666667 746.666667V486.250667l260.053333 115.285333a42.666667 42.666667 0 0 0 30.848 1.450667l3.733333-1.450667L789.333333 486.250667zM529.28 166.464l398.592 176.704a21.333333 21.333333 0 0 1 0 38.997333L874.666667 405.76 874.666667 603.093333A42.666667 42.666667 0 1 1 832 603.029333v-178.410666l-302.72 134.229333a42.666667 42.666667 0 0 1-34.56 0L96.106667 382.165333a21.333333 21.333333 0 0 1 0-38.997333l398.570666-176.704a42.666667 42.666667 0 0 1 34.602667 0z"  /></svg>