<?xml version="1.0" standalone="no"?><!DOCTYPE svg PUBLIC "-//W3C//DTD SVG 1.1//EN" "http://www.w3.org/Graphics/SVG/1.1/DTD/svg11.dtd"><svg class="icon" width="32px" height="32.00px" viewBox="0 0 1024 1024" version="1.1" xmlns="http://www.w3.org/2000/svg"><path d="M864 832a32 32 0 0 1 0 64h-704a32 32 0 0 1 0-64h704zM710.613333 152.533333l3.541334 3.413334 89.92 89.898666a95.36 95.36 0 0 1 3.370666 131.285334l-3.370666 3.562666-332.309334 332.309334c-9.386667 9.386667-21.077333 16.042667-33.856 19.349333l-4.842666 1.088-178.261334 33.642667a52.970667 52.970667 0 0 1-62.464-57.984l0.576-3.904L226.56 526.933333c2.453333-13.013333 8.362667-25.130667 17.045333-35.072l3.392-3.626666L579.306667 155.946667a95.36 95.36 0 0 1 131.285333-3.370667z m-83.946666 46.165334l-2.410667 2.176-332.309333 332.309333a10.602667 10.602667 0 0 0-2.517334 3.989333l-0.405333 1.536-30.741333 162.986667 119.978666-22.634667-51.968-51.968a31.786667 31.786667 0 1 1 44.949334-44.949333l70.72 70.72 317.141333-317.12a31.786667 31.786667 0 0 0 2.197333-42.538667l-2.197333-2.410666-89.898667-89.92a31.786667 31.786667 0 0 0-42.538666-2.176z"  /></svg>