<?xml version="1.0" standalone="no"?><!DOCTYPE svg PUBLIC "-//W3C//DTD SVG 1.1//EN" "http://www.w3.org/Graphics/SVG/1.1/DTD/svg11.dtd"><svg class="icon" width="32px" height="32.00px" viewBox="0 0 1024 1024" version="1.1" xmlns="http://www.w3.org/2000/svg"><path d="M512 85.333333c235.648 0 426.666667 191.018667 426.666667 426.666667s-191.018667 426.666667-426.666667 426.666667S85.333333 747.648 85.333333 512 276.352 85.333333 512 85.333333z m0 64C311.701333 149.333333 149.333333 311.701333 149.333333 512s162.368 362.666667 362.666667 362.666667 362.666667-162.368 362.666667-362.666667S712.298667 149.333333 512 149.333333z m-145.173333 471.338667A180.970667 180.970667 0 0 0 512 693.333333a180.650667 180.650667 0 0 0 128.746667-53.653333c5.888-5.930667 11.370667-12.266667 16.384-18.944a32 32 0 0 1 51.2 38.421333c-6.784 9.024-14.186667 17.578667-22.122667 25.6A244.629333 244.629333 0 0 1 512 757.333333c-78.208 0-150.357333-36.906667-196.373333-98.261333a32 32 0 1 1 51.2-38.4zM341.333333 384a42.666667 42.666667 0 1 1 0 85.333333 42.666667 42.666667 0 0 1 0-85.333333z m341.333334 0a42.666667 42.666667 0 1 1 0 85.333333 42.666667 42.666667 0 0 1 0-85.333333z"  /></svg>