<?xml version="1.0" standalone="no"?><!DOCTYPE svg PUBLIC "-//W3C//DTD SVG 1.1//EN" "http://www.w3.org/Graphics/SVG/1.1/DTD/svg11.dtd"><svg class="icon" width="64px" height="64.00px" viewBox="0 0 1024 1024" version="1.1" xmlns="http://www.w3.org/2000/svg"><path d="M884.1 282.4L542.5 85a60 60 0 0 0-60.1 0.1L140.9 283.8a39.9 39.9 0 0 0-16.3 18.2 40.2 40.2 0 0 0-7.6 23.2l-1 366.9a60 60 0 0 0 30 52.1l341.5 197.4a39.8 39.8 0 0 0 20 5.4 29.7 29.7 0 0 0 4.2-0.3 24.8 24.8 0 0 0 3.8 0.2 39.9 39.9 0 0 0 20.1-5.4l341.5-198.7a60.1 60.1 0 0 0 29.9-51.7l1-366.9a40.6 40.6 0 0 0-7.4-23.3 40.5 40.5 0 0 0-16.5-18.5zM476 737.6l-0.3 114L188 685.4l0.9-304.7 212 122.5 75.6 43.7z m36.5-253L226.7 319.4l-1.9-1.1 287.7-167.4 287.8 166.3-44.1 25.6zM835 684.1L547.7 851.2l0.2-97.6 0.6-206.7 250.4-145.6 36.9-21.5z" /></svg>