<?xml version="1.0" standalone="no"?><!DOCTYPE svg PUBLIC "-//W3C//DTD SVG 1.1//EN" "http://www.w3.org/Graphics/SVG/1.1/DTD/svg11.dtd"><svg class="icon" width="32px" height="32.00px" viewBox="0 0 1024 1024" version="1.1" xmlns="http://www.w3.org/2000/svg"><path d="M512.042667 213.333333c82.752 0 161.088 24.106667 234.88 71.786667l53.525333-53.482667a32 32 0 1 1 45.248 45.248L287.573333 835.029333a32 32 0 1 1-45.248-45.248l44.693334-44.714666c-62.72-38.528-122.154667-93.909333-178.261334-165.802667a108.522667 108.522667 0 0 1-3.093333-130.56l3.136-4.202667 6.805333-8.64C233.045333 288.533333 365.546667 213.333333 512.042667 213.333333z m334.506666 153.216a842.88 842.88 0 0 1 68.693334 78.08 108.522667 108.522667 0 0 1 3.029333 130.688l-3.136 4.202667-6.826667 8.64C790.570667 735.466667 658.133333 810.666667 512.042667 810.666667a410.88 410.88 0 0 1-97.898667-11.733334l53.013333-52.970666a344.32 344.32 0 0 0 44.885334 2.901333c120.896 0 233.088-62.229333 337.408-189.482667l6.784-8.405333 6.613333-8.341333a49.344 49.344 0 0 0 0-61.226667 787.370667 787.370667 0 0 0-61.205333-69.973333l44.906666-44.885334z m-334.506666-91.413333c-121.28 0-233.493333 62.229333-337.557334 189.44l-6.784 8.405333-6.570666 8.341334a49.344 49.344 0 0 0 0.042666 61.205333c54.954667 70.442667 112.106667 122.581333 171.562667 156.8l92.864-92.885333a128 128 0 1 1 180.842667-180.842667l94.976-94.933333c-60.650667-37.184-123.733333-55.530667-189.376-55.530667zM512 443.072a68.906667 68.906667 0 0 0-44.522667 121.536l97.130667-97.130667A68.778667 68.778667 0 0 0 512 443.072z"  /></svg>