<?xml version="1.0" standalone="no"?><!DOCTYPE svg PUBLIC "-//W3C//DTD SVG 1.1//EN" "http://www.w3.org/Graphics/SVG/1.1/DTD/svg11.dtd"><svg class="icon" width="32px" height="32.00px" viewBox="0 0 1024 1024" version="1.1" xmlns="http://www.w3.org/2000/svg"><path d="M384 554.666667a85.333333 85.333333 0 0 1 85.333333 85.333333v170.666667a85.333333 85.333333 0 0 1-85.333333 85.333333h-170.666667a85.333333 85.333333 0 0 1-85.333333-85.333333v-170.666667a85.333333 85.333333 0 0 1 85.333333-85.333333h170.666667z m245.333333 213.333333a32 32 0 0 1 32 32v42.666667a32 32 0 0 1-64 0v-42.666667a32 32 0 0 1 32-32z m192-21.333333a32 32 0 0 1 32 32v64a32 32 0 0 1-64 0v-64a32 32 0 0 1 32-32zM384 618.666667h-170.666667a21.333333 21.333333 0 0 0-21.184 18.837333L192 640v170.666667a21.333333 21.333333 0 0 0 18.837333 21.184L213.333333 832h170.666667a21.333333 21.333333 0 0 0 21.184-18.837333L405.333333 810.666667v-170.666667a21.333333 21.333333 0 0 0-18.837333-21.184L384 618.666667z m245.333333-42.666667a32 32 0 0 1 32 32v85.333333a32 32 0 0 1-64 0v-85.333333a32 32 0 0 1 32-32z m192 0a32 32 0 0 1 32 32v64a32 32 0 0 1-64 0v-64a32 32 0 0 1 32-32zM384 128a85.333333 85.333333 0 0 1 85.333333 85.333333v170.666667a85.333333 85.333333 0 0 1-85.333333 85.333333h-170.666667a85.333333 85.333333 0 0 1-85.333333-85.333333v-170.666667a85.333333 85.333333 0 0 1 85.333333-85.333333h170.666667z m426.666667 0a85.333333 85.333333 0 0 1 85.333333 85.333333v170.666667a85.333333 85.333333 0 0 1-85.333333 85.333333h-170.666667a85.333333 85.333333 0 0 1-85.333333-85.333333v-170.666667a85.333333 85.333333 0 0 1 85.333333-85.333333h170.666667zM384 192h-170.666667a21.333333 21.333333 0 0 0-21.184 18.837333L192 213.333333v170.666667a21.333333 21.333333 0 0 0 18.837333 21.184L213.333333 405.333333h170.666667a21.333333 21.333333 0 0 0 21.184-18.837333L405.333333 384v-170.666667a21.333333 21.333333 0 0 0-18.837333-21.184L384 192z m426.666667 0h-170.666667a21.333333 21.333333 0 0 0-21.184 18.837333L618.666667 213.333333v170.666667a21.333333 21.333333 0 0 0 18.837333 21.184L640 405.333333h170.666667a21.333333 21.333333 0 0 0 21.184-18.837333L832 384v-170.666667a21.333333 21.333333 0 0 0-18.837333-21.184L810.666667 192z"  /></svg>