<?xml version="1.0" standalone="no"?><!DOCTYPE svg PUBLIC "-//W3C//DTD SVG 1.1//EN" "http://www.w3.org/Graphics/SVG/1.1/DTD/svg11.dtd"><svg class="icon" width="32px" height="32.00px" viewBox="0 0 1024 1024" version="1.1" xmlns="http://www.w3.org/2000/svg"><path d="M285.8 406.9l137.3 83.7a7.7 7.7 0 0 0 11.8-6.6v-51.7h175a68.1 68.1 0 0 1 67.9 64.1 4.1 4.1 0 0 0 4 3.9h56.1a4.1 4.1 0 0 0 4-4.2c-2.2-70.8-60.6-127.8-132-127.8h-175v-51.8a7.7 7.7 0 0 0-11.8-6.6l-137.3 83.7a7.8 7.8 0 0 0 0 13.3z m452.4 210.2l-137.3-83.7a7.7 7.7 0 0 0-11.8 6.6v51.7h-175a68.1 68.1 0 0 1-67.9-64.1 4.1 4.1 0 0 0-4-3.9h-56.1a4.1 4.1 0 0 0-4 4.2c2.2 70.8 60.6 127.8 132 127.8h175v51.8a7.7 7.7 0 0 0 11.8 6.6l137.3-83.7a7.8 7.8 0 0 0 0-13.3zM856 128H168a40 40 0 0 0-40 40v688a40 40 0 0 0 40 40h688a40 40 0 0 0 40-40V168a40 40 0 0 0-40-40z m-32 696H200V200h624z" /></svg>