<?xml version="1.0" standalone="no"?><!DOCTYPE svg PUBLIC "-//W3C//DTD SVG 1.1//EN" "http://www.w3.org/Graphics/SVG/1.1/DTD/svg11.dtd"><svg class="icon" width="32px" height="32.00px" viewBox="0 0 1024 1024" version="1.1" xmlns="http://www.w3.org/2000/svg"><path d="M511 64C263.6 64 63 264.6 63 512s200.6 448 448 448 448-200.6 448-448S758.4 64 511 64z m265.9 713.9a377.2 377.2 0 0 1-119.6 80.6 377.5 377.5 0 0 1-292.6 0 377.1 377.1 0 0 1-200.2-200.2 377.5 377.5 0 0 1 0-292.6 377.1 377.1 0 0 1 200.2-200.2 377.5 377.5 0 0 1 292.6 0 377.1 377.1 0 0 1 200.2 200.2 377.5 377.5 0 0 1 0 292.6 377.2 377.2 0 0 1-80.6 119.6zM513.8 288.6a3.9 3.9 0 0 0-5.6 0L287.6 509.2a3.9 3.9 0 0 0 0 5.6l220.6 220.6a3.9 3.9 0 0 0 5.6 0l220.6-220.6a3.9 3.9 0 0 0 0-5.6zM511 636.5L386.5 512 511 387.5 635.5 512z" /></svg>