<?xml version="1.0" standalone="no"?><!DOCTYPE svg PUBLIC "-//W3C//DTD SVG 1.1//EN" "http://www.w3.org/Graphics/SVG/1.1/DTD/svg11.dtd"><svg class="icon" width="32px" height="32.00px" viewBox="0 0 1024 1024" version="1.1" xmlns="http://www.w3.org/2000/svg"><path d="M512 64C264.6 64 64 264.6 64 512s200.6 448 448 448 448-200.6 448-448S759.4 64 512 64z m265.9 713.9a377.2 377.2 0 0 1-119.6 80.6 377.5 377.5 0 0 1-292.6 0 377.1 377.1 0 0 1-200.2-200.2 377.5 377.5 0 0 1 0-292.6 377.1 377.1 0 0 1 200.2-200.2 377.5 377.5 0 0 1 292.6 0 377.1 377.1 0 0 1 200.2 200.2 377.5 377.5 0 0 1 0 292.6 377.2 377.2 0 0 1-80.6 119.6zM651.3 258.8a3.9 3.9 0 0 0-5.6 0L512 392.5 378.3 258.8a3.9 3.9 0 0 0-5.6 0l-39.6 39.6a3.9 3.9 0 0 0 0 5.6l102.3 102.4H376a4 4 0 0 0-4 4v56a4 4 0 0 0 4 4h104v80H376a4 4 0 0 0-4 4v56a4 4 0 0 0 4 4h104v148a4 4 0 0 0 4 4h56a4 4 0 0 0 4-4v-148h104a4 4 0 0 0 4-4v-56a4 4 0 0 0-4-4H544v-80h104a4 4 0 0 0 4-4v-56a4 4 0 0 0-4-4h-59.4L690.9 304a3.9 3.9 0 0 0 0-5.6z" /></svg>