<?xml version="1.0" standalone="no"?><!DOCTYPE svg PUBLIC "-//W3C//DTD SVG 1.1//EN" "http://www.w3.org/Graphics/SVG/1.1/DTD/svg11.dtd"><svg class="icon" width="32px" height="32.00px" viewBox="0 0 1024 1024" version="1.1" xmlns="http://www.w3.org/2000/svg"><path d="M512 106.666667c103.68 0 192.96 61.632 233.194667 150.250666C853.717333 266.944 938.666667 358.186667 938.666667 469.333333c0 95.509333-62.762667 176.362667-149.333334 203.562667V832a85.333333 85.333333 0 0 1-85.333333 85.333333H320a85.333333 85.333333 0 0 1-85.333333-85.333333v-180.437333C148.117333 624.384 85.333333 543.530667 85.333333 448c0-114.986667 90.944-208.704 204.8-213.162667A255.893333 255.893333 0 0 1 512 106.666667z m-104.725333 583.893333a25.557333 25.557333 0 0 0-36.949334 0 27.605333 27.605333 0 0 0 0 38.186667c78.250667 80.789333 205.098667 80.789333 283.349334 0a27.605333 27.605333 0 0 0 0-38.186667 25.557333 25.557333 0 0 0-36.949334 0 144.810667 144.810667 0 0 1-209.450666 0z"  /></svg>