<?xml version="1.0" standalone="no"?><!DOCTYPE svg PUBLIC "-//W3C//DTD SVG 1.1//EN" "http://www.w3.org/Graphics/SVG/1.1/DTD/svg11.dtd"><svg class="icon" width="64px" height="64.00px" viewBox="0 0 1024 1024" version="1.1" xmlns="http://www.w3.org/2000/svg"><path d="M168.106667 621.44l120.746666 57.962667 223.274667 108.138666 215.317333-104.32 128.768-61.674666a64 64 0 0 1-29.952 84.970666l-286.229333 138.624a64 64 0 0 1-55.808 0L197.994667 706.517333A64 64 0 0 1 168.106667 621.44z m687.829333-133.930667a64 64 0 0 1-29.674667 85.546667L540.010667 711.68a64 64 0 0 1-55.808 0L197.994667 573.056A64 64 0 0 1 166.826667 490.88l317.013333 149.525333 28.288 13.696 286.229333-138.624-0.149333-0.064 57.728-27.882666zM540.032 185.792l286.208 138.602667a64 64 0 0 1 0 115.2l-286.208 138.624a64 64 0 0 1-55.808 0L197.994667 439.594667a64 64 0 0 1 0-115.2L484.224 185.813333a64 64 0 0 1 55.808 0z m-27.904 57.6l-286.229333 138.602667 286.229333 138.624 286.229333-138.624-286.229333-138.602667z" /></svg>