<?xml version="1.0" standalone="no"?><!DOCTYPE svg PUBLIC "-//W3C//DTD SVG 1.1//EN" "http://www.w3.org/Graphics/SVG/1.1/DTD/svg11.dtd"><svg class="icon" width="64px" height="64.00px" viewBox="0 0 1024 1024" version="1.1" xmlns="http://www.w3.org/2000/svg"><path d="M199.5 832a127.8 127.8 0 0 0 37.8-5.7 384 384 0 0 0 539.7 9.6 128 128 0 0 0 138-209.4 129.7 129.7 0 0 0-22.3-17.9A382.9 382.9 0 0 0 896 558c0-166.1-105.5-307.6-253.2-361.1a128 128 0 0 0-254.3-2.6C237 245.7 128 389.1 128 558c0 13 0.7 25.9 1.9 38.5a134.1 134.1 0 0 0-20.9 17A128 128 0 0 0 199.5 832z m-39.6-88.4a56.1 56.1 0 0 1 0-79.2 56 56 0 0 1 79.2 0 56.1 56.1 0 0 1 0 79.2 56 56 0 0 1-79.2 0z m3.6-162.5z m4.1-1.1z m4.7-1.1z m4.1-0.8z m4.9-0.8z m4.1-0.5z m5-0.5z m4-0.2z m57.2 244.8a0.1 0.1 0 0 1-0.1 0.1 0.1 0.1 0 0 0 0.1-0.1z m3.5-1.6l-0.3 0.2z m34.9-24.8a23.9 23.9 0 0 0 2.2-2.3 23.9 23.9 0 0 1-2.2 2.3z m-31.6 23.2z m6.7-3.7l0.3-0.3z m3-1.9l0.7-0.5z m3.2-2.1l0.7-0.5z m3.3-2.4l0.4-0.2z m3.4-2.5l0.4-0.3z m2.8-2.2l0.9-0.8z m2.8-2.4l1-0.9z m2.9-2.6a6 6 0 0 0 0.8-0.8 6 6 0 0 1-0.8 0.8z m476.1 31.2zM734 807.5l0.3 0.3z m2.4 2.3a4.6 4.6 0 0 0 0.7 0.7 4.6 4.6 0 0 1-0.7-0.7z m2.4 2.3l0.8 0.7z m2.5 2.2l0.7 0.6z m2.5 2.1l0.6 0.5z m2.6 2l0.5 0.4z m2.6 2l0.4 0.3z m2.7 1.9l0.3 0.2z m2.6 1.8l0.3 0.2z m2.8 1.7c0 0.1 0.1 0.1 0.2 0.1s-0.2 0-0.2-0.1z m2.7 1.7c0.1 0 0.1 0 0.1 0.1s0-0.1-0.1-0.1z m104.3-70.9a56 56 0 1 1 16.4-39.6 55.5 55.5 0 0 1-16.4 39.6z m3.8-160l0.7 0.2z m8.5 3.4l0.5 0.2z m12.2 6.2z m-8-4.3a0.1 0.1 0 0 1 0.1 0.1 0.1 0.1 0 0 0-0.1-0.1z m4.1 2.1zM475.9 170.4a56 56 0 1 1 0 79.2 56.1 56.1 0 0 1 0-79.2z m-88.4 37.5z m0.5-9.2z m-0.3 4.8zM200 558a312.5 312.5 0 0 1 190.6-287.5l10-4a128.1 128.1 0 0 0 228.6 2.3l4.2 1.7A311.7 311.7 0 0 1 824 558c0 10.4-0.5 20.8-1.5 31h2a128 128 0 0 0-104.7 201.7 311.6 311.6 0 0 1-421.5-5.4c41.5-50.3 38.8-124.9-8.3-171.9a127.5 127.5 0 0 0-90.5-37.4h1c-0.3-6-0.5-12-0.5-18z m187.5-345.3z m0.2 4.4z m0.4 4.8z m0.4 4.4a1.3 1.3 0 0 1 0.1 0.6 1.3 1.3 0 0 0-0.1-0.6z m0.7 4.8z m0.8 4.3c0.1 0.2 0.1 0.4 0.2 0.6s-0.1-0.4-0.2-0.6z m1.1 4.7z m1.1 4.3a1.4 1.4 0 0 0 0.2 0.6 1.4 1.4 0 0 1-0.2-0.6z m1.4 4.7z m1.4 4.1a2.5 2.5 0 0 1 0.2 0.7 2.5 2.5 0 0 0-0.2-0.7z m1.8 4.7z m1.7 4l0.3 0.7zM860 594l-0.7-0.2z m-4.4-1.2z m-4.3-1z m-4.2-0.8z m-4.6-0.7z m-4.1-0.5z m-4.9-0.5z m-4-0.2z m-99 214.7l-0.6-0.5z m-3.8-4.3c-0.2-0.1-0.3-0.3-0.4-0.4s0.2 0.3 0.4 0.4z m-432.8-9.1l0.4-0.4zM150.6 585.7z m8.7-3.2z m-4.5 1.5z" /></svg>