<?xml version="1.0" standalone="no"?><!DOCTYPE svg PUBLIC "-//W3C//DTD SVG 1.1//EN" "http://www.w3.org/Graphics/SVG/1.1/DTD/svg11.dtd"><svg class="icon" width="32px" height="32.00px" viewBox="0 0 1024 1024" version="1.1" xmlns="http://www.w3.org/2000/svg"><path d="M332.202667 347.136c12.16 12.373333 12.16 32.426667 0 44.821333-12.16 12.373333-31.893333 12.373333-44.053334 0l-151.04-115.584a32.085333 32.085333 0 0 1 0-44.842666l151.04-115.584c12.16-12.373333 31.893333-12.373333 44.053334 0 12.16 12.373333 12.16 32.448 0 44.842666l-85.290667 61.589334H565.333333c182.613333 0 330.666667 146.026667 330.666667 326.144 0 177.92-144.426667 322.538667-323.925333 326.08L565.333333 874.666667h-213.333333a31.786667 31.786667 0 0 1-32-31.573334c0-16.384 12.693333-29.866667 28.928-31.402666l3.072-0.149334h213.333333c147.285333 0 266.666667-117.76 266.666667-263.018666 0-143.082667-115.84-259.477333-260.096-262.933334l-6.570667-0.064-318.442666-0.021333 85.333333 61.632z"  /></svg>