<?xml version="1.0" standalone="no"?><!DOCTYPE svg PUBLIC "-//W3C//DTD SVG 1.1//EN" "http://www.w3.org/Graphics/SVG/1.1/DTD/svg11.dtd"><svg class="icon" width="32px" height="32.00px" viewBox="0 0 1024 1024" version="1.1" xmlns="http://www.w3.org/2000/svg"><path d="M853.333333 338.944V537.6c-32-16.362667-68.266667-25.6-106.666666-25.6-129.6 0-234.666667 105.066667-234.666667 234.666667 0 79.381333 39.424 149.546667 99.754667 192.021333L256 938.666667a85.333333 85.333333 0 0 1-85.333333-85.333334V338.965333a510.229333 510.229333 0 0 0 257.216 123.498667 85.312 85.312 0 0 0 168.192 0 510.165333 510.165333 0 0 0 257.28-123.52zM768 85.333333a85.333333 85.333333 0 0 1 85.333333 85.333334l0.021334 108.778666a468.437333 468.437333 0 0 1-260.842667 140.330667 85.354667 85.354667 0 0 0-161.088 0 468.373333 468.373333 0 0 1-260.778667-140.330667L170.666667 170.666667a85.333333 85.333333 0 0 1 85.333333-85.333334h512z m-21.354667 469.333334a191.957333 191.957333 0 0 1 168.597334 100.053333L746.666667 746.666667l135.765333 135.744A192 192 0 1 1 746.645333 554.666667z m32 106.666666a32 32 0 1 0 0-64 32 32 0 0 0 0 64z"  /></svg>