<?xml version="1.0" standalone="no"?><!DOCTYPE svg PUBLIC "-//W3C//DTD SVG 1.1//EN" "http://www.w3.org/Graphics/SVG/1.1/DTD/svg11.dtd"><svg class="icon" width="32px" height="32.00px" viewBox="0 0 1024 1024" version="1.1" xmlns="http://www.w3.org/2000/svg"><path d="M103.082667 632.704c1.493333 1.130667 3.093333 2.176 4.778666 3.136l2.56 1.344L490.666667 822.421333a49.066667 49.066667 0 0 0 38.976 1.621334l3.690666-1.621334 380.224-185.237333c2.624-1.28 5.077333-2.773333 7.36-4.458667 17.216 12.650667 22.954667 35.477333 12.544 54.4a45.162667 45.162667 0 0 1-19.904 18.752L533.333333 891.093333a49.024 49.024 0 0 1-42.666666 0L110.442667 705.877333c-22.784-11.093333-31.701333-37.482667-19.904-58.922666 3.072-5.546667 7.338667-10.410667 12.544-14.250667z m0-153.6c1.493333 1.130667 3.093333 2.176 4.778666 3.136l2.56 1.344L490.666667 668.821333a49.066667 49.066667 0 0 0 38.976 1.621334l3.690666-1.621334 380.224-185.237333c2.624-1.28 5.077333-2.773333 7.36-4.458667 17.216 12.650667 22.954667 35.477333 12.544 54.4a45.162667 45.162667 0 0 1-19.904 18.752L533.333333 737.493333a49.024 49.024 0 0 1-42.666666 0L110.442667 552.277333c-22.784-11.093333-31.701333-37.482667-19.904-58.922666 3.072-5.546667 7.338667-10.410667 12.544-14.250667zM533.333333 132.970667l380.224 187.968c22.784 11.264 31.701333 38.037333 19.904 59.776a45.44 45.44 0 0 1-19.904 19.008L533.333333 587.733333c-13.376 6.613333-29.290667 6.613333-42.666666 0L110.442667 399.722667c-22.784-11.264-31.701333-38.016-19.904-59.776a45.44 45.44 0 0 1 19.904-18.986667L490.666667 132.949333a48.362667 48.362667 0 0 1 42.666666 0z"  /></svg>