<?xml version="1.0" standalone="no"?><!DOCTYPE svg PUBLIC "-//W3C//DTD SVG 1.1//EN" "http://www.w3.org/Graphics/SVG/1.1/DTD/svg11.dtd"><svg class="icon" width="64px" height="64.00px" viewBox="0 0 1024 1024" version="1.1" xmlns="http://www.w3.org/2000/svg"><path d="M490.261333 173.44a49.066667 49.066667 0 0 1 64.064 19.178667l1.664 3.093333 87.850667 177.813333 196.352 28.501334a49.066667 49.066667 0 0 1 29.717333 81.066666l-2.538666 2.645334L725.333333 624l33.536 195.349333a49.066667 49.066667 0 0 1-68.010666 53.269334l-3.157334-1.514667L512 778.858667l-175.701333 92.266666a49.066667 49.066667 0 0 1-71.637334-48.426666l0.469334-3.328L298.666667 624.021333 156.629333 485.76a49.066667 49.066667 0 0 1 23.893334-83.114667l3.285333-0.597333 196.352-28.501333 87.850667-177.813334a49.066667 49.066667 0 0 1 22.250666-22.272z" /></svg>