<?xml version="1.0" standalone="no"?><!DOCTYPE svg PUBLIC "-//W3C//DTD SVG 1.1//EN" "http://www.w3.org/Graphics/SVG/1.1/DTD/svg11.dtd"><svg class="icon" width="64px" height="64.00px" viewBox="0 0 1024 1024" version="1.1" xmlns="http://www.w3.org/2000/svg"><path d="M851 384H704v-96c0-105.6-86.4-192-192-192s-192 86.4-192 192v96H173a40 40 0 0 0-39.7 44.7l54.5 464a40.1 40.1 0 0 0 39.8 35.3h568.8a40.1 40.1 0 0 0 39.8-35.3l54.5-464A40 40 0 0 0 851 384z m-459-96a120 120 0 0 1 240 0v96H392z m376 568H256l-47-400h111v60.5a58 58 0 1 0 72 0V456h240v60.5a58 58 0 1 0 72 0V456h111z" /></svg>