<?xml version="1.0" standalone="no"?><!DOCTYPE svg PUBLIC "-//W3C//DTD SVG 1.1//EN" "http://www.w3.org/Graphics/SVG/1.1/DTD/svg11.dtd"><svg class="icon" width="64px" height="64.00px" viewBox="0 0 1024 1024" version="1.1" xmlns="http://www.w3.org/2000/svg"><path d="M625.777778 977.976889H227.555556a113.777778 113.777778 0 0 1-113.777778-113.777778V344.291556a113.777778 113.777778 0 0 1 113.777778-113.777778h398.222222a113.777778 113.777778 0 0 1 113.777778 113.777778v519.907555a113.777778 113.777778 0 0 1-113.777778 113.777778zM227.555556 298.894222a45.511111 45.511111 0 0 0-45.511112 45.511111v519.907556a45.511111 45.511111 0 0 0 45.511112 45.511111h398.222222a45.511111 45.511111 0 0 0 45.511111-45.511111V344.405333a45.511111 45.511111 0 0 0-45.511111-45.511111zM796.444444 56.888889H398.222222a113.777778 113.777778 0 0 0-113.436444 110.250667c0 1.194667-0.341333 2.275556-0.341334 3.470222v92.615111h68.266667V170.609778a45.511111 45.511111 0 0 1 45.511111-45.511111h398.222222a45.511111 45.511111 0 0 1 45.511112 45.511111v519.907555a45.511111 45.511111 0 0 1-45.511112 45.511111h-92.558222v68.266667H796.444444a113.777778 113.777778 0 0 0 112.867556-104.504889c0-3.072 0.910222-6.087111 0.910222-9.216V170.723556c0-1.194667-0.341333-2.275556-0.341333-3.470223A113.777778 113.777778 0 0 0 796.444444 56.888889z" /></svg>