<?xml version="1.0" standalone="no"?><!DOCTYPE svg PUBLIC "-//W3C//DTD SVG 1.1//EN" "http://www.w3.org/Graphics/SVG/1.1/DTD/svg11.dtd"><svg class="icon" width="64px" height="64.00px" viewBox="0 0 1024 1024" version="1.1" xmlns="http://www.w3.org/2000/svg"><path d="M148.010667 605.290667c50.069333 0 90.666667-40.874667 90.666666-91.285334 0-49.962667-39.893333-90.538667-89.344-91.264V277.333333a64 64 0 0 1 64-64h597.333334a64 64 0 0 1 64 64l-0.021334 145.450667-3.050666 0.064c-48.021333 2.304-86.272 42.24-86.272 91.157333 0 49.962667 39.872 90.56 89.322666 91.285334V746.666667a64 64 0 0 1-64 64H213.333333a64 64 0 0 1-64-64v-141.397334l-1.322666 0.021334zM213.333333 654.784V746.666667h597.333334v-91.861334a155.370667 155.370667 0 0 1-89.344-140.8A154.837333 154.837333 0 0 1 810.666667 373.568V277.333333H213.333333v95.893334a155.370667 155.370667 0 0 1 89.322667 140.8 155.370667 155.370667 0 0 1-84.266667 138.282666l-5.056 2.496zM384 597.333333h68.010667v85.333334H384v-85.333334z m0-128h68.010667v85.333334H384v-85.333334z m0-128h68.010667v85.333334H384v-85.333334z" /></svg>