<?xml version="1.0" standalone="no"?><!DOCTYPE svg PUBLIC "-//W3C//DTD SVG 1.1//EN" "http://www.w3.org/Graphics/SVG/1.1/DTD/svg11.dtd"><svg class="icon" width="32px" height="32.00px" viewBox="0 0 1024 1024" version="1.1" xmlns="http://www.w3.org/2000/svg"><path d="M857.770667 163.882667c75.157333 75.136 72.448 209.237333 6.122666 346.944-17.792 36.309333-41.130667 72.725333-69.248 107.904a64 64 0 1 0 48.533334 41.792 697.173333 697.173333 0 0 0 51.328-72.682667c33.962667 109.098667 24.277333 208.938667-36.736 269.930667-67.84 67.84-183.701333 72.234667-306.922667 23.658666l-1.642667-0.938666-2.816-1.237334a475.690667 475.690667 0 0 1-34.410666-14.784v-0.021333c-40.170667-19.093333-80.64-44.842667-119.530667-76.288a32 32 0 0 0-40.234667 49.792c26.368 21.312 53.504 40.32 80.96 56.746667-108.842667 33.728-208.426667 23.957333-269.290666-36.906667-73.749333-73.749333-72.533333-204.309333-9.749334-339.328l3.434667-7.253333c19.882667-34.432 45.141333-68.693333 74.986667-101.482667a64 64 0 1 0-43.733334-46.997333 688.085333 688.085333 0 0 0-60.394666 75.093333c-35.477333-110.656-26.304-212.202667 35.456-273.941333 75.136-75.157333 209.237333-72.448 346.944-6.122667 137.706667-66.325333 271.808-69.034667 346.944 6.122667z m-347.306667 261.248a85.333333 85.333333 0 1 0 0 170.666666 85.333333 85.333333 0 0 0 0-170.666666z"  /></svg>