<?xml version="1.0" standalone="no"?><!DOCTYPE svg PUBLIC "-//W3C//DTD SVG 1.1//EN" "http://www.w3.org/Graphics/SVG/1.1/DTD/svg11.dtd"><svg class="icon" width="32px" height="32.00px" viewBox="0 0 1024 1024" version="1.1" xmlns="http://www.w3.org/2000/svg"><path d="M683.918222 910.222222h-341.333333a227.555556 227.555556 0 0 1-227.555556-227.555555V341.333333a227.555556 227.555556 0 0 1 227.555556-227.555555h341.333333a227.555556 227.555556 0 0 1 227.555556 227.555555v341.333334a227.555556 227.555556 0 0 1-227.555556 227.555555z m-341.333333-728.177778a159.288889 159.288889 0 0 0-159.288889 159.288889v341.333334a159.288889 159.288889 0 0 0 159.288889 159.288889h341.333333a159.288889 159.288889 0 0 0 159.288889-159.288889V341.333333a159.288889 159.288889 0 0 0-159.288889-159.288889z"  /><path d="M513.251556 711.111111a199.111111 199.111111 0 1 1 199.111111-199.111111 199.395556 199.395556 0 0 1-199.111111 199.111111z m0-329.955555a130.844444 130.844444 0 1 0 130.844444 130.844444 130.844444 130.844444 0 0 0-130.844444-130.901333z"  /></svg>