<?xml version="1.0" standalone="no"?><!DOCTYPE svg PUBLIC "-//W3C//DTD SVG 1.1//EN" "http://www.w3.org/Graphics/SVG/1.1/DTD/svg11.dtd"><svg class="icon" width="32px" height="32.00px" viewBox="0 0 1024 1024" version="1.1" xmlns="http://www.w3.org/2000/svg"><path d="M714.666667 106.666667a74.666667 74.666667 0 0 1 74.56 70.570666L789.333333 181.333333V213.333333h10.666667a117.333333 117.333333 0 0 1 117.248 112.618667L917.333333 330.666667v320a117.333333 117.333333 0 0 1-112.618666 117.248L800 768H789.333333v10.666667a117.333333 117.333333 0 0 1-117.333333 117.333333h-320a117.333333 117.333333 0 0 1-117.333333-117.333333V768h-10.666667a117.333333 117.333333 0 0 1-117.248-112.618667L106.666667 650.666667v-320a117.333333 117.333333 0 0 1 112.618666-117.248L224 213.333333h10.666667V181.333333a74.666667 74.666667 0 0 1 70.570666-74.56L309.333333 106.666667h405.333334z m-42.666667 490.666666h-320a53.333333 53.333333 0 0 0-53.333333 53.333334v128a53.333333 53.333333 0 0 0 53.333333 53.333333h320a53.333333 53.333333 0 0 0 53.333333-53.333333v-128a53.333333 53.333333 0 0 0-53.333333-53.333334z m128-320h-576a53.333333 53.333333 0 0 0-53.226667 49.834667L170.666667 330.666667v320a53.333333 53.333333 0 0 0 49.834666 53.226666L224 704h10.666667v-53.333333a117.333333 117.333333 0 0 1 117.333333-117.333334h320a117.333333 117.333333 0 0 1 117.333333 117.333334V704h10.666667a53.333333 53.333333 0 0 0 53.226667-49.834667L853.333333 650.666667v-320a53.333333 53.333333 0 0 0-49.834666-53.226667L800 277.333333z m-42.666667 64a32 32 0 0 1 0 64h-42.666666a32 32 0 0 1 0-64h42.666666z m-42.666666-170.666666h-405.333334a10.666667 10.666667 0 0 0-10.496 8.746666L298.666667 181.333333V213.333333h426.666666V181.333333a10.666667 10.666667 0 0 0-8.746666-10.496L714.666667 170.666667z"  /></svg>