<?xml version="1.0" standalone="no"?><!DOCTYPE svg PUBLIC "-//W3C//DTD SVG 1.1//EN" "http://www.w3.org/Graphics/SVG/1.1/DTD/svg11.dtd"><svg class="icon" width="32px" height="32.00px" viewBox="0 0 1024 1024" version="1.1" xmlns="http://www.w3.org/2000/svg"><path d="M672 640a53.333333 53.333333 0 0 1 53.333333 53.333333v128a53.333333 53.333333 0 0 1-53.333333 53.333334h-320a53.333333 53.333333 0 0 1-53.333333-53.333334v-128a53.333333 53.333333 0 0 1 53.333333-53.333333h320z m42.666667-490.666667a74.666667 74.666667 0 0 1 74.56 70.570667L789.333333 224V256h10.666667a117.333333 117.333333 0 0 1 117.248 112.618667L917.333333 373.333333v320a117.333333 117.333333 0 0 1-112.618666 117.248L800 810.666667H789.333333v-117.333334a117.333333 117.333333 0 0 0-117.333333-117.333333h-320a117.333333 117.333333 0 0 0-117.333333 117.333333V810.666667h-10.666667a117.333333 117.333333 0 0 1-117.248-112.618667L106.666667 693.333333v-320a117.333333 117.333333 0 0 1 112.618666-117.248L224 256h10.666667v-32a74.666667 74.666667 0 0 1 70.570666-74.56L309.333333 149.333333h405.333334z m42.666666 234.666667h-42.666666a32 32 0 0 0-3.072 63.850667L714.666667 448h42.666666a32 32 0 0 0 0-64z m-42.666666-170.666667h-405.333334a10.666667 10.666667 0 0 0-10.496 8.746667L298.666667 224V256h426.666666v-32a10.666667 10.666667 0 0 0-8.746666-10.496L714.666667 213.333333z"  /></svg>