<?xml version="1.0" standalone="no"?><!DOCTYPE svg PUBLIC "-//W3C//DTD SVG 1.1//EN" "http://www.w3.org/Graphics/SVG/1.1/DTD/svg11.dtd"><svg class="icon" width="32px" height="32.00px" viewBox="0 0 1024 1024" version="1.1" xmlns="http://www.w3.org/2000/svg"><path d="M889.287111 219.420444h-178.005333V154.737778a97.28 97.28 0 0 0-96.995556-96.711111h-193.991111a97.28 97.28 0 0 0-96.995555 96.711111v64.682666H145.464889a32.312889 32.312889 0 0 0-32.312889 32.312889 32.312889 32.312889 0 0 0 32.312889 32.369778h48.469333v517.290667a129.706667 129.706667 0 0 0 129.308445 129.308444h387.982222a129.706667 129.706667 0 0 0 129.308444-129.308444V284.103111h48.469334a32.369778 32.369778 0 0 0 32.369777-32.369778 32.312889 32.312889 0 0 0-32.369777-32.312889zM388.152889 154.737778a32.426667 32.426667 0 0 1 32.312889-32.312889h193.991111a32.426667 32.426667 0 0 1 32.312889 32.312889v64.682666H388.152889z m387.982222 646.599111a64.853333 64.853333 0 0 1-64.682667 64.682667h-387.982222a64.910222 64.910222 0 0 1-64.682666-64.682667V284.046222h517.290666zM420.750222 413.411556a32.426667 32.426667 0 0 0-32.312889 32.312888v258.616889a32.312889 32.312889 0 0 0 32.369778 32.312889 32.312889 32.312889 0 0 0 32.312889-32.312889V445.724444a32.426667 32.426667 0 0 0-32.312889-32.312888z m193.991111 0a32.426667 32.426667 0 0 0-32.312889 32.312888v258.616889a32.312889 32.312889 0 0 0 32.369778 32.312889 32.312889 32.312889 0 0 0 32.312889-32.312889V445.724444a32.426667 32.426667 0 0 0-32.312889-32.312888z" /></svg>