<?xml version="1.0" standalone="no"?><!DOCTYPE svg PUBLIC "-//W3C//DTD SVG 1.1//EN" "http://www.w3.org/Graphics/SVG/1.1/DTD/svg11.dtd"><svg class="icon" width="64px" height="64.00px" viewBox="0 0 1024 1024" version="1.1" xmlns="http://www.w3.org/2000/svg"><path d="M468 552H300a4 4 0 0 0-4 4v56a4 4 0 0 0 4 4h168a4 4 0 0 0 4-4v-56a4 4 0 0 0-4-4z m128-136H300a4 4 0 0 0-4 4v56a4 4 0 0 0 4 4h296a4 4 0 0 0 4-4v-56a4 4 0 0 0-4-4z m212 160h-40V104a40 40 0 0 0-40-40H184A120 120 0 0 0 64 184v72a40 40 0 0 0 40 40h24v560a40 40 0 0 0 40 40h720a40 40 0 0 0 40-40V696a120 120 0 0 0-120-120zM136 224v-40a48 48 0 0 1 48-48h352v88z m560 600H200V296h368a40 40 0 0 0 40-40V136h88z m160 0h-88V648h40a48 48 0 0 1 48 48z" /></svg>