<?xml version="1.0" standalone="no"?><!DOCTYPE svg PUBLIC "-//W3C//DTD SVG 1.1//EN" "http://www.w3.org/Graphics/SVG/1.1/DTD/svg11.dtd"><svg class="icon" width="32px" height="32.00px" viewBox="0 0 1024 1024" version="1.1" xmlns="http://www.w3.org/2000/svg"><path d="M377.258667 597.333333c39.68 28.437333 84.608 42.666667 134.741333 42.666667 7.914667 0 15.701333-0.362667 23.36-1.066667-22.314667 41.6-34.026667 87.637333-34.026667 130.581334 0 65.834667 25.173333 114.752 67.477334 147.84L238.037333 917.333333a85.333333 85.333333 0 0 1-85.333333-85.333333V618.666667c29.930667 14.229333 59.882667 21.333333 89.813333 21.333333 29.952 0 74.88-14.229333 134.741334-42.666667zM746.666667 469.333333c58.901333 0 106.666667 28.650667 106.666666 64 0 15.786667-9.514667 30.208-25.28 41.386667C897.813333 611.541333 938.666667 693.376 938.666667 768c0 100.138667-85.973333 149.333333-192 149.333333s-192-49.194667-192-149.333333c0-74.602667 40.832-156.437333 110.613333-193.344C649.493333 563.562667 640 549.12 640 533.333333c0-35.349333 47.765333-64 106.666667-64z m-38.378667 171.989334l-2.026667 0.938666-0.981333 0.554667-1.024 0.64a14.613333 14.613333 0 0 0-5.056 18.389333l1.066667 1.877334 12.757333 19.008H688a16 16 0 0 0-2.176 31.850666l2.176 0.149334h42.666667v21.312h-32a16 16 0 0 0-2.176 31.850666l2.176 0.149334 32-0.021334v37.312a16 16 0 0 0 31.850666 2.176l0.149334-2.176V768l32 0.042667a16 16 0 0 0 2.176-31.850667l-2.176-0.149333h-32v-21.333334l42.666666 0.021334a16 16 0 0 0 2.176-31.829334l-2.176-0.149333h-25.045333l12.778667-19.029333 1.066666-1.877334a14.634667 14.634667 0 0 0-3.2-16.896l-1.856-1.493333-1.024-0.64-0.981333-0.554667-2.026667-0.938666a16 16 0 0 0-17.536 4.053333l-1.536 1.941333-19.328 28.8-19.285333-28.8a16 16 0 0 0-19.072-5.994666zM811.413333 106.666667c57.216 0 104.981333 40.789333 111.530667 94.293333l0.469333 4.608 13.632 199.573333a144.042667 144.042667 0 0 1-31.637333 113.408C895.488 460.736 828.16 416 746.666667 416c-88.362667 0-160 52.522667-160 117.333333 0 7.893333 1.066667 15.637333 3.114666 23.125334-19.754667 10.730667-42.24 17.493333-66.197333 19.136l-6.186667 0.32L512 576c-53.973333 0-101.632-25.856-129.92-65.258667l-3.2-4.608-1.621333-2.538666-1.621334 2.56c-25.898667 39.04-70.314667 65.92-121.536 69.44l-6.186666 0.32-5.397334 0.085333C155.733333 576 85.333333 509.141333 85.333333 426.666667c0-5.930667 0.362667-11.84 1.002667-16.853334l0.512-3.626666 13.738667-200.597334c4.16-54.208 50.474667-96.512 107.114666-98.816L212.586667 106.666667h598.826666z"  /></svg>