<?xml version="1.0" standalone="no"?><!DOCTYPE svg PUBLIC "-//W3C//DTD SVG 1.1//EN" "http://www.w3.org/Graphics/SVG/1.1/DTD/svg11.dtd"><svg class="icon" width="32px" height="32.00px" viewBox="0 0 1024 1024" version="1.1" xmlns="http://www.w3.org/2000/svg"><path d="M197.76 197.717333l-2.986667 3.2c-1.898667 2.24-3.626667 4.608-5.141333 7.125334l-0.938667 1.514666 1.984-2.432a172.8 172.8 0 0 0-28.586666 47.488C117.781333 365.589333 192.704 546.133333 327.488 680.533333c108.693333 108.373333 262.4 194.176 362.24 194.133334 28.757333 0 55.68-4.714667 79.786667-14.314667 22.549333-8.917333 42.154667-21.482667 58.133333-37.418667l30.848-30.762666a54.976 54.976 0 0 0 0-77.824l-141.696-141.226667-2.986667-2.773333a55.082667 55.082667 0 0 0-74.816 2.816l-48.768 48.64-5.077333 0.042666c-35.221333-0.725333-74.794667-21.738667-118.72-65.514666l-5.610667-5.696c-40.085333-41.493333-59.306667-79.04-59.84-112.704l0.042667-5.077334 48.512-48.384a54.869333 54.869333 0 0 0 0-77.824L308.010667 165.546667a54.997333 54.997333 0 0 0-77.994667 0L197.76 197.717333z"  /></svg>