<?xml version="1.0" standalone="no"?><!DOCTYPE svg PUBLIC "-//W3C//DTD SVG 1.1//EN" "http://www.w3.org/Graphics/SVG/1.1/DTD/svg11.dtd"><svg class="icon" width="32px" height="32.00px" viewBox="0 0 1024 1024" version="1.1" xmlns="http://www.w3.org/2000/svg"><path d="M768 85.333333a85.333333 85.333333 0 0 1 85.333333 85.333334v768a42.666667 42.666667 0 0 1-42.56-39.466667L810.666667 896a42.666667 42.666667 0 0 0-85.226667-3.2L725.333333 896a42.666667 42.666667 0 0 1-85.226666 3.2L640 896a42.666667 42.666667 0 0 0-85.226667-3.2L554.666667 896a42.666667 42.666667 0 0 1-85.226667 3.2L469.333333 896a42.666667 42.666667 0 0 0-85.226666-3.2L384 896a42.666667 42.666667 0 0 1-85.226667 3.2L298.666667 896a42.666667 42.666667 0 0 0-85.226667-3.2L213.333333 896a42.666667 42.666667 0 0 1-39.466666 42.56L170.666667 938.666667V170.666667a85.333333 85.333333 0 0 1 85.333333-85.333334h512z m-53.333333 469.333334h-405.333334a32 32 0 0 0 0 64h405.333334a32 32 0 0 0 0-64z m0-234.666667h-405.333334a32 32 0 0 0 0 64h405.333334a32 32 0 0 0 0-64z"  /></svg>