<?xml version="1.0" standalone="no"?><!DOCTYPE svg PUBLIC "-//W3C//DTD SVG 1.1//EN" "http://www.w3.org/Graphics/SVG/1.1/DTD/svg11.dtd"><svg class="icon" width="32px" height="32.00px" viewBox="0 0 1024 1024" version="1.1" xmlns="http://www.w3.org/2000/svg"><path d="M219.093333 197.717333l-2.986666 3.2c-1.898667 2.24-3.626667 4.608-5.141334 7.125334l-0.938666 1.514666 1.984-2.432a172.8 172.8 0 0 0-28.586667 47.488C139.114667 365.589333 214.037333 546.133333 348.821333 680.533333c108.693333 108.373333 262.4 194.176 362.24 194.133334 28.757333 0 55.68-4.714667 79.786667-14.314667 22.549333-8.917333 42.154667-21.482667 58.133333-37.418667l30.848-30.762666a54.976 54.976 0 0 0 0-77.824l-141.696-141.226667-2.986666-2.773333a55.082667 55.082667 0 0 0-74.816 2.816l-48.768 48.64-5.077334 0.042666c-35.221333-0.725333-74.794667-21.738667-118.72-65.514666l-5.610666-5.696c-40.085333-41.493333-59.306667-79.04-59.84-112.704l0.042666-5.077334 48.512-48.384a54.869333 54.869333 0 0 0 0-77.824L329.344 165.546667a54.997333 54.997333 0 0 0-77.994667 0L219.093333 197.717333z m49.152 47.018667l22.101334-22.058667 123.242666 122.88-42.282666 42.24a56.661333 56.661333 0 0 0-16.426667 35.264c-5.162667 60.437333 24.213333 120.96 84.885333 181.418667 60.586667 60.373333 121.045333 89.749333 181.312 84.906667l4.416-0.554667a56.682667 56.682667 0 0 0 31.04-15.829333l42.730667-42.624 123.306667 122.88-21.589334 21.525333c-9.258667 9.216-20.992 16.746667-35.2 22.357333-15.829333 6.293333-34.218667 9.536-54.72 9.536-78.314667 0.021333-217.024-77.44-314.176-174.293333-117.653333-117.290667-182.165333-272.725333-150.293333-352.576 3.328-8.341333 7.722667-16.170667 13.162667-23.488l5.909333-7.509333 1.493333-2.24 1.088-1.834667z"  /></svg>