<?xml version="1.0" standalone="no"?><!DOCTYPE svg PUBLIC "-//W3C//DTD SVG 1.1//EN" "http://www.w3.org/Graphics/SVG/1.1/DTD/svg11.dtd"><svg class="icon" width="32px" height="32.00px" viewBox="0 0 1024 1024" version="1.1" xmlns="http://www.w3.org/2000/svg"><path d="M502.016 789.333333l37.056 64H96a32 32 0 0 1 0-64h406.016zM512 149.333333a106.666667 106.666667 0 0 1 105.770667 120.597334 406.122667 406.122667 0 0 1 240.384 180.416 72.981333 72.981333 0 0 0-27.562667-5.397334h-210.517333c-26.090667 0-50.197333 13.866667-63.253334 36.416l-95.488 164.906667a72.64 72.64 0 0 0 0 72.810667l3.626667 6.250666H96a32 32 0 0 1 0-64H106.666667c0-187.264 126.997333-344.874667 299.584-391.402666A106.666667 106.666667 0 0 1 512 149.333333z m0 64a42.666667 42.666667 0 0 0-42.602667 44.864 411.584 411.584 0 0 1 85.184 0L554.666667 256a42.666667 42.666667 0 0 0-42.666667-42.666667z"  /><path d="M802.496 490.666667c21.077333 0 40.554667 11.2 51.114667 29.397333l77.141333 133.205333a58.645333 58.645333 0 0 1 0 58.794667l-77.141333 133.205333A59.050667 59.050667 0 0 1 802.496 874.666667h-154.325333a59.050667 59.050667 0 0 1-51.114667-29.397334l-77.141333-133.205333a58.645333 58.645333 0 0 1 0-58.794667l77.141333-133.205333A59.050667 59.050667 0 0 1 648.170667 490.666667zM725.333333 618.666667a64 64 0 1 0 0 128 64 64 0 0 0 0-128z"  /></svg>