<?xml version="1.0" standalone="no"?><!DOCTYPE svg PUBLIC "-//W3C//DTD SVG 1.1//EN" "http://www.w3.org/Graphics/SVG/1.1/DTD/svg11.dtd"><svg class="icon" width="32px" height="32.00px" viewBox="0 0 1024 1024" version="1.1" xmlns="http://www.w3.org/2000/svg"><path d="M810.666667 85.333333a85.333333 85.333333 0 0 1 85.333333 85.333334v682.666666a85.333333 85.333333 0 0 1-85.333333 85.333334H213.333333a85.333333 85.333333 0 0 1-85.333333-85.333334V170.666667a85.333333 85.333333 0 0 1 85.333333-85.333334h597.333334z m-117.333334 426.666667h-362.666666a32 32 0 0 0 0 64h362.666666a32 32 0 0 0 0-64z m-170.666666-170.666667h-192a32 32 0 0 0 0 64h192a32 32 0 0 0 0-64z"  /></svg>