<?xml version="1.0" standalone="no"?><!DOCTYPE svg PUBLIC "-//W3C//DTD SVG 1.1//EN" "http://www.w3.org/Graphics/SVG/1.1/DTD/svg11.dtd"><svg class="icon" width="32px" height="32.00px" viewBox="0 0 1024 1024" version="1.1" xmlns="http://www.w3.org/2000/svg"><path d="M928 789.333333a32 32 0 0 1 0 64h-832a32 32 0 0 1 0-64h832zM512 149.333333a106.666667 106.666667 0 0 1 105.770667 120.597334c170.346667 45.930667 296.298667 200.106667 299.52 384.213333L917.333333 661.333333h10.666667a32 32 0 0 1 0 64h-832a32 32 0 0 1 0-64H106.666667c0-187.264 126.997333-344.874667 299.584-391.402666A106.666667 106.666667 0 0 1 512 149.333333z m0 64a42.666667 42.666667 0 0 0-42.602667 44.864 411.584 411.584 0 0 1 85.184 0L554.666667 256a42.666667 42.666667 0 0 0-42.666667-42.666667z"  /></svg>