<?xml version="1.0" standalone="no"?><!DOCTYPE svg PUBLIC "-//W3C//DTD SVG 1.1//EN" "http://www.w3.org/Graphics/SVG/1.1/DTD/svg11.dtd"><svg class="icon" width="32px" height="32.00px" viewBox="0 0 1024 1024" version="1.1" xmlns="http://www.w3.org/2000/svg"><path d="M789.333333 106.666667a85.333333 85.333333 0 0 1 85.333334 85.333333v640a85.333333 85.333333 0 0 1-85.333334 85.333333H277.333333a85.333333 85.333333 0 0 1-85.333333-85.333333v-64a42.666667 42.666667 0 1 1 0-85.333333v-128a42.666667 42.666667 0 1 1 0-85.333334v-128a42.666667 42.666667 0 1 1 0-85.333333V192a85.333333 85.333333 0 0 1 85.333333-85.333333h512z m-74.666666 426.666666h-362.666667a32 32 0 0 0 0 64h362.666667a32 32 0 0 0 0-64z m-170.666667-170.666666h-192a32 32 0 0 0 0 64h192a32 32 0 0 0 0-64z"  /></svg>