<?xml version="1.0" standalone="no"?><!DOCTYPE svg PUBLIC "-//W3C//DTD SVG 1.1//EN" "http://www.w3.org/Graphics/SVG/1.1/DTD/svg11.dtd"><svg class="icon" width="32px" height="32.00px" viewBox="0 0 1024 1024" version="1.1" xmlns="http://www.w3.org/2000/svg"><path d="M810.666667 85.333333a85.333333 85.333333 0 0 1 85.333333 85.333334v682.666666a85.333333 85.333333 0 0 1-85.333333 85.333334H213.333333a85.333333 85.333333 0 0 1-85.333333-85.333334V170.666667a85.333333 85.333333 0 0 1 85.333333-85.333334h597.333334z m0 64H213.333333a21.333333 21.333333 0 0 0-21.184 18.837334L192 170.666667v682.666666a21.333333 21.333333 0 0 0 18.837333 21.184L213.333333 874.666667h597.333334a21.333333 21.333333 0 0 0 21.184-18.837334L832 853.333333V170.666667a21.333333 21.333333 0 0 0-18.837333-21.184L810.666667 149.333333z m-117.333334 362.666667a32 32 0 0 1 0 64h-362.666666a32 32 0 0 1 0-64h362.666666z m-170.666666-170.666667a32 32 0 0 1 0 64h-192a32 32 0 0 1 0-64h192z"  /></svg>