<?xml version="1.0" standalone="no"?><!DOCTYPE svg PUBLIC "-//W3C//DTD SVG 1.1//EN" "http://www.w3.org/Graphics/SVG/1.1/DTD/svg11.dtd"><svg class="icon" width="32px" height="32.00px" viewBox="0 0 1024 1024" version="1.1" xmlns="http://www.w3.org/2000/svg"><path d="M512 85.333333c188.373333 0 341.333333 150.250667 341.333333 335.914667 0 108.032-82.453333 263.402667-246.293333 471.274667a120.96 120.96 0 0 1-190.144-0.064l-16.746667-21.44C247.509333 673.92 170.666667 525.568 170.666667 421.248 170.666667 235.584 323.626667 85.333333 512 85.333333z m0 64c-153.322667 0-277.333333 121.642667-277.333333 271.36 0 87.296 74.816 229.717333 225.472 422.250667l8.32 10.624a55.445333 55.445333 0 0 0 87.061333 0C711.744 655.637333 789.333333 509.632 789.333333 420.693333 789.333333 270.954667 665.322667 149.333333 512 149.333333z m0 128a128 128 0 1 1 0 256 128 128 0 0 1 0-256z m0 64a64 64 0 1 0 0 128 64 64 0 0 0 0-128z"  /></svg>