<?xml version="1.0" standalone="no"?><!DOCTYPE svg PUBLIC "-//W3C//DTD SVG 1.1//EN" "http://www.w3.org/Graphics/SVG/1.1/DTD/svg11.dtd"><svg class="icon" width="32px" height="32.00px" viewBox="0 0 1024 1024" version="1.1" xmlns="http://www.w3.org/2000/svg"><path d="M393.173333 785.685333l17.792 21.44c44.096 52.672 125.013333 61.632 180.8 20.074667 7.893333-5.866667 14.997333-12.586667 21.226667-20.010667 79.509333-94.954667 141.013333-178.986667 184.32-252.501333L821.333333 554.666667a74.666667 74.666667 0 0 1 74.56 70.570666L896 629.333333v192a117.333333 117.333333 0 0 1-112.618667 117.248L778.666667 938.666667h-533.333334a117.333333 117.333333 0 0 1-117.248-112.618667L128 821.333333v-192a74.666667 74.666667 0 0 1 70.570667-74.56L202.666667 554.666667h24.021333c40.021333 67.946667 95.552 144.832 166.464 231.018666zM512 85.333333c153.045333 0 277.333333 123.946667 277.333333 277.12 0 89.130667-66.986667 217.322667-200.106666 388.821334a99.285333 99.285333 0 0 1-16.213334 16.512 97.28 97.28 0 0 1-138.282666-16.576l-13.610667-17.706667C297.088 570.944 234.666667 448.533333 234.666667 362.496 234.666667 209.28 358.954667 85.333333 512 85.333333z m0 170.666667a106.666667 106.666667 0 1 0 0 213.333333 106.666667 106.666667 0 0 0 0-213.333333z"  /></svg>