<?xml version="1.0" standalone="no"?><!DOCTYPE svg PUBLIC "-//W3C//DTD SVG 1.1//EN" "http://www.w3.org/Graphics/SVG/1.1/DTD/svg11.dtd"><svg class="icon" width="32px" height="32.00px" viewBox="0 0 1024 1024" version="1.1" xmlns="http://www.w3.org/2000/svg"><path d="M224 554.666667a32 32 0 0 1 3.072 63.850666L224 618.666667h-21.333333a10.666667 10.666667 0 0 0-10.496 8.746666L192 629.333333v192a53.333333 53.333333 0 0 0 49.834667 53.226667L245.333333 874.666667h533.333334a53.333333 53.333333 0 0 0 53.226666-49.834667L832 821.333333v-192a10.666667 10.666667 0 0 0-8.746667-10.496L821.333333 618.666667h-21.333333a32 32 0 0 1-3.072-63.850667L800 554.666667h21.333333a74.666667 74.666667 0 0 1 74.56 70.570666L896 629.333333v192a117.333333 117.333333 0 0 1-112.618667 117.248L778.666667 938.666667h-533.333334a117.333333 117.333333 0 0 1-117.248-112.618667L128 821.333333v-192a74.666667 74.666667 0 0 1 70.570667-74.56L202.666667 554.666667h21.333333zM512 85.333333c153.045333 0 277.333333 123.946667 277.333333 277.12 0 89.130667-66.986667 217.322667-200.106666 388.821334a99.285333 99.285333 0 0 1-16.213334 16.512 97.28 97.28 0 0 1-138.282666-16.576l-13.610667-17.706667C297.088 570.944 234.666667 448.533333 234.666667 362.496 234.666667 209.28 358.954667 85.333333 512 85.333333z m0 64c-117.930667 0-213.333333 96.597333-213.333333 215.488 0 69.333333 57.536 182.421333 173.44 335.317334l6.4 8.426666a41.749333 41.749333 0 0 0 59.946666 7.274667c2.602667-2.133333 4.970667-4.565333 7.04-7.253333C665.642667 551.36 725.333333 435.413333 725.333333 364.8 725.333333 245.930667 629.930667 149.333333 512 149.333333z m0 106.666667a106.666667 106.666667 0 1 1 0 213.333333 106.666667 106.666667 0 0 1 0-213.333333z m0 64a42.666667 42.666667 0 1 0 0 85.333333 42.666667 42.666667 0 0 0 0-85.333333z"  /></svg>