<?xml version="1.0" standalone="no"?><!DOCTYPE svg PUBLIC "-//W3C//DTD SVG 1.1//EN" "http://www.w3.org/Graphics/SVG/1.1/DTD/svg11.dtd"><svg class="icon" width="32px" height="32.00px" viewBox="0 0 1024 1024" version="1.1" xmlns="http://www.w3.org/2000/svg"><path d="M789.333333 106.666667a85.333333 85.333333 0 0 1 85.333334 85.333333v640a85.333333 85.333333 0 0 1-85.333334 85.333333H277.333333a85.333333 85.333333 0 0 1-85.333333-85.333333v-64a42.666667 42.666667 0 1 1 0-85.333333v-128a42.666667 42.666667 0 1 1 0-85.333334v-128a42.666667 42.666667 0 1 1 0-85.333333V192a85.333333 85.333333 0 0 1 85.333333-85.333333h512zM473.109333 371.456a32 32 0 0 0-44.074666 0l-0.832 0.789333a29.952 29.952 0 0 0 0 43.456l40.085333 38.08h-32.213333a30.72 30.72 0 0 0 0 61.44h66.282666v40.96h-44.736a30.72 30.72 0 1 0 0 61.461334h44.736v49.92a32 32 0 0 0 32 32h0.704a32 32 0 0 0 32-32l-0.021333-49.92h44.757333a30.72 30.72 0 0 0 0-61.44l-44.757333-0.021334v-40.96h66.325333a30.72 30.72 0 0 0 0-61.44h-37.034666l40.106666-38.08 2.112-2.218666a29.973333 29.973333 0 0 0-2.133333-41.237334l-0.810667-0.789333-2.389333-2.048a32 32 0 0 0-41.685333 2.048l-59.221334 56.234667z"  /></svg>