<?xml version="1.0" standalone="no"?><!DOCTYPE svg PUBLIC "-//W3C//DTD SVG 1.1//EN" "http://www.w3.org/Graphics/SVG/1.1/DTD/svg11.dtd"><svg class="icon" width="32px" height="32.00px" viewBox="0 0 1024 1024" version="1.1" xmlns="http://www.w3.org/2000/svg"><path d="M513.557333 85.333333a428.266667 428.266667 0 0 1 362.624 199.616l4.416 7.146667c23.893333 39.466667-15.445333 68.757333-348.416 296.213333a33.024 33.024 0 0 1-45.781333-8.533333 32.746667 32.746667 0 0 1 8.533333-45.610667l55.317334-37.930666c88.042667-60.629333 155.456-108.352 202.154666-143.104l17.92-13.461334c14.869333-11.306667 26.922667-20.864 36.117334-28.565333l5.162666-4.458667-0.533333-0.789333A362.282667 362.282667 0 0 0 521.749333 151.04l-8.192-0.085333c-200.106667 0-362.346667 161.642667-362.346666 361.024 0 199.381333 162.24 361.024 362.346666 361.024 82.922667 0 161.493333-27.797333 225.066667-78.08a33.024 33.024 0 0 1 46.293333 5.333333c11.306667 14.186667 8.917333 34.837333-5.333333 46.101333A427.477333 427.477333 0 0 1 513.557333 938.666667C277.056 938.666667 85.333333 747.648 85.333333 512S277.056 85.333333 513.557333 85.333333z m401.28 433.514667a32.853333 32.853333 0 0 1 22.528 40.661333c-6.016 20.757333-16.512 40.256-30.997333 58.069334a33.002667 33.002667 0 0 1-46.336 4.821333 32.746667 32.746667 0 0 1-4.885333-46.165333c9.109333-11.2 15.402667-22.890667 18.901333-34.986667a32.917333 32.917333 0 0 1 40.789333-22.4z"  /></svg>