<?xml version="1.0" standalone="no"?><!DOCTYPE svg PUBLIC "-//W3C//DTD SVG 1.1//EN" "http://www.w3.org/Graphics/SVG/1.1/DTD/svg11.dtd"><svg class="icon" width="32px" height="32.00px" viewBox="0 0 1024 1024" version="1.1" xmlns="http://www.w3.org/2000/svg"><path d="M682.773333 128a152.576 152.576 0 0 1 130.645334 73.749333L947.882667 424.533333a76.288 76.288 0 0 1-12.288 94.250667l-369.706667 357.44a76.288 76.288 0 0 1-107.136-1.066667L87.338667 501.354667a76.288 76.288 0 0 1-10.197334-94.784l132.565334-208A152.576 152.576 0 0 1 338.389333 128h344.384z m-172.330666 149.333333a188.714667 188.714667 0 0 0-103.594667 30.997334 190.72 190.72 0 0 0-82.624 121.088 191.957333 191.957333 0 0 0 26.581333 144.490666A189.610667 189.610667 0 0 0 510.72 661.333333a187.904 187.904 0 0 0 100.949333-29.312c1.088-0.576 1.984-1.066667 2.816-1.6a17.6 17.6 0 0 0 1.92-1.408l0.213334-0.149333a192.704 192.704 0 0 0 11.2-8.192 12.16 12.16 0 0 0 3.392-14.72 2.389333 2.389333 0 0 0-0.234667-0.597333l-0.170667-0.213334-0.362666-0.682666-7.914667-12.650667a27.370667 27.370667 0 0 0-36.992-8.704h-0.021333l-0.597334 0.384a3.498667 3.498667 0 0 0-0.490666 0.277333 3.626667 3.626667 0 0 0-0.725334 0.533334 134.848 134.848 0 0 1-186.752-40.576 136.533333 136.533333 0 0 1-18.901333-102.762667 135.765333 135.765333 0 0 1 58.752-86.122667 134.08 134.08 0 0 1 73.642667-22.037333c32.853333 0 64.533333 11.946667 89.173333 33.6a8.682667 8.682667 0 0 1 2.816 5.546667 7.338667 7.338667 0 0 1-3.541333 6.592l-116.821334 76.437333a27.52 27.52 0 0 0-11.946666 17.493333c-1.536 7.253333-0.149333 14.634667 3.84 20.864l8.384 13.013334a12.117333 12.117333 0 0 0 16.789333 3.562666l172.16-112.64c4.650667-3.328 6.741333-8.618667 6.464-14.4-0.341333-7.68-4.693333-13.973333-7.338667-18.090666a189.717333 189.717333 0 0 0-160-87.445334z m167.04 186.026667a13.717333 13.717333 0 0 0-7.509334 2.24l-30.122666 19.733333-0.704 0.469334a13.845333 13.845333 0 0 0-5.269334 8.32 13.952 13.952 0 0 0 1.92 10.453333l19.541334 30.357333 0.512 0.725334a13.76 13.76 0 0 0 18.602666 3.349333l15.061334-9.834667 1.002666-0.682666c6.570667-4.650667 11.093333-11.562667 12.778667-19.52 1.770667-8.362667 0.213333-16.938667-4.416-24.106667l-9.770667-15.146667-0.512-0.746666a13.824 13.824 0 0 0-11.093333-5.632z"  /></svg>