<?xml version="1.0" standalone="no"?><!DOCTYPE svg PUBLIC "-//W3C//DTD SVG 1.1//EN" "http://www.w3.org/Graphics/SVG/1.1/DTD/svg11.dtd"><svg class="icon" width="32px" height="32.00px" viewBox="0 0 1024 1024" version="1.1" xmlns="http://www.w3.org/2000/svg"><path d="M561.621333 174.186667c76.736 6.848 152.042667 19.925333 212.714667 76.778666 20.565333 19.242667 93.141333 2.688 101.44 1.344 20.096-3.221333 53.866667-18.88 61.354667 18.922667 6.442667 32.533333-7.530667 60.416-38.890667 75.904-7.722667 3.84-16.384 8.064-24.618667 8.106667-30.549333 0.128-27.349333 14.997333-18.624 36.245333 22.293333 54.293333 36.266667 110.976 45.290667 169.088 19.434667 125.397333-53.397333 230.826667-177.322667 254.250667-69.973333 13.226667-140.714667 19.242667-211.989333 16.533333-71.317333 2.688-142.037333-3.498667-211.946667-17.024-121.002667-23.402667-193.6-129.408-174.72-252.309333 9.173333-59.584 23.424-117.696 46.677334-173.226667 8.746667-20.906667 8.192-31.701333-18.282667-33.578667-18.645333-1.322667-37.12-8.874667-48.96-25.365333-14.016-19.562667-24.469333-41.728-14.421333-65.557333 11.093333-26.368 36.181333-15.722667 53.824-12.202667 56.256 11.242667 101.994667 1.834667 153.173333-31.808 78.506667-51.626667 173.248-54.293333 265.301333-46.08z m-175.36 139.157333c-108.373333 8.789333-165.333333 49.642667-203.2 187.690667-5.717333 20.821333-8.96 42.602667-11.050666 64.149333-9.493333 96.789333 23.872 149.461333 114.645333 181.610667 72.234667 25.578667 147.285333 30.186667 222.976 28.928 80.405333 1.749333 160.021333-3.498667 236.48-31.36 55.552-20.245333 99.2-54.506667 105.109333-117.717334 8.661333-92.821333-11.882667-179.136-71.082666-253.226666-19.882667-24.853333-45.909333-40.661333-77.12-48-104.853333-24.725333-210.56-20.693333-316.757334-12.074667z m304.810667 31.68c29.269333 6.698667 53.653333 21.077333 72.298667 43.669333 55.488 67.349333 74.752 145.813333 66.624 230.186667-5.525333 57.472-46.464 88.64-98.538667 107.029333-71.68 25.322667-146.304 30.08-221.696 28.501334-70.954667 1.152-141.312-3.050667-209.024-26.304-85.12-29.226667-116.394667-77.098667-107.498667-165.077334 1.962667-19.605333 5.013333-39.402667 10.368-58.346666 35.477333-125.482667 88.874667-162.624 190.506667-170.624 99.541333-7.829333 198.656-11.477333 296.96 10.965333z m-318.101333 125.205333c-19.264 0-34.88 15.594667-34.88 34.858667v62.421333a34.858667 34.858667 0 1 0 69.738666 0v-62.421333c0-19.264-15.616-34.858667-34.858666-34.858667z m278.912 0c-19.264 0-34.88 15.594667-34.88 34.858667v62.421333a34.858667 34.858667 0 1 0 69.738666 0v-62.421333c0-19.264-15.616-34.858667-34.858666-34.858667zM510.144 213.333333c2.090667 27.797333-9.6 44.096-40.810667 54.613334 30.314667 14.613333 46.826667 12.074667 58.154667-6.954667 11.2-18.816 6.4-34.133333-17.344-47.658667z"  /></svg>