<?xml version="1.0" standalone="no"?><!DOCTYPE svg PUBLIC "-//W3C//DTD SVG 1.1//EN" "http://www.w3.org/Graphics/SVG/1.1/DTD/svg11.dtd"><svg class="icon" width="32px" height="32.00px" viewBox="0 0 1024 1024" version="1.1" xmlns="http://www.w3.org/2000/svg"><path d="M725.333333 128a170.666667 170.666667 0 0 1 170.666667 170.666667v426.666666a170.666667 170.666667 0 0 1-170.666667 170.666667H298.666667a170.666667 170.666667 0 0 1-170.666667-170.666667V298.666667a170.666667 170.666667 0 0 1 170.666667-170.666667h426.666666z m-94.72 308.330667H192c0.277333 1.984 3.264 18.368 24.426667 21.44 44.842667 6.528 110.144 14.101333 153.856 40.533333 39.146667 23.68 56.064 59.072 47.04 114.730667C410.837333 652.928 393.813333 704 393.813333 704c87.850667 0 161.493333-69.44 193.002667-150.272a5850.56 5850.56 0 0 0 43.776-117.397333zM832 320h-199.893333l-5.866667 0.085333c-66.154667 2.005333-127.296 37.76-146.304 97.472h155.093333l1.194667-3.072c0.746667-1.898667 1.429333-3.541333 2.24-5.333333 21.482667-48.618667 59.157333-70.208 114.389333-75.349333 23.466667-2.176 45.994667-3.733333 59.989334-5.013334 10.346667-0.938667 17.28-1.813333 19.157333-8.789333z"  /></svg>