<?xml version="1.0" standalone="no"?><!DOCTYPE svg PUBLIC "-//W3C//DTD SVG 1.1//EN" "http://www.w3.org/Graphics/SVG/1.1/DTD/svg11.dtd"><svg class="icon" width="32px" height="32.00px" viewBox="0 0 1024 1024" version="1.1" xmlns="http://www.w3.org/2000/svg"><path d="M490.666667 128a31.146667 31.146667 0 0 1 2.986666 62.122667L490.666667 190.293333H242.154667a51.904 51.904 0 0 0-51.776 48.469334l-0.106667 3.413333V781.866667a51.904 51.904 0 0 0 48.469333 51.776l3.413334 0.106666H781.866667a51.904 51.904 0 0 0 51.776-48.469333l0.106666-3.413333V533.333333a31.146667 31.146667 0 0 1 62.122667-2.986666L896 533.333333v248.512a114.154667 114.154667 0 0 1-109.568 114.069334l-4.586667 0.085333H242.133333a114.154667 114.154667 0 0 1-114.069333-109.568L128 781.845333V242.133333a114.154667 114.154667 0 0 1 109.568-114.069333L242.154667 128H490.666667z m291.178666 0a114.154667 114.154667 0 0 1 114.069334 109.568l0.085333 4.586667v145.301333a31.146667 31.146667 0 0 1-62.122667 2.986667l-0.149333-2.986667v-145.28c0-2.496-0.170667-4.949333-0.512-7.338667L471.744 596.266667a31.146667 31.146667 0 0 1-46.165333-41.664l2.133333-2.368L789.184 190.784a52.074667 52.074667 0 0 0-3.925333-0.405333l-3.413334-0.106667h-145.301333a31.146667 31.146667 0 0 1-2.986667-62.122667l2.986667-0.149333h145.28z"  /></svg>