<?xml version="1.0" standalone="no"?><!DOCTYPE svg PUBLIC "-//W3C//DTD SVG 1.1//EN" "http://www.w3.org/Graphics/SVG/1.1/DTD/svg11.dtd"><svg class="icon" width="32px" height="32.00px" viewBox="0 0 1024 1024" version="1.1" xmlns="http://www.w3.org/2000/svg"><path d="M512 85.333333c235.648 0 426.666667 191.018667 426.666667 426.666667s-191.018667 426.666667-426.666667 426.666667S85.333333 747.648 85.333333 512 276.352 85.333333 512 85.333333z m0 64C311.701333 149.333333 149.333333 311.701333 149.333333 512s162.368 362.666667 362.666667 362.666667 362.666667-162.368 362.666667-362.666667S712.298667 149.333333 512 149.333333z m98.389333 173.290667l2.88 1.429333 2.816 1.578667a28.266667 28.266667 0 0 1 10.730667 38.784l-1.578667 2.432-43.242666 59.968h68.693333a32 32 0 1 1 0 64l-106.688-0.021333v63.957333h85.333333a32 32 0 1 1 0 64l-85.333333-0.021333V714.666667a32 32 0 0 1-64 0v-95.936h-85.333333a32 32 0 1 1 0-63.957334l85.333333-0.021333v-63.957333h-106.666667a32 32 0 1 1 0-63.957334l68.650667-0.021333-43.221333-59.968a28.266667 28.266667 0 0 1 9.152-41.216l2.816-1.578667a32 32 0 0 1 41.557333 9.237334l59.690667 82.816 59.733333-82.816a32 32 0 0 1 38.677333-10.666667z"  /></svg>