<?xml version="1.0" standalone="no"?><!DOCTYPE svg PUBLIC "-//W3C//DTD SVG 1.1//EN" "http://www.w3.org/Graphics/SVG/1.1/DTD/svg11.dtd"><svg class="icon" width="32px" height="32.00px" viewBox="0 0 1024 1024" version="1.1" xmlns="http://www.w3.org/2000/svg"><path d="M512 85.333333c235.648 0 426.666667 191.018667 426.666667 426.666667s-191.018667 426.666667-426.666667 426.666667S85.333333 747.648 85.333333 512 276.352 85.333333 512 85.333333z m98.389333 237.290667a32 32 0 0 0-38.677333 10.666667L512 416.106667l-59.690667-82.816a32 32 0 0 0-41.557333-9.237334l-2.816 1.578667a28.266667 28.266667 0 0 0-9.173333 41.216l43.242666 59.968h-68.672a32 32 0 1 0 0 64l106.688-0.021333v63.957333h-85.333333a32 32 0 1 0 0 64l85.333333-0.021333V714.666667a32 32 0 0 0 64 0v-95.936h85.333334a32 32 0 1 0 0-63.957334l-85.333334-0.021333v-63.957333h106.666667a32 32 0 1 0 0-63.957334l-68.672-0.021333 43.242667-59.968 1.578666-2.432a28.266667 28.266667 0 0 0-10.730666-38.784l-2.816-1.578667z"  /></svg>