<?xml version="1.0" standalone="no"?><!DOCTYPE svg PUBLIC "-//W3C//DTD SVG 1.1//EN" "http://www.w3.org/Graphics/SVG/1.1/DTD/svg11.dtd"><svg class="icon" width="64px" height="64.00px" viewBox="0 0 1024 1024" version="1.1" xmlns="http://www.w3.org/2000/svg"><path d="M924 616a36 36 0 0 0-36 36v236H652a36 36 0 0 0 0 72h272a36 36 0 0 0 36-36V652a36 36 0 0 0-36-36zM372 64H100a36 36 0 0 0-36 36v272a36 36 0 0 0 72 0V136h236a36 36 0 0 0 0-72zM924 64H652a36 36 0 0 0 0 72h185.09L626.54 346.54a36 36 0 1 0 50.92 50.91L888 186.91V372a36 36 0 0 0 72 0V100a36 36 0 0 0-36-36zM372 616a35.87 35.87 0 0 0-25.46 10.55L136 837.09V652a36 36 0 0 0-72 0v272a36 36 0 0 0 36 36h272a36 36 0 0 0 0-72H186.91l210.55-210.54A36 36 0 0 0 372 616z" /></svg>