<?xml version="1.0" standalone="no"?><!DOCTYPE svg PUBLIC "-//W3C//DTD SVG 1.1//EN" "http://www.w3.org/Graphics/SVG/1.1/DTD/svg11.dtd"><svg class="icon" width="64px" height="64.00px" viewBox="0 0 1024 1024" version="1.1" xmlns="http://www.w3.org/2000/svg"><path d="M379.336 697.237L153.362 921.55c-14.11 14.007-36.905 13.922-50.912-0.188-14.007-14.11-13.922-36.905 0.188-50.912l227.6-225.927H138.645c-18.99 0-34.385-15.446-34.385-34.5 0-19.053 15.395-34.5 34.385-34.5H413.72c18.99 0 34.384 15.447 34.384 34.5v276c0 9.15-3.622 17.926-10.07 24.396a34.326 34.326 0 0 1-24.314 10.104 34.326 34.326 0 0 1-24.314-10.104 34.559 34.559 0 0 1-10.071-24.396V697.237z m263.395-366.88l227.813-227.813c14.059-14.059 36.853-14.059 50.912 0 14.059 14.059 14.059 36.853 0 50.912l-225.18 225.18h187.147c18.99 0 34.385 15.445 34.385 34.5 0 19.053-15.395 34.5-34.385 34.5H608.346c-18.99 0-34.384-15.447-34.384-34.5v-276c0-9.15 3.622-17.926 10.07-24.396a34.326 34.326 0 0 1 24.314-10.105c9.12 0 17.865 3.635 24.314 10.105a34.559 34.559 0 0 1 10.07 24.395v193.223zM99.385 410a34.326 34.326 0 0 1-24.314-10.105A34.559 34.559 0 0 1 65 375.5v-276C65 80.446 80.395 65 99.385 65h275.077c18.99 0 34.384 15.446 34.384 34.5 0 19.054-15.394 34.5-34.384 34.5H133.769v241.5c0 9.15-3.622 17.925-10.07 24.395A34.326 34.326 0 0 1 99.384 410z m825.23 552H649.538c-18.99 0-34.384-15.446-34.384-34.5 0-19.054 15.394-34.5 34.384-34.5h240.693V651.5c0-19.054 15.394-34.5 34.384-34.5 18.99 0 34.385 15.446 34.385 34.5v276c0 19.054-15.395 34.5-34.385 34.5z" /></svg>