<?xml version="1.0" standalone="no"?><!DOCTYPE svg PUBLIC "-//W3C//DTD SVG 1.1//EN" "http://www.w3.org/Graphics/SVG/1.1/DTD/svg11.dtd"><svg class="icon" width="32px" height="32.00px" viewBox="0 0 1024 1024" version="1.1" xmlns="http://www.w3.org/2000/svg"><path d="M777.045333 128a85.333333 85.333333 0 0 1 85.205334 80.533333l33.6 597.333334A85.333333 85.333333 0 0 1 810.666667 896H213.333333a85.333333 85.333333 0 0 1-85.205333-90.133333l33.621333-597.333334A85.333333 85.333333 0 0 1 246.954667 128h530.090666zM682.666667 256a42.666667 42.666667 0 0 0-37.738667 62.528c-25.237333 56.768-72.789333 86.826667-132.928 86.826667-60.522667 0-107.882667-29.866667-132.949333-86.741334a42.666667 42.666667 0 1 0-63.36 14.165334C349.184 420.16 421.973333 469.333333 512 469.333333c89.642667 0 162.602667-49.408 196.266667-136.533333A42.666667 42.666667 0 0 0 682.666667 256z"  /></svg>