<?xml version="1.0" standalone="no"?><!DOCTYPE svg PUBLIC "-//W3C//DTD SVG 1.1//EN" "http://www.w3.org/Graphics/SVG/1.1/DTD/svg11.dtd"><svg class="icon" width="32px" height="32.00px" viewBox="0 0 1024 1024" version="1.1" xmlns="http://www.w3.org/2000/svg"><path d="M650.666667 277.333333h-405.333334A53.333333 53.333333 0 0 0 192 330.666667v490.666666a53.333333 53.333333 0 0 0 53.333333 53.333334h405.333334a53.333333 53.333333 0 0 0 53.333333-53.333334v-490.666666a53.333333 53.333333 0 0 0-53.333333-53.333334zM768 746.666667h10.666667a53.333333 53.333333 0 0 0 53.226666-49.834667L832 693.333333v-490.666666a53.333333 53.333333 0 0 0-49.834667-53.226667L778.666667 149.333333h-405.333334a53.333333 53.333333 0 0 0-53.226666 49.834667L320 202.666667v10.666666h330.666667a117.333333 117.333333 0 0 1 117.333333 117.333334V746.666667z m-181.333333-106.666667a32 32 0 0 1 0 64h-277.333334a32 32 0 0 1 0-64h277.333334z m0-192a32 32 0 0 1 0 64h-277.333334a32 32 0 0 1 0-64h277.333334zM768 821.333333a117.333333 117.333333 0 0 1-117.333333 117.333334h-405.333334A117.333333 117.333333 0 0 1 128 821.333333v-490.666666a117.333333 117.333333 0 0 1 117.333333-117.333334h10.666667v-10.666666a117.333333 117.333333 0 0 1 112.618667-117.248L373.333333 85.333333h405.333334a117.333333 117.333333 0 0 1 117.248 112.618667L896 202.666667v490.666666a117.333333 117.333333 0 0 1-112.618667 117.248L778.666667 810.666667H768z"  /></svg>