<?xml version="1.0" standalone="no"?><!DOCTYPE svg PUBLIC "-//W3C//DTD SVG 1.1//EN" "http://www.w3.org/Graphics/SVG/1.1/DTD/svg11.dtd"><svg class="icon" width="32px" height="32.00px" viewBox="0 0 1024 1024" version="1.1" xmlns="http://www.w3.org/2000/svg"><path d="M652.288 798.784l-190.4-119.466667-86.677333 86.058667 33.578666-118.485333 384.533334-395.989334-430.976 365.952-154.176-96.768 585.173333-269.184-141.056 547.882667z m-263.253333-429.376h92.16l-92.16 39.68v-39.68z m506.965333 0v-56.533333C896 210.261333 816.085333 128 715.2 128h-63.637333v168.064l-60.352 25.984V128H309.973333C209.066667 128 128 210.282667 128 312.874667v56.533333h146.346667v60.373333H128v282.197334C128 814.592 209.066667 896 309.973333 896h281.237334v-109.44l60.373333 38.464V896h63.616C816.085333 896 896 814.570667 896 711.978667V429.76h-129.194667l15.530667-60.352H896z"  /></svg>