<?xml version="1.0" standalone="no"?><!DOCTYPE svg PUBLIC "-//W3C//DTD SVG 1.1//EN" "http://www.w3.org/Graphics/SVG/1.1/DTD/svg11.dtd"><svg class="icon" width="32px" height="32.00px" viewBox="0 0 1024 1024" version="1.1" xmlns="http://www.w3.org/2000/svg"><path d="M412.444444 335.815111z m70.940445 0"  /><path d="M768.739556 595.399111l-1.536-1.422222z m45.511111-54.556444l3.299555 3.072c-1.251556-1.080889-2.218667-2.104889-3.470222-3.072z"  /><path d="M540.046222 114.460444a212.423111 212.423111 0 1 0 212.423111 212.48 212.48 212.48 0 0 0-212.423111-212.48z m0 354.076445a141.653333 141.653333 0 1 1 141.596445-141.596445 141.596444 141.596444 0 0 1-141.596445 141.596445z"  /><path d="M737.507556 521.443556l-3.413334-1.877334a396.686222 396.686222 0 0 0-590.506666 345.827556v6.769778a23.324444 23.324444 0 0 0 0 2.787555 35.441778 35.441778 0 1 0 70.826666-1.649778v-7.907555a325.802667 325.802667 0 0 1 485.489778-283.932445l2.104889 1.251556a35.441778 35.441778 0 0 0 36.295111-60.871111l-0.625778-0.398222z m112.071111 164.522666h-102.513778a30.378667 30.378667 0 0 0-30.378667 30.378667v2.218667a30.378667 30.378667 0 0 0 30.378667 30.378666h25.713778l-82.830223 82.830222-93.468444-93.468444a31.402667 31.402667 0 0 0-44.430222 0L436.337778 854.016a31.459556 31.459556 0 1 0 44.487111 44.544l93.468444-93.468444 93.468445 93.468444a31.630222 31.630222 0 0 0 44.544 0l105.073778-105.130667v25.713778a30.321778 30.321778 0 0 0 30.321777 30.321778h2.275556a30.264889 30.264889 0 0 0 30.321778-30.321778v-102.798222a30.321778 30.321778 0 0 0-30.321778-30.378667z"  /></svg>