<?xml version="1.0" standalone="no"?><!DOCTYPE svg PUBLIC "-//W3C//DTD SVG 1.1//EN" "http://www.w3.org/Graphics/SVG/1.1/DTD/svg11.dtd"><svg class="icon" width="32px" height="32.00px" viewBox="0 0 1024 1024" version="1.1" xmlns="http://www.w3.org/2000/svg"><path d="M796.444444 910.222222H227.555556a113.777778 113.777778 0 0 1-113.777778-113.777778V227.555556a113.777778 113.777778 0 0 1 113.777778-113.777778h568.888888a113.777778 113.777778 0 0 1 113.777778 113.777778v568.888888a113.777778 113.777778 0 0 1-113.777778 113.777778zM227.555556 182.044444a45.511111 45.511111 0 0 0-45.511112 45.511112v568.888888a45.511111 45.511111 0 0 0 45.511112 45.511112h568.888888a45.511111 45.511111 0 0 0 45.511112-45.511112V227.555556a45.511111 45.511111 0 0 0-45.511112-45.511112z"  /><path d="M671.288889 270.222222a159.288889 159.288889 0 0 1-318.577778 0H284.444444a230.343111 230.343111 0 0 0 227.555556 227.555556c1.365333 0 2.616889-0.398222 3.925333-0.398222A230.001778 230.001778 0 0 0 739.555556 270.222222z"  /></svg>