<?xml version="1.0" standalone="no"?><!DOCTYPE svg PUBLIC "-//W3C//DTD SVG 1.1//EN" "http://www.w3.org/Graphics/SVG/1.1/DTD/svg11.dtd"><svg class="icon" width="32px" height="32.00px" viewBox="0 0 1024 1024" version="1.1" xmlns="http://www.w3.org/2000/svg"><path d="M384 768a42.666667 42.666667 0 1 1 0 85.333333 42.666667 42.666667 0 0 1 0-85.333333z m341.333333 0a42.666667 42.666667 0 1 1 0 85.333333 42.666667 42.666667 0 0 1 0-85.333333zM188.352 128c33.685333 0 62.869333 23.253333 71.146667 56.064l0.896 3.989333 84.586666 430.4a52.778667 52.778667 0 0 0 47.914667 42.752l3.541333 0.128h331.733334c24.021333 0 44.8-16.533333 50.773333-39.872l0.789333-3.541333 53.098667-284.949333a10.666667 10.666667 0 0 0-8.362667-12.458667l-0.981333-0.149333-0.981333-0.042667H390.549333a31.744 31.744 0 0 1-31.488-32c0-16.64 12.48-30.293333 28.458667-31.850667l3.029333-0.149333h431.957334c4.586667 0 9.173333 0.426667 13.674666 1.301333 38.549333 7.424 64.32 44.16 59.157334 83.2l-0.64 4.053334-53.077334 284.949333c-10.026667 53.717333-55.104 93.056-108.416 95.402667l-5.034666 0.106666h-331.733334c-53.376 0-99.541333-37.12-112.128-89.408l-1.066666-4.949333L198.613333 200.576a10.581333 10.581333 0 0 0-8.448-8.405333L188.373333 192H159.488A31.744 31.744 0 0 1 128 160c0-16.64 12.48-30.293333 28.458667-31.850667L159.488 128h28.864z"  /></svg>