<?xml version="1.0" standalone="no"?><!DOCTYPE svg PUBLIC "-//W3C//DTD SVG 1.1//EN" "http://www.w3.org/Graphics/SVG/1.1/DTD/svg11.dtd"><svg class="icon" width="32px" height="32.00px" viewBox="0 0 1024 1024" version="1.1" xmlns="http://www.w3.org/2000/svg"><path d="M512 85.333333c235.648 0 426.666667 191.018667 426.666667 426.666667s-191.018667 426.666667-426.666667 426.666667S85.333333 747.648 85.333333 512 276.352 85.333333 512 85.333333z m225.173333 265.578667a32.256 32.256 0 0 0-45.866666 0L456.832 588.373333l-0.213333 0.213334a21.333333 21.333333 0 0 1-30.186667-0.256l-93.738667-95.296a32.256 32.256 0 0 0-45.866666 0 32.853333 32.853333 0 0 0 0 46.208l131.861333 133.824a32.256 32.256 0 0 0 45.866667 0l272.618666-275.989334a32.853333 32.853333 0 0 0 0-46.186666z"  /></svg>