<?xml version="1.0" standalone="no"?><!DOCTYPE svg PUBLIC "-//W3C//DTD SVG 1.1//EN" "http://www.w3.org/Graphics/SVG/1.1/DTD/svg11.dtd"><svg class="icon" width="32px" height="32.00px" viewBox="0 0 1024 1024" version="1.1" xmlns="http://www.w3.org/2000/svg"><path d="M804.224 106.666667c62.805333 0 115.029333 47.061333 119.978667 108.096l12.757333 178.496 0.832 6.101333c0.277333 2.752 0.512 5.525333 0.64 8.298667L938.666667 416c0 53.098667-26.517333 100.138667-67.349334 129.258667V800c0 63.210667-52.650667 114.773333-118.570666 117.248l-4.949334 0.085333H276.202667c-66.56 0-120.789333-50.005333-123.413334-112.618666l-0.085333-4.714667V545.258667C111.829333 516.138667 85.333333 469.098667 85.333333 416c0-8.469333 0.682667-16.853333 2.026667-25.130667l-0.213333 1.344 12.650666-177.450666c4.693333-57.770667 51.733333-103.04 110.016-107.690667l5.013334-0.298667 4.949333-0.106666z m-160.938667 405.312l-1.429333 1.898666a165.461333 165.461333 0 0 1-123.861333 62.016L512 576a165.589333 165.589333 0 0 1-129.856-62.122667l-1.450667-1.898666-1.408 1.898666a165.461333 165.461333 0 0 1-123.861333 62.016l-5.973333 0.106667c-10.026667 0-19.861333-0.874667-29.397334-2.56V800c0 28.266667 23.189333 51.413333 52.48 53.226667l3.669334 0.106666h471.594666c29.76 0 54.122667-22.016 56.021334-49.834666l0.106666-3.498667V573.44a169.173333 169.173333 0 0 1-29.354666 2.56 165.589333 165.589333 0 0 1-129.856-62.122667l-1.429334-1.898666zM804.224 170.666667H219.776C191.232 170.666667 167.466667 192.064 165.226667 219.797333l-12.736 178.581334-0.981334 7.466666a95.061333 95.061333 0 0 0-0.533333 10.154667c0 53.013333 44.074667 96 98.453333 96 42.069333 0 79.082667-25.962667 92.864-64 4.650667-12.778667 17.045333-21.333333 30.933334-21.333333h14.976c13.909333 0 26.304 8.554667 30.933333 21.333333 13.802667 38.037333 50.794667 64 92.864 64s79.061333-25.962667 92.864-64c4.629333-12.778667 17.024-21.333333 30.933333-21.333333h14.954667c13.909333 0 26.304 8.554667 30.933333 21.333333 13.802667 38.037333 50.816 64 92.885334 64 54.378667 0 98.453333-42.986667 98.453333-96 0-5.056-0.405333-10.069333-1.194667-14.976l-0.277333-2.410667-12.8-178.816C856.533333 192.064 832.789333 170.666667 804.245333 170.666667z"  /></svg>