<?xml version="1.0" standalone="no"?><!DOCTYPE svg PUBLIC "-//W3C//DTD SVG 1.1//EN" "http://www.w3.org/Graphics/SVG/1.1/DTD/svg11.dtd"><svg class="icon" width="32px" height="32.00px" viewBox="0 0 1024 1024" version="1.1" xmlns="http://www.w3.org/2000/svg"><path d="M871.296 832a85.333333 85.333333 0 0 1-85.333333 85.333333H238.037333a85.333333 85.333333 0 0 1-85.333333-85.333333V618.666667c29.930667 14.229333 59.882667 21.333333 89.813333 21.333333 29.952 0 74.88-14.229333 134.741334-42.666667 39.68 28.437333 84.608 42.666667 134.741333 42.666667 50.133333 0 95.061333-14.229333 134.741333-42.666667 60.501333 28.437333 105.408 42.666667 134.741334 42.666667 29.312 0 59.242667-7.104 89.813333-21.333333v213.333333zM811.413333 106.666667c58.858667 0 107.712 43.157333 112 98.901333l13.632 199.573333c1.066667 7.104 1.621333 14.293333 1.621334 21.525334 0 82.474667-70.378667 149.333333-157.184 149.333333-56.085333 0-105.28-27.882667-133.12-69.866667l-1.621334-2.538666-1.642666 2.56c-26.922667 40.597333-73.877333 68.032-127.701334 69.76L512 576c-56.064 0-105.28-27.882667-133.12-69.866667l-1.621333-2.538666-1.621334 2.56c-26.922667 40.597333-73.898667 68.032-127.701333 69.76l-5.418667 0.085333C155.733333 576 85.333333 509.141333 85.333333 426.666667c0-7.424 0.576-14.784 1.514667-20.48l13.738667-200.597334C104.874667 149.824 153.728 106.666667 212.586667 106.666667z"  /></svg>