<?xml version="1.0" standalone="no"?><!DOCTYPE svg PUBLIC "-//W3C//DTD SVG 1.1//EN" "http://www.w3.org/Graphics/SVG/1.1/DTD/svg11.dtd"><svg class="icon" width="32px" height="32.00px" viewBox="0 0 1024 1024" version="1.1" xmlns="http://www.w3.org/2000/svg"><path d="M298.986667 512c65.450667 0 118.506667 54.208 118.506666 121.088 0 52.138667-32.277333 96.597333-77.525333 113.642667 32.448 2.709333 64.917333 8.746667 97.365333 17.984 44.16 12.586667 74.666667 53.674667 74.666667 100.48v25.045333c0 26.752-21.226667 48.426667-47.402667 48.426667H132.736C106.56 938.666667 85.333333 916.992 85.333333 890.24v-25.024c0-46.826667 30.506667-87.893333 74.666667-100.48 32.64-9.322667 65.258667-15.36 97.877333-18.090667C212.693333 729.6 180.48 685.226667 180.48 633.088 180.48 566.186667 233.536 512 298.986667 512zM810.666667 106.666667a85.333333 85.333333 0 0 1 85.333333 85.333333v725.333333a42.666667 42.666667 0 0 1-42.56-39.466666L853.333333 874.666667a42.666667 42.666667 0 0 0-85.226666-3.2L768 874.666667a42.666667 42.666667 0 0 1-85.226667 3.2L682.666667 874.666667a42.666667 42.666667 0 0 0-85.226667-3.2L597.333333 874.666667a42.666667 42.666667 0 0 1-42.666666 42.666666l-3.349334-0.128 0.917334-3.029333c1.194667-4.330667 1.962667-8.832 2.282666-13.482667L554.666667 896v-33.066667c0-61.866667-38.144-116.16-93.312-132.8a641.877333 641.877333 0 0 0-29.013334-8A160 160 0 0 0 213.333333 496.917333V192a85.333333 85.333333 0 0 1 85.333334-85.333333h512z m-53.333334 469.333333h-192a32 32 0 0 0-3.072 63.850667L565.333333 640h192a32 32 0 0 0 0-64z m0-234.666667h-405.333333a32 32 0 0 0-3.072 63.850667L352 405.333333h405.333333a32 32 0 0 0 0-64z"  /></svg>