<?xml version="1.0" standalone="no"?><!DOCTYPE svg PUBLIC "-//W3C//DTD SVG 1.1//EN" "http://www.w3.org/Graphics/SVG/1.1/DTD/svg11.dtd"><svg class="icon" width="32px" height="32.00px" viewBox="0 0 1024 1024" version="1.1" xmlns="http://www.w3.org/2000/svg"><path d="M661.333333 128a64 64 0 0 1 64 64v640a64 64 0 0 1-64 64H362.666667a64 64 0 0 1-64-64V192a64 64 0 0 1 64-64h298.666666z m-448 106.666667a42.666667 42.666667 0 0 1 42.666667 42.666666v512a42.666667 42.666667 0 0 1-42.666667 42.666667H128V234.666667h85.333333z m682.666667 0v597.333333h-85.333333a42.666667 42.666667 0 0 1-42.666667-42.666667V277.333333a42.666667 42.666667 0 0 1 42.666667-42.666666h85.333333z"  /></svg>