<?xml version="1.0" standalone="no"?><!DOCTYPE svg PUBLIC "-//W3C//DTD SVG 1.1//EN" "http://www.w3.org/Graphics/SVG/1.1/DTD/svg11.dtd"><svg class="icon" width="32px" height="32.00px" viewBox="0 0 1024 1024" version="1.1" xmlns="http://www.w3.org/2000/svg"><path d="M693.333333 106.666667A32 32 0 0 1 725.333333 138.666667V170.666667h74.666667a117.333333 117.333333 0 0 1 117.248 112.618666L917.333333 288v448a117.333333 117.333333 0 0 1-112.618666 117.248L800 853.333333h-576a117.333333 117.333333 0 0 1-117.248-112.618666L106.666667 736v-448a117.333333 117.333333 0 0 1 112.618666-117.248L224 170.666667H298.666667V138.666667a32 32 0 0 1 64 0V170.666667h298.666666V138.666667A32 32 0 0 1 693.333333 106.666667zM451.776 350.122667a32 32 0 0 0-44.074667 0l-0.832 0.789333a29.952 29.952 0 0 0 0 43.456l40.085334 38.08h-32.213334a30.72 30.72 0 0 0 0 61.44h66.282667v40.96h-44.736a30.72 30.72 0 1 0 0 61.461333h44.736v49.92a32 32 0 0 0 32 32h0.704a32 32 0 0 0 32-32l-0.021333-49.92h44.757333a30.72 30.72 0 0 0 0-61.44l-44.757333-0.021333v-40.96h66.325333a30.72 30.72 0 0 0 0-61.44h-37.034667l40.106667-38.08 2.112-2.218667a29.973333 29.973333 0 0 0-2.133333-41.237333l-0.810667-0.789333-2.389333-2.048a32 32 0 0 0-41.685334 2.048l-59.221333 56.234666z"  /></svg>