<?xml version="1.0" standalone="no"?><!DOCTYPE svg PUBLIC "-//W3C//DTD SVG 1.1//EN" "http://www.w3.org/Graphics/SVG/1.1/DTD/svg11.dtd"><svg class="icon" width="32px" height="32.00px" viewBox="0 0 1024 1024" version="1.1" xmlns="http://www.w3.org/2000/svg"><path d="M693.333333 106.666667A32 32 0 0 1 725.333333 138.666667V149.333333h96a117.333333 117.333333 0 0 1 117.248 112.618667L938.666667 266.666667v512a117.333333 117.333333 0 0 1-112.618667 117.248L821.333333 896h-618.666666a117.333333 117.333333 0 0 1-117.248-112.618667L85.333333 778.666667v-512a117.333333 117.333333 0 0 1 112.618667-117.248L202.666667 149.333333H298.666667v-10.666666a32 32 0 0 1 64 0V149.333333h298.666666v-10.666666A32 32 0 0 1 693.333333 106.666667zM298.666667 213.333333H202.666667a53.333333 53.333333 0 0 0-53.226667 49.834667L149.333333 266.666667v512a53.333333 53.333333 0 0 0 49.834667 53.226666L202.666667 832h618.666666a53.333333 53.333333 0 0 0 53.226667-49.834667L874.666667 778.666667v-512a53.333333 53.333333 0 0 0-49.834667-53.226667L821.333333 213.333333H725.333333v10.666667a32 32 0 0 1-64 0V213.333333H362.666667v10.666667a32 32 0 0 1-64 0V213.333333z m138.666666 405.333334a32 32 0 0 1 0 64h-149.333333a32 32 0 0 1 0-64h149.333333z m277.333334-213.333334a32 32 0 0 1 0 64h-426.666667a32 32 0 0 1 0-64h426.666667z"  /></svg>