<?xml version="1.0" standalone="no"?><!DOCTYPE svg PUBLIC "-//W3C//DTD SVG 1.1//EN" "http://www.w3.org/Graphics/SVG/1.1/DTD/svg11.dtd"><svg class="icon" width="32px" height="32.00px" viewBox="0 0 1024 1024" version="1.1" xmlns="http://www.w3.org/2000/svg"><path d="M512.1 384c-69.7 0.5-126.6 57.4-127.1 127.1a128.3 128.3 0 0 0 7.6 44.4 4 4 0 0 0 6.6 1.4l49-49a3.7 3.7 0 0 0 1.2-2.4 63.9 63.9 0 0 1 57.1-57.1 3.7 3.7 0 0 0 2.4-1.2l49-49a4 4 0 0 0-1.4-6.6 128.3 128.3 0 0 0-44.4-7.6zM249.5 701.8a4 4 0 0 0 5.2-0.4l45.9-45.8a4 4 0 0 0-0.6-6.1q-17.1-12.2-34.4-26c-48.7-39.2-88.3-81.7-113.7-111.5 25.4-29.8 65-72.3 113.7-111.5 39.7-31.9 79.4-57 118.1-74.4 44.2-20 87.4-30.1 128.3-30.1 37.9 0 77.8 8.7 118.7 25.9a4 4 0 0 0 4.4-0.9l48.3-48.3a4 4 0 0 0-1-6.4C629.8 240.8 572.3 224 512 224c-222.2 0-407 228.3-444.8 278.4a15.9 15.9 0 0 0 0 19.2c21.2 28 88.3 111.8 182.3 180.2z m707.3-199.4c-21.4-28.3-89.7-113.5-185.1-182.2l133.5-133.5a4 4 0 0 0 0-5.6l-34-34a4 4 0 0 0-5.6 0L551.7 461 448.5 564.2l-32 31.9-78.1 78.2-52.4 52.4-138.9 138.9a4 4 0 0 0 0 5.6l34 34a4 4 0 0 0 5.6 0l149.9-150c54 26.9 113.2 44.8 175.4 44.8 222.2 0 406.9-228.3 444.8-278.4a15.9 15.9 0 0 0 0-19.2zM576.9 515a64.2 64.2 0 0 1-60.9 60.9z m181.5 108.5c-39.7 31.9-79.4 57-118.1 74.4-44.2 20-87.4 30.1-128.3 30.1-38.7 0-79.4-9.1-121.2-26.9l71.5-71.5a127.8 127.8 0 0 0 52.2 10.4c69.2-0.8 125.7-57.3 126.5-126.5a127.8 127.8 0 0 0-10.4-52.2l89.5-89.5q19 13.2 38.3 28.7c48.7 39.2 88.3 81.7 113.7 111.5-25.4 29.8-65 72.3-113.7 111.5z" /></svg>