<?xml version="1.0" standalone="no"?><!DOCTYPE svg PUBLIC "-//W3C//DTD SVG 1.1//EN" "http://www.w3.org/Graphics/SVG/1.1/DTD/svg11.dtd"><svg t="1663309724004" class="icon" viewBox="0 0 1024 1024" version="1.1" xmlns="http://www.w3.org/2000/svg" p-id="117083" xmlns:xlink="http://www.w3.org/1999/xlink" width="32" height="32"><path d="M904.758613 172.088889L228.975502 847.872a34.133333 34.133333 0 0 1-48.298666 0 34.133333 34.133333 0 0 1 0-48.241778l675.783111-675.84a34.133333 34.133333 0 0 1 48.298666 0 34.133333 34.133333 0 0 1 0 48.298667z" p-id="117084"></path><path d="M512.054613 234.040889a494.933333 494.933333 0 0 0-299.918222 130.161778 823.352889 823.352889 0 0 0-132.949333 140.856889 886.272 886.272 0 0 0 130.389333 140.288A491.349333 491.349333 0 0 0 512.054613 780.174222a494.193778 494.193778 0 0 0 302.990223-139.605333 994.133333 994.133333 0 0 0 124.359111-131.811556 1035.377778 1035.377778 0 0 0-133.916445-141.596444A461.653333 461.653333 0 0 0 512.054613 234.040889m0-68.266667c282.737778 0 508.757333 339.854222 512 341.333334s-229.205333 341.333333-512 341.333333-507.847111-321.479111-512-341.333333 229.432889-341.333333 512-341.333334z" p-id="117085"></path><path d="M511.997724 677.774222a170.666667 170.666667 0 0 1-170.666666-170.666666 170.666667 170.666667 0 0 1 170.666666-170.666667 170.666667 170.666667 0 0 1 170.666667 170.666667 170.666667 170.666667 0 0 1-170.666667 170.666666z m0-273.066666a102.4 102.4 0 0 0-102.4 102.4 102.4 102.4 0 0 0 102.4 102.4 102.4 102.4 0 0 0 102.4-102.4 102.4 102.4 0 0 0-102.4-102.456889z" p-id="117086"></path></svg>