<?xml version="1.0" standalone="no"?><!DOCTYPE svg PUBLIC "-//W3C//DTD SVG 1.1//EN" "http://www.w3.org/Graphics/SVG/1.1/DTD/svg11.dtd"><svg class="icon" width="64px" height="64.00px" viewBox="0 0 1024 1024" version="1.1" xmlns="http://www.w3.org/2000/svg"><path d="M562.9 114.8l-22.6-22.7a40.1 40.1 0 0 0-56.6 0l-22.6 22.7-379 379a3.9 3.9 0 0 0 0 5.6l45.2 45.3a4.2 4.2 0 0 0 5.7 0l59-59v369.9a40 40 0 0 0 40 40h560a40 40 0 0 0 40-40V485.7l59 59a4.2 4.2 0 0 0 5.7 0l45.2-45.3a3.9 3.9 0 0 0 0-5.6zM548 823.6h-72v-88h72z m212 0H612V713.5a42 42 0 0 0-42-41.9H454a42 42 0 0 0-42 41.9v110.1H264V413.7l248-248 248 248z" /></svg>