<?xml version="1.0" standalone="no"?><!DOCTYPE svg PUBLIC "-//W3C//DTD SVG 1.1//EN" "http://www.w3.org/Graphics/SVG/1.1/DTD/svg11.dtd"><svg class="icon" width="32px" height="32.00px" viewBox="0 0 1024 1024" version="1.1" xmlns="http://www.w3.org/2000/svg"><path d="M853.333333 338.944V853.333333a85.333333 85.333333 0 0 1-85.333333 85.333334H256a85.333333 85.333333 0 0 1-85.333333-85.333334V338.965333a510.229333 510.229333 0 0 0 257.216 123.498667 85.312 85.312 0 0 0 168.192 0 510.165333 510.165333 0 0 0 257.28-123.52zM768 85.333333a85.333333 85.333333 0 0 1 85.333333 85.333334l0.021334 108.778666a468.437333 468.437333 0 0 1-260.842667 140.330667 85.354667 85.354667 0 0 0-161.088 0 468.373333 468.373333 0 0 1-260.778667-140.330667L170.666667 170.666667a85.333333 85.333333 0 0 1 85.333333-85.333334h512z"  /></svg>