<?xml version="1.0" standalone="no"?><!DOCTYPE svg PUBLIC "-//W3C//DTD SVG 1.1//EN" "http://www.w3.org/Graphics/SVG/1.1/DTD/svg11.dtd"><svg class="icon" width="32px" height="32.00px" viewBox="0 0 1024 1024" version="1.1" xmlns="http://www.w3.org/2000/svg"><path d="M691.797333 347.136c-12.16 12.373333-12.16 32.426667 0 44.821333 12.16 12.373333 31.893333 12.373333 44.053334 0l151.04-115.584c12.16-12.373333 12.16-32.448 0-44.842666l-151.04-115.584a30.784 30.784 0 0 0-44.053334 0c-12.16 12.373333-12.16 32.448 0 44.842666l85.290667 61.589334H458.666667C276.053333 222.4 128 368.426667 128 548.544c0 177.92 144.426667 322.538667 323.925333 326.08L458.666667 874.666667h213.333333c17.664 0 32-14.122667 32-31.573334 0-16.384-12.693333-29.866667-28.928-31.402666l-3.072-0.149334h-213.333333c-147.285333 0-266.666667-117.76-266.666667-263.018666 0-143.082667 115.84-259.477333 260.096-262.933334l6.570667-0.064 318.442666-0.021333-85.333333 61.632z"  /></svg>