<?xml version="1.0" standalone="no"?><!DOCTYPE svg PUBLIC "-//W3C//DTD SVG 1.1//EN" "http://www.w3.org/Graphics/SVG/1.1/DTD/svg11.dtd"><svg class="icon" width="32px" height="32.00px" viewBox="0 0 1024 1024" version="1.1" xmlns="http://www.w3.org/2000/svg"><path d="M664.32 149.333333a142.229333 142.229333 0 0 1 123.349333 71.402667L911.786667 436.906667a71.104 71.104 0 0 1-10.986667 85.290666l-337.066667 342.570667a71.104 71.104 0 0 1-102.4-1.024L122.581333 505.386667a71.104 71.104 0 0 1-9.130666-85.717334l122.389333-201.813333A142.229333 142.229333 0 0 1 357.418667 149.333333H664.32z m34.090667 295.232a32 32 0 0 0-45.248 0l-143.317334 143.296-143.296-143.296a32 32 0 1 0-45.248 45.248l165.930667 165.930667a32 32 0 0 0 45.248 0l165.930667-165.930667a32 32 0 0 0 0-45.248z"  /></svg>