<?xml version="1.0" standalone="no"?><!DOCTYPE svg PUBLIC "-//W3C//DTD SVG 1.1//EN" "http://www.w3.org/Graphics/SVG/1.1/DTD/svg11.dtd"><svg class="icon" width="32px" height="32.00px" viewBox="0 0 1024 1024" version="1.1" xmlns="http://www.w3.org/2000/svg"><path d="M777.6 536.384c19.690667 0 37.973333 9.770667 48.896 25.856l2.218667 3.541333 77.162666 133.184c9.813333 17.002667 10.496 37.653333 1.962667 55.125334l-1.962667 3.690666-77.162666 133.184a59.050667 59.050667 0 0 1-46.933334 29.269334l-4.181333 0.149333h-154.304a59.093333 59.093333 0 0 1-48.896-25.856l-2.218667-3.562667-77.162666-133.184a58.645333 58.645333 0 0 1-1.962667-55.125333l1.962667-3.690667 77.162666-133.184a59.050667 59.050667 0 0 1 46.912-29.248l4.202667-0.149333h154.304zM480 448v168.725333l-43.541333 75.242667a72.64 72.64 0 0 0 0 72.832l43.541333 75.221333V896H234.666667a85.333333 85.333333 0 0 1-85.333334-85.333333V448h330.666667z m220.437333 216.384a64 64 0 1 0 0 128 64 64 0 0 0 0-128zM874.666667 448v88.938667l-5.717334-9.856A73.066667 73.066667 0 0 0 805.696 490.666667H595.2c-19.413333 0-37.717333 7.68-51.2 20.885333L544 448H874.666667zM283.818667 134.848l2.816 2.005333L422.186667 241.066667A106.581333 106.581333 0 0 1 512 192c37.696 0 70.826667 19.562667 89.813333 49.088l135.552-104.234667c19.306667-14.848 46.506667-10.581333 60.736 9.557334 1.984 2.773333 3.626667 5.802667 4.949334 9.002666L853.333333 277.333333h42.666667a42.666667 42.666667 0 0 1 42.666667 42.666667v42.666667a42.666667 42.666667 0 0 1-42.666667 42.666666H128a42.666667 42.666667 0 0 1-42.666667-42.666666v-42.666667a42.666667 42.666667 0 0 1 42.666667-42.666667h42.666667l50.282666-121.92c1.301333-3.2 2.965333-6.208 4.949334-9.002666 13.546667-19.178667 38.869333-23.978667 57.92-11.562667z"  /></svg>