<?xml version="1.0" standalone="no"?><!DOCTYPE svg PUBLIC "-//W3C//DTD SVG 1.1//EN" "http://www.w3.org/Graphics/SVG/1.1/DTD/svg11.dtd"><svg class="icon" width="32px" height="32.00px" viewBox="0 0 1024 1024" version="1.1" xmlns="http://www.w3.org/2000/svg"><path d="M874.666667 448v362.666667a85.333333 85.333333 0 0 1-85.333334 85.333333H544V448H874.666667z m-394.666667 0v448H234.666667a85.333333 85.333333 0 0 1-85.333334-85.333333V448h330.666667zM283.818667 134.848l2.816 2.005333L422.186667 241.066667A106.581333 106.581333 0 0 1 512 192c37.696 0 70.826667 19.562667 89.813333 49.088l135.552-104.234667c19.306667-14.848 46.506667-10.581333 60.736 9.557334 1.984 2.773333 3.626667 5.802667 4.949334 9.002666L853.333333 277.333333h42.666667a42.666667 42.666667 0 0 1 42.666667 42.666667v42.666667a42.666667 42.666667 0 0 1-42.666667 42.666666H128a42.666667 42.666667 0 0 1-42.666667-42.666666v-42.666667a42.666667 42.666667 0 0 1 42.666667-42.666667h42.666667l50.282666-121.92c1.301333-3.2 2.965333-6.208 4.949334-9.002666 13.546667-19.178667 38.869333-23.978667 57.92-11.562667z"  /></svg>