<?xml version="1.0" standalone="no"?><!DOCTYPE svg PUBLIC "-//W3C//DTD SVG 1.1//EN" "http://www.w3.org/Graphics/SVG/1.1/DTD/svg11.dtd"><svg class="icon" width="32px" height="32.00px" viewBox="0 0 1024 1024" version="1.1" xmlns="http://www.w3.org/2000/svg"><path d="M361.365333 670.997333c49.578667 50.389333 55.317333 104.554667 0.362667 160.405334-34.048 34.581333-89.173333 55.36-165.034667 64.256-3.925333 0.469333-7.893333 0.448-11.84-0.021334-26.666667-3.242667-46.144-26.944-44.864-54.016l0.277334-3.541333 1.088-8.96c9.301333-72.32 29.44-125.269333 62.144-158.506667 54.954667-55.829333 108.266667-49.984 157.866666 0.384zM815.573333 141.653333l8.576 2.624 8.384 2.794667a72.042667 72.042667 0 0 1 44.394667 44.864c33.429333 97.664 22.805333 196.608-31.082667 294.698667-22.208 40.405333-50.624 78.656-85.205333 114.730666l-9.578667 9.792-9.066666 8.874667-0.256 2.752c-6.293333 58.752-50.858667 136.448-132.970667 236.906667l-7.125333 8.682666-13.12 15.68c-14.848 17.621333-42.496 12.714667-51.157334-8.106666l-1.024-2.794667-45.909333-146.517333-4.16-2.88a728.938667 728.938667 0 0 1-73.557333-59.989334l-11.413334-10.88-11.178666-11.093333a736.405333 736.405333 0 0 1-88.746667-109.568l-2.538667-3.946667L149.333333 479.936c-21.034667-6.826667-27.818667-32.832-14.464-49.173333l1.770667-2.005334 1.92-1.792c122.965333-107.434667 213.696-160.704 278.677333-156.266666l4.181334 0.362666 2.432 0.298667 5.482666-5.546667c29.482667-29.312 60.352-54.250667 92.629334-74.752l10.794666-6.677333 9.92-5.802667c90.069333-51.072 181.504-63.637333 272.896-36.906666z m-275.605333 206.314667c-37.397333 37.418667-37.269333 98.197333 0.298667 135.765333 37.568 37.568 98.346667 37.696 135.765333 0.298667 37.397333-37.418667 37.269333-98.197333-0.298667-135.765333-37.568-37.568-98.346667-37.696-135.765333-0.298667z"  /></svg>