<?xml version="1.0" standalone="no"?><!DOCTYPE svg PUBLIC "-//W3C//DTD SVG 1.1//EN" "http://www.w3.org/Graphics/SVG/1.1/DTD/svg11.dtd"><svg class="icon" width="32px" height="32.00px" viewBox="0 0 1024 1024" version="1.1" xmlns="http://www.w3.org/2000/svg"><path d="M361.365333 670.997333c49.578667 50.389333 55.317333 104.554667 0.362667 160.405334-34.048 34.581333-89.173333 55.36-165.034667 64.256-3.925333 0.469333-7.893333 0.448-11.84-0.021334-26.666667-3.242667-46.144-26.944-44.864-54.016l0.277334-3.541333 1.088-8.96c9.301333-72.32 29.44-125.269333 62.144-158.506667 54.954667-55.829333 108.266667-49.984 157.866666 0.384zM318.4 714.666667c-27.52-27.968-42.773333-29.653333-71.744-0.213334-18.730667 19.029333-32.874667 52.16-41.344 99.498667l-1.344 8.021333-1.557333 10.496 2.496-0.32c49.834667-7.36 85.504-20.629333 107.242666-38.698666l3.477334-3.072 2.944-2.837334c28.992-29.44 27.349333-44.906667-0.170667-72.874666z m514.133333-567.594667a72.042667 72.042667 0 0 1 44.394667 44.864c33.429333 97.664 22.805333 196.608-31.082667 294.698667-22.208 40.405333-50.624 78.656-85.205333 114.730666l-9.578667 9.792-9.066666 8.874667-0.256 2.752c-6.293333 58.752-50.858667 136.448-132.970667 236.906667l-7.125333 8.682666-13.12 15.68c-14.848 17.621333-42.496 12.714667-51.157334-8.106666l-1.024-2.794667-45.909333-146.517333-4.16-2.88a728.938667 728.938667 0 0 1-73.557333-59.989334l-11.413334-10.88-11.178666-11.093333a736.405333 736.405333 0 0 1-88.746667-109.568l-2.538667-3.946667L149.333333 479.936c-21.034667-6.826667-27.818667-32.832-14.464-49.173333l1.770667-2.005334 1.92-1.792c122.965333-107.434667 213.696-160.704 278.677333-156.266666l4.181334 0.362666 2.432 0.298667 5.482666-5.546667c29.482667-29.312 60.352-54.250667 92.629334-74.752l10.794666-6.677333 9.92-5.802667c90.069333-51.072 181.504-63.637333 272.896-36.906666l8.576 2.602666 8.384 2.794667z m-13.866666 63.232a10.304 10.304 0 0 0-3.690667-3.84l-1.536-0.725333-7.68-2.56c-77.461333-24.725333-154.56-15.146667-233.216 29.461333-40.938667 23.232-79.786667 54.549333-116.544 94.08a30.037333 30.037333 0 0 1-29.653333 8.661333l-5.098667-1.642666c-31.573333-9.28-96.362667 21.397333-188.864 95.018666l-11.690667 9.386667 106.709334 34.56c4.842667 1.557333 9.173333 4.309333 12.672 7.978667l2.005333 2.304 1.770667 2.496a677.376 677.376 0 0 0 89.237333 112.64 666.581333 666.581333 0 0 0 100.032 83.413333c4.928 3.349333 8.768 8.085333 11.093333 13.589333l1.024 2.816 32.213334 102.677334 6.186666-7.872c62.890667-80.874667 95.296-141.781333 97.813334-179.498667l0.149333-3.456v-2.986667a31.04 31.04 0 0 1 9.856-23.68c42.837333-39.68 76.522667-81.941333 101.184-126.826666 44.181333-80.426667 53.738667-158.592 29.333333-236.48l-2.56-7.786667-0.746666-1.706667zM690.773333 333.226667c45.909333 45.930667 46.08 120.213333 0.341334 165.930666-45.717333 45.738667-120 45.568-165.930667-0.341333-45.909333-45.930667-46.08-120.213333-0.341333-165.930667 45.717333-45.738667 120-45.568 165.930666 0.341334z m-45.162666 45.162666a53.333333 53.333333 0 0 0-75.434667-0.170666 53.333333 53.333333 0 0 0 0.170667 75.434666 53.333333 53.333333 0 0 0 75.434666 0.170667 53.333333 53.333333 0 0 0-0.170666-75.434667z"  /></svg>