<?xml version="1.0" standalone="no"?><!DOCTYPE svg PUBLIC "-//W3C//DTD SVG 1.1//EN" "http://www.w3.org/Graphics/SVG/1.1/DTD/svg11.dtd"><svg class="icon" width="32px" height="32.00px" viewBox="0 0 1024 1024" version="1.1" xmlns="http://www.w3.org/2000/svg"><path d="M725.333333 128a170.666667 170.666667 0 0 1 170.666667 170.666667v426.666666a170.666667 170.666667 0 0 1-170.666667 170.666667H298.666667a170.666667 170.666667 0 0 1-170.666667-170.666667V298.666667a170.666667 170.666667 0 0 1 170.666667-170.666667h426.666666z m-366.613333 149.845333s-16.725333-5.546667-21.653333 20.138667c-1.92 9.962667-4.565333 28.309333-7.082667 47.061333l-1.258667 9.386667c-2.048 15.530667-3.925333 30.442667-5.12 40.106667l-0.832 6.826666-0.32 2.56-0.170666 1.514667H277.333333v70.08l32.853334 5.76s-2.496 27.797333-2.496 51.946667v225.045333s0.981333 9.728 11.818666 9.728h37.12s10.624-0.576 10.624-9.92v-11.008h289.514667v11.008c0 9.344 10.602667 9.92 10.602667 9.92h37.141333a11.157333 11.157333 0 0 0 11.797333-9.728V533.226667c0-24.149333-2.517333-51.968-2.517333-51.968L746.666667 475.52h-0.042667v-70.058667h-44.906667l-0.213333-1.514666-0.512-4.266667-0.64-5.12a5114.24 5114.24 0 0 0-5.12-40.106667l-1.237333-9.386666c-2.538667-18.773333-5.184-37.12-7.082667-47.061334-4.949333-25.706667-21.674667-20.138667-21.674667-20.138666z m219.264 408.789334v39.296h-129.152v-39.296h129.152z m19.690667-103.168v18.218666h-172.458667v-18.218666h172.458667z m-207.146667-38.4c7.210667 0 7.189333 7.253333 7.189333 7.253333v35.904c0 7.744-8.277333 7.744-8.277333 7.744h-50.752c-9.685333 0-9.685333-7.893333-9.685333-7.893333v-35.477334c0-7.573333 9.685333-7.146667 9.685333-7.146666h1.386667c7.616-0.085333 44.053333-0.362667 50.474666-0.362667z m300.48 0c7.168 0 7.168 7.253333 7.168 7.253333v35.904c0 7.744-8.256 7.744-8.256 7.744h-50.773333c-9.706667 0-9.706667-7.893333-9.706667-7.893333v-35.477334c0-7.573333 9.706667-7.146667 9.706667-7.146666h1.386666c7.594667-0.085333 44.032-0.362667 50.474667-0.362667z m-93.333333 7.253333v18.218667h-172.458667v-18.218667h172.458667zM667.306667 296.533333l18.56 160.384H337.856l9.28-160.405333H667.306667z"  /></svg>