<?xml version="1.0" standalone="no"?><!DOCTYPE svg PUBLIC "-//W3C//DTD SVG 1.1//EN" "http://www.w3.org/Graphics/SVG/1.1/DTD/svg11.dtd"><svg class="icon" width="32px" height="32.00px" viewBox="0 0 1024 1024" version="1.1" xmlns="http://www.w3.org/2000/svg"><path d="M512 85.333333c235.648 0 426.666667 191.018667 426.666667 426.666667s-191.018667 426.666667-426.666667 426.666667S85.333333 747.648 85.333333 512 276.352 85.333333 512 85.333333z m0 192a32 32 0 0 0-32 32v170.645334l-170.666667 0.021333a32 32 0 0 0 0 64l170.645334-0.021333 0.021333 170.688a32 32 0 0 0 64 0l-0.021333-170.688 170.688 0.021333a32 32 0 0 0 0-64l-170.666667-0.021333V309.333333A32 32 0 0 0 512 277.333333z"  /></svg>