<?xml version="1.0" standalone="no"?><!DOCTYPE svg PUBLIC "-//W3C//DTD SVG 1.1//EN" "http://www.w3.org/Graphics/SVG/1.1/DTD/svg11.dtd"><svg class="icon" width="32px" height="32.00px" viewBox="0 0 1024 1024" version="1.1" xmlns="http://www.w3.org/2000/svg"><path d="M512 85.333333c235.648 0 426.666667 191.018667 426.666667 426.666667s-191.018667 426.666667-426.666667 426.666667S85.333333 747.648 85.333333 512 276.352 85.333333 512 85.333333z m0 64C311.701333 149.333333 149.333333 311.701333 149.333333 512s162.368 362.666667 362.666667 362.666667 362.666667-162.368 362.666667-362.666667S712.298667 149.333333 512 149.333333z m202.666667 330.666667a32 32 0 0 1 0 64h-405.333334a32 32 0 0 1 0-64h405.333334z"  /></svg>