<?xml version="1.0" standalone="no"?><!DOCTYPE svg PUBLIC "-//W3C//DTD SVG 1.1//EN" "http://www.w3.org/Graphics/SVG/1.1/DTD/svg11.dtd"><svg class="icon" width="32px" height="32.00px" viewBox="0 0 1024 1024" version="1.1" xmlns="http://www.w3.org/2000/svg"><path d="M725.333333 106.666667a170.666667 170.666667 0 0 1 170.666667 170.666666v469.333334a170.666667 170.666667 0 0 1-170.666667 170.666666H298.666667a170.666667 170.666667 0 0 1-170.666667-170.666666V277.333333a170.666667 170.666667 0 0 1 170.666667-170.666666h426.666666z m-29.333333 445.973333H328.064l-3.349333 0.170667c-23.893333 2.496-35.072 31.658667-17.365334 49.002666l117.696 115.114667 2.773334 2.389333c11.52 8.768 28.16 7.936 38.698666-2.453333l2.432-2.709333a28.373333 28.373333 0 0 0-2.496-37.973334l-67.413333-65.984h296.96l3.413333-0.192A28.992 28.992 0 0 0 725.333333 581.418667c0-15.893333-13.141333-28.8-29.333333-28.8z m-99.797333-247.957333a29.738667 29.738667 0 0 0-38.72 2.453333l-2.432 2.709333a28.373333 28.373333 0 0 0 2.496 37.973334l67.413333 65.984h-296.96l-3.413333 0.192A28.992 28.992 0 0 0 298.666667 442.581333c0 15.893333 13.141333 28.8 29.333333 28.8h367.936l3.349333-0.192c23.893333-2.496 35.072-31.658667 17.365334-49.002666l-117.696-115.114667z"  /></svg>