<?xml version="1.0" standalone="no"?><!DOCTYPE svg PUBLIC "-//W3C//DTD SVG 1.1//EN" "http://www.w3.org/Graphics/SVG/1.1/DTD/svg11.dtd"><svg class="icon" width="32px" height="32.00px" viewBox="0 0 1024 1024" version="1.1" xmlns="http://www.w3.org/2000/svg"><path d="M298.666667 106.666667v174.229333a10.666667 10.666667 0 0 0 13.909333 10.154667l1.770667-0.746667 38.272-20.416a21.333333 21.333333 0 0 1 17.685333-1.088l2.410667 1.088 38.272 20.416a10.666667 10.666667 0 0 0 15.509333-7.488l0.170667-1.92V106.666667h384a42.666667 42.666667 0 0 1 42.666666 42.666666v512H320a106.666667 106.666667 0 0 0-4.629333 213.226667L320 874.666667h533.333333a42.666667 42.666667 0 0 1-42.666666 42.666666H256a85.333333 85.333333 0 0 1-85.333333-85.333333V192a85.333333 85.333333 0 0 1 85.333333-85.333333h42.666667z m554.666666 597.333333v128H320a64 64 0 0 1 0-128h533.333333z"  /></svg>