<?xml version="1.0" standalone="no"?><!DOCTYPE svg PUBLIC "-//W3C//DTD SVG 1.1//EN" "http://www.w3.org/Graphics/SVG/1.1/DTD/svg11.dtd"><svg class="icon" width="32px" height="32.00px" viewBox="0 0 1024 1024" version="1.1" xmlns="http://www.w3.org/2000/svg"><path d="M725.333333 512c117.824 0 213.333333 95.509333 213.333334 213.333333s-95.509333 213.333333-213.333334 213.333334-213.333333-95.509333-213.333333-213.333334 95.509333-213.333333 213.333333-213.333333z m42.666667-405.333333a85.333333 85.333333 0 0 1 85.333333 85.333333l0.021334 311.594667A254.826667 254.826667 0 0 0 725.333333 469.333333c-141.376 0-256 114.624-256 256 0 76.458667 33.514667 145.109333 86.677334 192H256a85.333333 85.333333 0 0 1-85.333333-85.333333V192a85.333333 85.333333 0 0 1 85.333333-85.333333h512z m54.208 538.709333l-2.24 1.92-117.184 112.789333a17.344 17.344 0 0 1-22.208 1.536l-1.92-1.621333-47.957333-46.762667a26.410667 26.410667 0 0 0-36.48 0c-9.386667 9.088-10.026667 23.466667-1.877334 33.28l1.877334 2.005334 78.229333 76.16a26.453333 26.453333 0 0 0 34.218667 1.941333l2.261333-1.92 147.52-142.08a24.384 24.384 0 0 0 0-35.306667 26.453333 26.453333 0 0 0-34.24-1.941333zM650.666667 298.666667h-320a32 32 0 0 0-3.072 63.850666L330.666667 362.666667h320a32 32 0 0 0 0-64z"  /></svg>