<?xml version="1.0" standalone="no"?><!DOCTYPE svg PUBLIC "-//W3C//DTD SVG 1.1//EN" "http://www.w3.org/Graphics/SVG/1.1/DTD/svg11.dtd"><svg class="icon" width="32px" height="32.00px" viewBox="0 0 1024 1024" version="1.1" xmlns="http://www.w3.org/2000/svg"><path d="M938.666667 426.666667v320a85.333333 85.333333 0 0 1-85.333334 85.333333H170.666667a85.333333 85.333333 0 0 1-85.333334-85.333333V426.666667h853.333334z m-181.333334 97.450666a10.666667 10.666667 0 0 0-10.666666 10.666667v41.813333c-113.813333 6.826667-170.709333 70.613333-170.666667 191.402667 13.653333-65.877333 70.549333-101.248 170.666667-106.112v40.661333a10.666667 10.666667 0 0 0 17.493333 8.213334l90.837333-75.712a21.333333 21.333333 0 0 0 0-32.768l-90.837333-75.712a10.666667 10.666667 0 0 0-6.826667-2.453334zM853.333333 192a85.333333 85.333333 0 0 1 85.333334 85.333333v85.333334H85.333333v-85.333334a85.333333 85.333333 0 0 1 85.333334-85.333333h682.666666z"  /></svg>