<?xml version="1.0" standalone="no"?><!DOCTYPE svg PUBLIC "-//W3C//DTD SVG 1.1//EN" "http://www.w3.org/Graphics/SVG/1.1/DTD/svg11.dtd"><svg class="icon" width="32px" height="32.00px" viewBox="0 0 1024 1024" version="1.1" xmlns="http://www.w3.org/2000/svg"><path d="M467.626667 199.253333a116.330667 116.330667 0 0 1 165.461333 12.906667A119.68 119.68 0 0 1 661.333333 289.472V734.506667C661.333333 800.149333 608.810667 853.333333 544 853.333333a116.48 116.48 0 0 1-76.373333-28.586666l-148.8-129.152H224c-63.210667 0-114.773333-50.624-117.248-114.026667L106.666667 576.789333v-129.578666c0-65.621333 52.522667-118.805333 117.333333-118.805334h94.805333z m116.864 55.061334a52.885333 52.885333 0 0 0-75.2-5.845334l-166.784 144.746667H224c-29.44 0-53.333333 24.170667-53.333333 53.973333v129.6c0 29.824 23.893333 54.016 53.333333 54.016h118.506667l166.784 144.725334c9.664 8.384 21.973333 13.013333 34.709333 13.013333 29.44 0 53.333333-24.192 53.333333-54.016V289.493333a54.4 54.4 0 0 0-12.842666-35.157333z m345.472 159.722666a29.696 29.696 0 0 1 0 41.984L873.984 512l55.978667 55.957333a29.696 29.696 0 1 1-41.984 41.984L832 554.026667l-55.957333 55.957333a29.696 29.696 0 1 1-41.984-41.984l55.957333-55.957333-55.957333-56a29.696 29.696 0 1 1 41.984-41.984l55.957333 55.978666 56-55.978666a29.696 29.696 0 0 1 41.984 0z"  /></svg>