<?xml version="1.0" standalone="no"?><!DOCTYPE svg PUBLIC "-//W3C//DTD SVG 1.1//EN" "http://www.w3.org/Graphics/SVG/1.1/DTD/svg11.dtd"><svg class="icon" width="32px" height="32.00px" viewBox="0 0 1024 1024" version="1.1" xmlns="http://www.w3.org/2000/svg"><path d="M618.666667 259.562667a10.666667 10.666667 0 0 0 15.68 9.386666l38.272-20.394666a21.333333 21.333333 0 0 1 20.096 0l38.272 20.416a10.666667 10.666667 0 0 0 15.68-9.408V106.666667h42.666666a85.333333 85.333333 0 0 1 85.333334 85.333333v640a85.333333 85.333333 0 0 1-85.333334 85.333333H234.666667a85.333333 85.333333 0 0 1-85.333334-85.333333V192a85.333333 85.333333 0 0 1 85.333334-85.333333h384zM277.333333 106.666667h42.666667v810.666666h-42.666667V106.666667z"  /></svg>