<?xml version="1.0" standalone="no"?><!DOCTYPE svg PUBLIC "-//W3C//DTD SVG 1.1//EN" "http://www.w3.org/Graphics/SVG/1.1/DTD/svg11.dtd"><svg class="icon" width="32px" height="32.00px" viewBox="0 0 1024 1024" version="1.1" xmlns="http://www.w3.org/2000/svg"><path d="M736 853.333333a32 32 0 0 1 0 64h-448a32 32 0 0 1 0-64h448z m106.666667-746.666666A96 96 0 0 1 938.666667 202.666667v469.333333a96 96 0 0 1-96 96h-661.333334A96 96 0 0 1 85.333333 672v-469.333333A96 96 0 0 1 181.333333 106.666667z m-84.053334 243.968a32.085333 32.085333 0 0 0-45.269333 0.064l-127.168 126.890666-126.442667-126.826666-2.432-2.197334a32.106667 32.106667 0 0 0-42.944 2.133334l-149.013333 148.693333-2.197333 2.432a31.786667 31.786667 0 0 0 2.24 42.666667l2.453333 2.176c12.586667 10.197333 31.104 9.429333 42.816-2.24l126.272-126.037334 126.464 126.848 2.410667 2.197334c12.586667 10.304 31.210667 9.6 42.965333-2.133334l149.888-149.589333 2.197333-2.432a31.786667 31.786667 0 0 0-2.24-42.645333z"  /></svg>