<?xml version="1.0" standalone="no"?><!DOCTYPE svg PUBLIC "-//W3C//DTD SVG 1.1//EN" "http://www.w3.org/Graphics/SVG/1.1/DTD/svg11.dtd"><svg class="icon" width="32px" height="32.00px" viewBox="0 0 1024 1024" version="1.1" xmlns="http://www.w3.org/2000/svg"><path d="M736 853.333333a32 32 0 0 1 0 64h-448a32 32 0 0 1 0-64h448z m106.666667-746.666666A96 96 0 0 1 938.666667 202.666667v469.333333a96 96 0 0 1-96 96h-661.333334A96 96 0 0 1 85.333333 672v-469.333333A96 96 0 0 1 181.333333 106.666667z m0 64h-661.333334A32 32 0 0 0 149.333333 202.666667v469.333333A32 32 0 0 0 181.333333 704h661.333334a32 32 0 0 0 32-32v-469.333333A32 32 0 0 0 842.666667 170.666667z m-84.053334 179.968a31.786667 31.786667 0 0 1 2.24 42.666666l-2.197333 2.410667-149.888 149.589333c-11.754667 11.733333-30.378667 12.437333-42.965333 2.133334l-2.410667-2.197334-126.464-126.848-126.293333 126.037334a32.106667 32.106667 0 0 1-42.794667 2.24l-2.453333-2.197334a31.786667 31.786667 0 0 1-2.24-42.645333l2.197333-2.410667 149.013333-148.714666a32.106667 32.106667 0 0 1 42.944-2.133334l2.432 2.197334 126.442667 126.826666 127.168-126.890666a32.085333 32.085333 0 0 1 45.269333-0.064z"  /></svg>