<?xml version="1.0" standalone="no"?><!DOCTYPE svg PUBLIC "-//W3C//DTD SVG 1.1//EN" "http://www.w3.org/Graphics/SVG/1.1/DTD/svg11.dtd"><svg class="icon" width="32px" height="32.00px" viewBox="0 0 1024 1024" version="1.1" xmlns="http://www.w3.org/2000/svg"><path d="M467.626667 199.253333a116.330667 116.330667 0 0 1 165.461333 12.906667A119.68 119.68 0 0 1 661.333333 289.472V734.506667C661.333333 800.149333 608.810667 853.333333 544 853.333333a116.48 116.48 0 0 1-76.373333-28.586666l-148.8-129.152H224c-63.210667 0-114.773333-50.624-117.248-114.026667L106.666667 576.789333v-129.578666c0-65.621333 52.522667-118.805333 117.333333-118.805334h94.805333z m462.336 214.784a29.696 29.696 0 0 1 0 41.984L873.984 512l55.978667 55.957333a29.696 29.696 0 1 1-41.984 41.984L832 554.026667l-55.957333 55.957333a29.696 29.696 0 1 1-41.984-41.984l55.957333-55.957333-55.957333-56a29.696 29.696 0 1 1 41.984-41.984l55.957333 55.978666 56-55.978666a29.696 29.696 0 0 1 41.984 0z"  /></svg>