<?xml version="1.0" standalone="no"?><!DOCTYPE svg PUBLIC "-//W3C//DTD SVG 1.1//EN" "http://www.w3.org/Graphics/SVG/1.1/DTD/svg11.dtd"><svg class="icon" width="32px" height="32.00px" viewBox="0 0 1024 1024" version="1.1" xmlns="http://www.w3.org/2000/svg"><path d="M512 106.666667c60.010667 0 116.970667 13.034667 168.213333 36.437333L615.893333 204.181333a63.232 63.232 0 0 0-16.533333 60.48l1.173333 4.010667 9.685334 30.144A233.792 233.792 0 0 0 512 277.333333c-129.6 0-234.666667 105.066667-234.666667 234.666667s105.066667 234.666667 234.666667 234.666667 234.666667-105.066667 234.666667-234.666667c0-28.8-5.184-56.405333-14.698667-81.92l54.528 15.466667c21.525333 7.189333 41.813333-7.573333 58.282667-23.552l2.709333-2.688 45.226667-46.784A404.544 404.544 0 0 1 917.333333 512c0 223.850667-181.482667 405.333333-405.333333 405.333333S106.666667 735.850667 106.666667 512 288.149333 106.666667 512 106.666667z m0 234.666666c27.306667 0 53.098667 6.4 75.989333 17.813334l-104.597333 109.781333c-18.517333 18.517333-12.714667 60.650667 10.709333 82.88 22.485333 21.333333 69.717333 19.285333 89.834667 2.688l2.368-2.133333 89.770667-87.509334A170.666667 170.666667 0 1 1 512 341.333333zM800.554667 112.746667a20.757333 20.757333 0 0 1 5.013333 8.128l29.653333 89.28 89.216 29.610666a20.757333 20.757333 0 0 1 8.149334 34.346667l-120 120.021333a41.493333 41.493333 0 0 1-42.496 10.026667l-63.616-21.290667-141.354667 141.354667a31.125333 31.125333 0 1 1-44.010667-44.010667l141.056-141.056-21.12-64a41.493333 41.493333 0 0 1 10.090667-42.325333l120.085333-120.106667a20.757333 20.757333 0 0 1 29.333334 0z"  /></svg>