<?xml version="1.0" standalone="no"?><!DOCTYPE svg PUBLIC "-//W3C//DTD SVG 1.1//EN" "http://www.w3.org/Graphics/SVG/1.1/DTD/svg11.dtd"><svg class="icon" width="64px" height="64.00px" viewBox="0 0 1024 1024" version="1.1" xmlns="http://www.w3.org/2000/svg"><path d="M824 384H722v-46c0-115.5-94.5-210-210-210s-210 94.5-210 210v46H200a40 40 0 0 0-40 40v432a40 40 0 0 0 40 40h624a40 40 0 0 0 40-40V424a40 40 0 0 0-40-40z m-450-46a138 138 0 0 1 276 0v46H374z m418 486H232V456h560zM512 720a50 50 0 0 0 32-88.4V544a4 4 0 0 0-4-4h-56a4 4 0 0 0-4 4v87.6a50 50 0 0 0 32 88.4z" /></svg>