<?xml version="1.0" standalone="no"?><!DOCTYPE svg PUBLIC "-//W3C//DTD SVG 1.1//EN" "http://www.w3.org/Graphics/SVG/1.1/DTD/svg11.dtd"><svg class="icon" width="32px" height="32.00px" viewBox="0 0 1024 1024" version="1.1" xmlns="http://www.w3.org/2000/svg"><path d="M405.333333 704a106.666667 106.666667 0 0 1 0 213.333333h-170.666666a106.666667 106.666667 0 0 1 0-213.333333h170.666666z m114.901334-597.226667h-13.866667l13.909333 0.106667c182.357333 3.754667 339.754667 129.024 384.725334 306.133333H542.293333a127.658667 127.658667 0 0 0-90.538666 37.205334 128.213333 128.213333 0 0 0-37.717334 90.453333 122.453333 122.453333 0 0 0 91.413334 118.250667L917.333333 773.76v0.938667a121.386667 121.386667 0 0 1-47.317333 96.213333 120.874667 120.874667 0 0 1-104.96 20.992l-212.373333-56.768a149.333333 149.333333 0 0 0-142.208-173.717333L405.333333 661.333333h-170.666666a148.650667 148.650667 0 0 0-86.293334 27.456 138.624 138.624 0 0 1-12.288-23.701333A404.266667 404.266667 0 0 1 106.666667 512.341333 405.781333 405.781333 0 0 1 228.266667 222.357333a404.053333 404.053333 0 0 1 291.989333-115.562666zM405.333333 746.666667a64 64 0 1 0 0 128 64 64 0 0 0 0-128z m509.098667-282.752c1.92 16.128 2.901333 32.490667 2.901333 49.066666v207.786667l-398.613333-111.210667a71.509333 71.509333 0 0 1-53.333333-69.056 76.970667 76.970667 0 0 1 76.906666-76.586666h372.138667z m-387.968 52.928a29.077333 29.077333 0 0 0 28.970667 50.410666 29.141333 29.141333 0 0 0 0-50.474666 28.949333 28.949333 0 0 0-28.970667 0.064z"  /></svg>