<?xml version="1.0" standalone="no"?><!DOCTYPE svg PUBLIC "-//W3C//DTD SVG 1.1//EN" "http://www.w3.org/Graphics/SVG/1.1/DTD/svg11.dtd"><svg class="icon" width="32px" height="32.00px" viewBox="0 0 1024 1024" version="1.1" xmlns="http://www.w3.org/2000/svg"><path d="M761.2 639.7c-10.6 0-21.1-4-29.2-12.1-16.1-16.1-16.1-42.3 0-58.4l97.5-97.5c5.6-5.6 7.1-13.9 7.3-19.9l8.6-242.5c0.1-3.9-2.8-11.2-9.5-17.9-6.7-6.7-14.7-9.5-17.9-9.5l-242.5 8.6c-6 0.2-14.2 1.7-19.9 7.3l-102 102.1c-16.1 16.1-42.3 16.1-58.4 0s-16.1-42.3 0-58.4l102.1-102.1c19.2-19.2 46-30.4 75.3-31.4l242.5-8.6c27.9-1 56.9 11.2 79.2 33.6 22.4 22.4 34.6 51.2 33.6 79.3l-8.6 242.5c-1.1 29.4-12.2 56.1-31.4 75.3l-97.5 97.5c-8.1 8.1-18.7 12.1-29.2 12.1zM444.4 925.3c-40.6 0-84.7-18.5-120.4-54.3L156.4 703.4C93.9 640.9 84 552.8 133.8 502.9l88.3-88.3c16.1-16.1 42.3-16.1 58.4 0s16.1 42.3 0 58.4l-88.3 88.3c-14.4 14.4-7.8 53.3 22.6 83.7l167.6 167.6c30.4 30.4 69.3 37 83.7 22.6l83.7-83.7c16.1-16.1 42.3-16.1 58.4 0s16.1 42.3 0 58.4l-83.7 83.7c-21.4 21.3-49.8 31.7-80.1 31.7z"  /><path d="M705.8 326.3m-45.8 0a45.8 45.8 0 1 0 91.6 0 45.8 45.8 0 1 0-91.6 0Z"  /><path d="M829.9 885.7c-10.6 0-21.1-4-29.2-12.1l-642-642c-16.1-16.1-16.1-42.3 0-58.4s42.3-16.1 58.4 0l642 642c16.1 16.1 16.1 42.3 0 58.4-8.1 8.1-18.6 12.1-29.2 12.1z"  /></svg>