<?xml version="1.0" standalone="no"?><!DOCTYPE svg PUBLIC "-//W3C//DTD SVG 1.1//EN" "http://www.w3.org/Graphics/SVG/1.1/DTD/svg11.dtd"><svg class="icon" width="32px" height="32.00px" viewBox="0 0 1024 1024" version="1.1" xmlns="http://www.w3.org/2000/svg"><path d="M511.914667 106.666667c202.325333 0 369.088 165.376 383.445333 375.850666l0.469333 8.746667c0.085333 2.901333 0.128 8.533333 0.149334 17.066667l0.021333 9.472v20.16l-0.064 23.04 0.064 2.965333v83.136c0 2.282667-0.064 4.522667-0.213333 6.762667 0.149333 1.194667 0.213333 2.410667 0.213333 3.626666 0 112.448-84.906667 205.034667-194.026667 216.96C689.130667 899.733333 660.48 917.333333 627.2 917.333333h-23.424c-45.269333 0-81.984-32.576-81.984-72.746666v-20.8c0-40.170667 36.714667-72.746667 81.984-72.746667H627.2c40.192 0 73.6 25.642667 80.64 59.52a155.605333 155.605333 0 0 0 95.189333-60.074667 103.850667 103.850667 0 0 1-114.602666-103.36v-83.157333a103.850667 103.850667 0 0 1 142.997333-96.256c-20.48-169.28-156.8-298.666667-319.509333-298.666667-170.026667 0-305.92 127.082667-320.362667 299.093334a103.850667 103.850667 0 0 1 144.021333 95.829333v83.136a103.850667 103.850667 0 0 1-103.786666 103.936A103.850667 103.850667 0 0 1 128 647.104v-83.136-1.066667l0.085333-72.277333C132.138667 272.853333 300.16 106.666667 511.914667 106.666667z m124.629333 706.730666h-42.090667a10.389333 10.389333 0 0 0-10.389333 10.389334v20.8c0 5.738667 4.650667 10.389333 10.389333 10.389333h42.090667a10.389333 10.389333 0 0 0 10.368-10.389333v-20.8a10.389333 10.389333 0 0 0-10.368-10.389334z m-404.757333-290.986666a41.536 41.536 0 0 0-41.514667 41.557333l0.064-1.877333-0.085333 32.938666v52.074667c0 21.930667 16.96 39.893333 38.442666 41.472l3.093334 0.106667a41.536 41.536 0 0 0 41.514666-41.578667v-83.136a41.536 41.536 0 0 0-41.514666-41.578667z m560.426666 0a41.536 41.536 0 0 0-41.514666 41.557333v83.136c0 22.976 18.581333 41.6 41.514666 41.6a41.536 41.536 0 0 0 41.514667-41.6v-48.832a31.573333 31.573333 0 0 1-0.170667-3.242667l0.021334-34.624a41.536 41.536 0 0 0-41.365334-38.016z"  /></svg>