<?xml version="1.0" standalone="no"?><!DOCTYPE svg PUBLIC "-//W3C//DTD SVG 1.1//EN" "http://www.w3.org/Graphics/SVG/1.1/DTD/svg11.dtd"><svg class="icon" width="32px" height="32.00px" viewBox="0 0 1024 1024" version="1.1" xmlns="http://www.w3.org/2000/svg"><path d="M512.042667 213.333333c148.992 0 283.733333 78.186667 403.2 231.317334 31.253333 40.021333 31.253333 94.698667-0.106667 134.869333l-6.826667 8.64C790.570667 735.466667 658.133333 810.666667 512.042667 810.666667 363.008 810.666667 228.266667 732.437333 108.736 579.264c-31.189333-40-31.232-94.592 0.042667-134.762667l6.805333-8.64C233.045333 288.533333 365.546667 213.333333 512.042667 213.333333zM512 384a128 128 0 1 0 0 256 128 128 0 0 0 0-256z"  /></svg>