<?xml version="1.0" standalone="no"?><!DOCTYPE svg PUBLIC "-//W3C//DTD SVG 1.1//EN" "http://www.w3.org/Graphics/SVG/1.1/DTD/svg11.dtd"><svg class="icon" width="32px" height="32.00px" viewBox="0 0 1024 1024" version="1.1" xmlns="http://www.w3.org/2000/svg"><path d="M444.629333 149.333333c99.221333 0 179.648 94.549333 179.648 211.2 0 83.84-41.557333 156.288-101.802666 190.4-1.216 6.698667-1.002667 13.482667 0.64 20.309334 6.229333 26.090667 27.968 43.413333 65.194666 51.946666l59.925334 19.072c9.984 3.093333 19.968 6.08 29.952 8.853334l11.264 3.2 10.858666 3.306666c62.229333 19.626667 103.616 46.08 103.616 114.965334C803.456 826.410667 770.197333 853.333333 704.128 853.333333H185.130667c-64.853333 0-98.133333-26.922667-99.797334-80.746666 0-66.922667 39.061333-93.802667 98.346667-113.28l10.666667-3.349334 11.050666-3.242666 5.674667-1.6c28.970667-8.064 57.941333-17.856 86.912-26.986667 39.722667-11.349333 62.421333-28.906667 68.117333-52.650667 1.642667-6.848 1.770667-13.76 0.426667-20.736-60.096-34.133333-101.546667-106.474667-101.546667-190.208 0-116.650667 80.426667-211.2 179.648-211.2z m202.112 23.466667c80.618667 0 145.962667 75.648 145.962667 168.96 0 67.072-33.770667 125.013333-82.688 152.298667-1.024 5.354667-0.853333 10.794667 0.490667 16.256 8.277333 34.069333 48.896 40.298667 59.029333 43.456l33.493333 10.56c11.157333 3.477333 22.314667 6.826667 33.493334 9.898666l10.752 3.029334 10.325333 3.157333c48.810667 15.616 81.066667 37.013333 81.066667 90.986667-0.384 43.072-27.413333 64.597333-81.088 64.597333h-9.536c-4.992-38.613333-19.690667-65.834667-44.117334-81.706667a374.570667 374.570667 0 0 0-58.154666-30.698666l-11.861334-4.906667a643.072 643.072 0 0 0-6.186666-2.432l-12.842667-4.864-13.653333-4.906667-14.506667-5.013333-32-10.602667-70.762667-22.741333 4.864-3.797333c48.426667-39.381333 84.970667-104.917333 84.970667-195.050667l0.106667-8.341333c-0.106667-94.272-26.965333-138.730667-64.64-181.76 12.501333-4.032 23.893333-6.378667 37.482666-6.378667z"  /></svg>