<?xml version="1.0" standalone="no"?><!DOCTYPE svg PUBLIC "-//W3C//DTD SVG 1.1//EN" "http://www.w3.org/Graphics/SVG/1.1/DTD/svg11.dtd"><svg class="icon" width="32px" height="32.00px" viewBox="0 0 1024 1024" version="1.1" xmlns="http://www.w3.org/2000/svg"><path d="M490.666667 576c14.08 0 28.16 0.341333 42.24 1.002667a244.906667 244.906667 0 0 0-30.698667 63.082666A821.546667 821.546667 0 0 0 490.666667 640c-77.333333 0-154.752 10.816-232.405334 32.490667a119.829333 119.829333 0 0 0-87.466666 110.229333L170.666667 787.904V832a21.333333 21.333333 0 0 0 18.837333 21.184L192 853.333333h341.589333a246.698667 246.698667 0 0 0 64.149334 64.021334L192 917.333333a85.333333 85.333333 0 0 1-85.333333-85.333333v-44.096a183.829333 183.829333 0 0 1 134.4-177.066667C324.266667 587.648 407.466667 576 490.666667 576z m245.333333-64a202.666667 202.666667 0 1 1 0 405.333333 202.666667 202.666667 0 0 1 0-405.333333z m0 64a138.666667 138.666667 0 1 0 0 277.333333 138.666667 138.666667 0 0 0 0-277.333333z m0 21.333333a21.333333 21.333333 0 0 1 21.333333 21.333334v91.626666l57.472 57.472a21.333333 21.333333 0 0 1 1.770667 28.16l-1.770667 2.005334a21.333333 21.333333 0 0 1-28.16 1.770666l-2.005333-1.770666-51.477333-51.456A21.333333 21.333333 0 0 1 714.666667 725.333333v-106.666666a21.333333 21.333333 0 0 1 21.333333-21.333334zM490.666667 106.666667c117.824 0 213.333333 95.509333 213.333333 213.333333s-95.509333 213.333333-213.333333 213.333333-213.333333-95.509333-213.333334-213.333333S372.842667 106.666667 490.666667 106.666667z m0 64a149.333333 149.333333 0 1 0 0 298.666666 149.333333 149.333333 0 0 0 0-298.666666z"  /></svg>