<?xml version="1.0" standalone="no"?><!DOCTYPE svg PUBLIC "-//W3C//DTD SVG 1.1//EN" "http://www.w3.org/Graphics/SVG/1.1/DTD/svg11.dtd"><svg class="icon" width="32px" height="32.00px" viewBox="0 0 1024 1024" version="1.1" xmlns="http://www.w3.org/2000/svg"><path d="M853.333333 170.666667a85.333333 85.333333 0 0 1 85.333334 85.333333v426.666667a85.333333 85.333333 0 0 1-85.333334 85.333333H576v42.666667h74.666667a32 32 0 0 1 0 64h-277.333334a32 32 0 0 1 0-64H448v-42.666667H170.666667a85.333333 85.333333 0 0 1-85.333334-85.333333V256a85.333333 85.333333 0 0 1 85.333334-85.333333h682.666666z m-127.957333 213.333333c-37.056 0.277333-77.824 17.258667-77.824 58.666667 0 45.12 37.909333 56.042667 78.976 60.928 26.709333 2.88 46.506667 10.666667 46.506667 29.632 0 21.845333-22.4 30.186667-46.229334 30.186666-24.405333 0-47.658667-9.792-56.576-31.914666l-31.573333 16.384c14.933333 36.8 46.506667 49.450667 87.573333 49.450666 44.8 0 84.437333-19.264 84.437334-64.106666 0-46.506667-36.650667-58.24-77.056-63.616l-3.925334-0.512c-24.106667-2.88-44.8-7.765333-44.8-25.301334 0-14.933333 13.504-26.730667 41.642667-26.730666 21.824 0 40.768 10.922667 47.658667 22.421333l30.165333-15.530667C789.12 392.917333 756.672 384 725.376 384z m-280 7.189333H401.706667v201.258667h37.909333v-146.346667l64.042667 87.68h7.466666l65.472-87.381333v146.048h37.909334v-201.258667h-43.370667l-62.890667 86.549334-62.890666-86.549334z m-194.133333-0.298666H213.333333v201.258666h37.909334V503.04l84.138666 89.109333h46.805334v-2.282666l-96.768-101.504 89.301333-96.32v-1.152h-47.082667l-76.394666 85.12v-85.12z"  /></svg>