<?xml version="1.0" standalone="no"?><!DOCTYPE svg PUBLIC "-//W3C//DTD SVG 1.1//EN" "http://www.w3.org/Graphics/SVG/1.1/DTD/svg11.dtd"><svg class="icon" width="32px" height="32.00px" viewBox="0 0 1024 1024" version="1.1" xmlns="http://www.w3.org/2000/svg"><path d="M793.6 128a102.4 102.4 0 0 1 102.4 102.4v563.2a102.4 102.4 0 0 1-102.4 102.4H230.4A102.4 102.4 0 0 1 128 793.6V230.4A102.4 102.4 0 0 1 230.4 128h563.2z m-76.864 179.2H307.904A52.885333 52.885333 0 0 0 256 360.682667v103.616a276.757333 276.757333 0 0 0 41.450667 146.496l4.650666 7.253333a252.266667 252.266667 0 0 0 112.042667 94.421333v32a20.48 20.48 0 0 0 18.048 22.634667l1.578667 0.128c5.482667 0.512 10.666667 0.682667 15.978666 0.746667l8.064 0.021333a317.397333 317.397333 0 0 0 206.421334-79.018667l6.250666-5.674666A295.850667 295.850667 0 0 0 768 463.530667v-102.848a51.989333 51.989333 0 0 0-50.474667-53.461334l-0.768-0.021333z m-361.429333 111.04c14.506667 0 26.666667 10.517333 29.013333 24.533333l0.341333 2.837334c0.768 17.194667 4.416 34.090667 10.773334 50.048l2.901333 6.762666a139.797333 139.797333 0 0 0 83.52 76.522667l5.653333 1.770667a137.770667 137.770667 0 0 0 41.6 1.066666l6.869334-1.066666a108.864 108.864 0 0 0 78.144-51.541334l2.709333-4.757333a29.312 29.312 0 0 1 36.117333-12.202667l2.624 1.216c6.272 3.349333 11.029333 8.896 13.44 15.509334l0.853334 2.901333c2.026667 8.384 0.384 17.216-4.522667 24.32h-0.064a167.082667 167.082667 0 0 1-115.733333 83.157333l-6.165334 1.002667a170.24 170.24 0 0 1-23.296 2.645333l-7.808 0.170667a177.962667 177.962667 0 0 1-38.976-4.096l-2.133333-0.256a199.893333 199.893333 0 0 1-124.053333-106.090667l-2.709334-5.973333a220.16 220.16 0 0 1-17.92-69.76l-0.64-9.045333a30.293333 30.293333 0 0 1 26.645334-29.461334l2.816-0.213333z m312.32-1.28a36.245333 36.245333 0 0 1 37.376 35.072v1.28a35.84 35.84 0 0 1-35.050667 36.053333h-0.064a36.245333 36.245333 0 1 1-2.261333-72.426666z"  /></svg>