<?xml version="1.0" standalone="no"?><!DOCTYPE svg PUBLIC "-//W3C//DTD SVG 1.1//EN" "http://www.w3.org/Graphics/SVG/1.1/DTD/svg11.dtd"><svg class="icon" width="32px" height="32.00px" viewBox="0 0 1024 1024" version="1.1" xmlns="http://www.w3.org/2000/svg"><path d="M385.6 371.242667c12.16 113.578667 92.906667 206.634667 200 236.949333l1.664 0.448-2.453333 2.005333-317.888 237.418667c-12.16 9.066667-28.8 8.533333-40.32-0.917333l-2.410667-2.154667-28.928-28.885333c0.213333 1.898667 0.490667 3.797333 0.810667 5.717333 6.186667 35.754667 31.338667 57.962667 79.808 49.322667 26.986667-4.821333 44.117333-11.242667 63.509333-22.464l6.336-3.776 11.541333-7.168 5.397334-3.285334c35.562667-21.248 64.96-29.909333 117.973333-30.442666 69.909333-0.704 129.088 21.056 175.701333 65.173333a32.853333 32.853333 0 0 1 1.28 46.4 32.746667 32.746667 0 0 1-46.293333 1.28c-33.898667-32.042667-76.608-47.744-130.026667-47.210667-40.597333 0.426667-59.029333 5.632-84.864 21.056l-17.642666 10.88c-28.266667 17.216-53.461333 27.413333-91.413334 34.176-87.808 15.658667-144-33.92-155.882666-102.741333a151.765333 151.765333 0 0 1 4.522666-72.042667l1.066667-2.965333-20.778667-20.736a32.853333 32.853333 0 0 1-3.968-41.706667l2.048-2.688 268.437334-318.72c0.874667-1.045333 1.813333-2.005333 2.773333-2.922666z m4.181333 169.344l-2.474666 2.24-46.357334 46.421333-2.24 2.496a32.853333 32.853333 0 0 0 2.24 43.925333 32.746667 32.746667 0 0 0 43.861334 2.24l2.496-2.24 46.336-46.421333 2.261333-2.496a32.853333 32.853333 0 0 0-2.261333-43.925333 32.746667 32.746667 0 0 0-43.861334-2.24zM661.333333 85.333333c141.376 0 256 114.624 256 256s-114.624 256-256 256-256-114.624-256-256S519.957333 85.333333 661.333333 85.333333z"  /></svg>