<?xml version="1.0" standalone="no"?><!DOCTYPE svg PUBLIC "-//W3C//DTD SVG 1.1//EN" "http://www.w3.org/Graphics/SVG/1.1/DTD/svg11.dtd"><svg class="icon" width="32px" height="32.00px" viewBox="0 0 1024 1024" version="1.1" xmlns="http://www.w3.org/2000/svg"><path d="M671.829333 676.053333c-53.610667-78.933333-97.685333-174.741333-144.789333-292.053333l-21.930667-55.061333c-37.845333-93.653333-71.573333-155.797333-167.936-129.024l-21.504-48.917334-4.8-10.837333c-4.842667-10.922667-27.712-16.106667-43.050666-8.661333-15.36 7.466667-30.08 25.386667-25.024 37.461333l26.816 63.744c-75.818667 43.306667-69.888 98.538667-12.8 208.064l14.869333 28.074667c58.453333 109.546667 130.816 234.794667 260.096 328.512 51.072 37.034667 110.165333 65.386667 177.28 85.056l14.506667 4.074666a52.16 52.16 0 0 0 63.957333-36.458666c4.693333-17.216 0.170667-35.626667-11.989333-48.746667l-16.917334-18.453333c-38.144-42.133333-67.072-77.717333-86.784-106.752z"  /></svg>