<?xml version="1.0" standalone="no"?><!DOCTYPE svg PUBLIC "-//W3C//DTD SVG 1.1//EN" "http://www.w3.org/Graphics/SVG/1.1/DTD/svg11.dtd"><svg class="icon" width="32px" height="32.00px" viewBox="0 0 1024 1024" version="1.1" xmlns="http://www.w3.org/2000/svg"><path d="M512 85.333333c200.298667 0 362.666667 191.018667 362.666667 426.666667s-162.368 426.666667-362.666667 426.666667S149.333333 747.648 149.333333 512 311.701333 85.333333 512 85.333333z m23.722667 217.066667a25.194667 25.194667 0 0 0-25.408-0.576 24.106667 24.106667 0 0 0-12.522667 21.674667l0.042667 141.781333-96.64-66.816-1.045334-0.704a24.618667 24.618667 0 0 0-33.130666 7.146667l-0.64 1.066666c-6.954667 11.306667-3.882667 25.92 7.04 33.642667l106.645333 73.941333-106.901333 76.117334-1.002667 0.746666a25.088 25.088 0 0 0-4.970667 34.005334l0.725334 1.024a24.64 24.64 0 0 0 33.514666 5.034666l96.533334-68.437333v139.626667c0.170667 8.874667 5.333333 16.938667 13.397333 20.992 8.085333 4.053333 17.770667 3.456 25.237333-1.578667l135.082667-94.229333 0.981333-0.746667c6.336-4.949333 9.92-12.522667 9.728-20.458667a25.194667 25.194667 0 0 0-10.773333-19.925333l-104.917333-72.704 105.472-74.88 1.002666-0.704a25.173333 25.173333 0 0 0 9.472-20.394667 25.258667 25.258667 0 0 0-10.688-19.84l-135.36-94.208z m11.754666 257.642667l66.773334 46.592-66.773334 46.4v-92.992z m0-189.205334l67.370667 47.424-67.370667 47.829334v-95.253334z"  /></svg>