<?xml version="1.0" standalone="no"?><!DOCTYPE svg PUBLIC "-//W3C//DTD SVG 1.1//EN" "http://www.w3.org/Graphics/SVG/1.1/DTD/svg11.dtd"><svg class="icon" width="64px" height="64.00px" viewBox="0 0 1024 1024" version="1.1" xmlns="http://www.w3.org/2000/svg"><path d="M774.549333 618.666667a64 64 0 0 1 55.445334 32l37.696 65.322666a64 64 0 0 1 0 64l-37.696 65.322667a64 64 0 0 1-55.445334 32h-75.413333a64 64 0 0 1-55.445333-32l-37.696-65.322667a64 64 0 0 1 0-64l37.696-65.322666a64 64 0 0 1 55.445333-32h75.413333z m-385.152-37.077334c18.944 11.52 39.488 20.629333 61.226667 26.944L277.333333 810.666667h272.490667l0.725333 1.322666L586.730667 874.666667H277.333333a64 64 0 0 1-48.597333-105.642667l160.661333-187.434667zM774.549333 682.666667h-75.413333l-37.717333 65.322666 37.717333 65.322667h75.413333l37.717334-65.322667L774.549333 682.666667z m-39.04 32.554666a32 32 0 1 1 0 64 32 32 0 0 1 0-64zM522.176 149.333333c117.824 0 213.333333 95.509333 213.333333 213.333334s-95.509333 213.333333-213.333333 213.333333-213.333333-95.509333-213.333333-213.333333 95.509333-213.333333 213.333333-213.333334z m0 64a149.333333 149.333333 0 1 0 0 298.666667 149.333333 149.333333 0 0 0 0-298.666667z" /></svg>