<?xml version="1.0" standalone="no"?><!DOCTYPE svg PUBLIC "-//W3C//DTD SVG 1.1//EN" "http://www.w3.org/Graphics/SVG/1.1/DTD/svg11.dtd"><svg class="icon" width="64px" height="64.00px" viewBox="0 0 1024 1024" version="1.1" xmlns="http://www.w3.org/2000/svg"><path d="M617.216 170.666667c114.24 0 206.869333 92.608 206.869333 206.869333 0 72.533333-37.333333 136.32-93.802666 173.269333l168.746666 196.885334A64 64 0 0 1 850.432 853.333333l-101.888 0.021334c11.221333-19.413333 14.293333-42.496 8.746667-64L850.432 789.333333 634.24 537.109333l60.992-39.872a142.869333 142.869333 0 0 0-75.584-262.549333 251.264 251.264 0 0 0-55.424-57.173333A206.976 206.976 0 0 1 617.216 170.666667z m-61.162667 412.757333l140.8 164.266667A64 64 0 0 1 648.213333 853.333333H181.824a64 64 0 0 1-48.597333-105.642666l140.8-164.266667c18.026667 12.373333 37.76 22.442667 58.773333 29.781333L181.824 789.333333h466.410667l-150.997334-176.128c21.034667-7.338667 40.768-17.386667 58.816-29.781333zM415.04 170.666667c114.24 0 206.869333 92.608 206.869333 206.869333 0 114.24-92.629333 206.869333-206.869333 206.869333-114.261333 0-206.869333-92.629333-206.869333-206.869333C208.170667 263.274667 300.778667 170.666667 415.04 170.666667z m0 64a142.869333 142.869333 0 1 0 0 285.738666 142.869333 142.869333 0 0 0 0-285.738666z" /></svg>