<?xml version="1.0" standalone="no"?><!DOCTYPE svg PUBLIC "-//W3C//DTD SVG 1.1//EN" "http://www.w3.org/Graphics/SVG/1.1/DTD/svg11.dtd"><svg class="icon" width="32px" height="32.00px" viewBox="0 0 1024 1024" version="1.1" xmlns="http://www.w3.org/2000/svg"><path d="M224 938.666667A96 96 0 0 1 128 842.666667V469.333333c0-212.074667 171.925333-384 384-384s384 171.925333 384 384v373.333334a96 96 0 0 1-96 96zM512 149.333333C335.274667 149.333333 192 292.608 192 469.333333v373.333334a32 32 0 0 0 32 32H320V522.666667a117.333333 117.333333 0 0 1 112.618667-117.248L437.333333 405.333333h149.333334a117.333333 117.333333 0 0 1 117.333333 117.333334V874.666667h96a32 32 0 0 0 31.850667-28.928L832 842.666667V469.333333c0-176.725333-143.274667-320-320-320z m74.666667 320h-149.333334a53.333333 53.333333 0 0 0-53.333333 53.333334V874.666667h256V522.666667a53.333333 53.333333 0 0 0-49.834667-53.226667L586.666667 469.333333zM512 618.666667a42.666667 42.666667 0 0 1 21.354667 79.616L533.333333 746.666667a21.333333 21.333333 0 0 1-42.666666 0v-48.384A42.666667 42.666667 0 0 1 512 618.666667z"  /></svg>