<?xml version="1.0" standalone="no"?><!DOCTYPE svg PUBLIC "-//W3C//DTD SVG 1.1//EN" "http://www.w3.org/Graphics/SVG/1.1/DTD/svg11.dtd"><svg class="icon" width="32px" height="32.00px" viewBox="0 0 1024 1024" version="1.1" xmlns="http://www.w3.org/2000/svg"><path d="M512 85.333333c212.074667 0 384 171.925333 384 384v373.333334a96 96 0 0 1-96 96H704V522.666667a117.333333 117.333333 0 0 0-117.333333-117.333334h-149.333334a117.333333 117.333333 0 0 0-117.333333 117.333334V938.666667h-96A96 96 0 0 1 128 842.666667V469.333333c0-212.074667 171.925333-384 384-384z m74.666667 384l3.498666 0.128C617.984 471.552 640 498.346667 640 531.093333V938.666667H384V531.093333C384 496.981333 407.893333 469.333333 437.333333 469.333333h149.333334zM512 618.666667a42.666667 42.666667 0 0 0-21.333333 79.616V746.666667a21.333333 21.333333 0 0 0 42.666666 0l0.021334-48.384A42.666667 42.666667 0 0 0 512 618.666667z"  /></svg>