<?xml version="1.0" standalone="no"?><!DOCTYPE svg PUBLIC "-//W3C//DTD SVG 1.1//EN" "http://www.w3.org/Graphics/SVG/1.1/DTD/svg11.dtd"><svg class="icon" width="64px" height="64.00px" viewBox="0 0 1024 1024" version="1.1" xmlns="http://www.w3.org/2000/svg"><path d="M494.122667 277.333333a98.026667 98.026667 0 0 1 98.026666 98.026667v186.24h166.613334a64 64 0 0 1 64 64v249.642667H376.533333l-126.72-108.629334a103.146667 103.146667 0 0 1-14.464-141.44l3.946667-4.778666a103.381333 103.381333 0 0 1 141.930667-13.013334l4.565333 3.84 10.346667 9.173334V375.36A98.026667 98.026667 0 0 1 494.122667 277.333333z m0 64c-18.773333 0-34.005333 15.232-34.005334 34.026667v387.562667l-116.864-103.893334-3.029333-2.432a39.381333 39.381333 0 0 0-52.778667 5.952l-2.453333 3.093334a39.146667 39.146667 0 0 0 6.442667 52.394666l95.893333 82.197334L466.005333 874.666667h292.906667v-85.333334h-0.149333v-163.754666h-230.613334v-250.24c0-18.773333-15.232-34.005333-34.026666-34.005334zM490.666667 149.333333c117.824 0 213.333333 95.509333 213.333333 213.333334a212.693333 212.693333 0 0 1-63.594667 151.957333V362.666667H640a149.333333 149.333333 0 1 0-298.538667 6.4l0.021334 146.112A212.693333 212.693333 0 0 1 277.333333 362.666667c0-117.824 95.509333-213.333333 213.333334-213.333334z" /></svg>