<?xml version="1.0" standalone="no"?><!DOCTYPE svg PUBLIC "-//W3C//DTD SVG 1.1//EN" "http://www.w3.org/Graphics/SVG/1.1/DTD/svg11.dtd"><svg class="icon" width="64px" height="64.00px" viewBox="0 0 1024 1024" version="1.1" xmlns="http://www.w3.org/2000/svg"><path d="M808 128H696.2A104 104 0 0 0 600 63.5H424a104 104 0 0 0-96.2 64.5H216a40 40 0 0 0-40 40v752.5a40 40 0 0 0 40 40h592a40 40 0 0 0 40-40V168a40 40 0 0 0-40-40z m-384 7.5h176a32 32 0 0 1 0 64H424a32 32 0 0 1 0-64z m352 753H248V200h77.2a104 104 0 0 0 98.8 71.5h176a104 104 0 0 0 98.8-71.5H776z m-456-460v56a4 4 0 0 0 4 4h376a4 4 0 0 0 4-4v-56a4 4 0 0 0-4-4H324a4 4 0 0 0-4 4z m316 132H324a4 4 0 0 0-4 4v56a4 4 0 0 0 4 4h312a4 4 0 0 0 4-4v-56a4 4 0 0 0-4-4z m-64 136H324a4 4 0 0 0-4 4v56a4 4 0 0 0 4 4h248a4 4 0 0 0 4-4v-56a4 4 0 0 0-4-4z" /></svg>