<?xml version="1.0" standalone="no"?><!DOCTYPE svg PUBLIC "-//W3C//DTD SVG 1.1//EN" "http://www.w3.org/Graphics/SVG/1.1/DTD/svg11.dtd"><svg class="icon" width="32px" height="32.00px" viewBox="0 0 1024 1024" version="1.1" xmlns="http://www.w3.org/2000/svg"><path d="M768 384v490.666667a42.666667 42.666667 0 0 1-42.666667 42.666666H298.666667a42.666667 42.666667 0 0 1-42.666667-42.666666V384h512z m-345.152 128c-36.949333 0-66.666667 18.645333-75.797333 51.669333-3.306667 10.88-5.546667 25.728-5.717334 83.029334v6.293333c0 59.050667 2.282667 73.408 5.717334 84.288 9.514667 33.024 38.848 52.053333 75.797333 52.053333 36.586667 0 65.92-18.645333 75.818667-52.053333 2.944-10.453333 4.8-24.192 4.949333-77.909333v-6.378667c0-62.528-1.92-78.08-4.949333-89.322667-9.898667-33.024-39.253333-51.669333-75.818667-51.669333zM661.333333 515.882667h-41.152L570.666667 551.253333v48.938667l44.949333-31.850667v217.130667H661.333333V515.882667zM422.848 555.52c15.637333 0 28.970667 8.170667 32 23.317333 1.770667 6.784 2.858667 18.176 3.029333 61.994667v23.658667c-0.170667 41.130667-1.28 50.901333-3.413333 58.048-4.181333 15.146667-16 22.528-31.616 22.528-16.362667 0-29.333333-7.381333-32.362667-22.528-1.536-7.765333-3.434667-18.645333-3.434666-69.525334 0-53.973333 1.130667-66.794667 3.413333-74.176 4.202667-15.146667 16-23.317333 32.384-23.317333zM853.333333 128a85.333333 85.333333 0 0 1 85.333334 85.333333v298.666667a85.333333 85.333333 0 0 1-85.333334 85.333333h-42.666666v-192h10.666666a32 32 0 0 0 0-64h-618.666666a32 32 0 0 0-3.072 63.850667L202.666667 405.333333h10.666666v192H170.666667a85.333333 85.333333 0 0 1-85.333334-85.333333V213.333333a85.333333 85.333333 0 0 1 85.333334-85.333333h682.666666z"  /></svg>