<?xml version="1.0" standalone="no"?><!DOCTYPE svg PUBLIC "-//W3C//DTD SVG 1.1//EN" "http://www.w3.org/Graphics/SVG/1.1/DTD/svg11.dtd"><svg class="icon" width="32px" height="32.00px" viewBox="0 0 1024 1024" version="1.1" xmlns="http://www.w3.org/2000/svg"><path d="M501.333333 874.666667a32 32 0 0 1 0 64h-320a32 32 0 0 1 0-64h320zM134.250667 605.034667l282.325333 165.269333c15.573333 9.130667 20.928 29.354667 11.946667 45.162667a32.362667 32.362667 0 0 1-44.544 12.096L101.632 662.293333a33.301333 33.301333 0 0 1-11.925333-45.162666 32.362667 32.362667 0 0 1 44.544-12.096z m278.165333-422.4l225.877333 132.224a44.416 44.416 0 0 1 15.893334 60.202666L578.133333 508.650667l338.773334 198.314666a44.416 44.416 0 0 1 15.936 60.202667 43.136 43.136 0 0 1-59.392 16.149333L534.656 584.96l-76.074667 133.589333a43.136 43.136 0 0 1-59.370666 16.128L173.333333 602.474667a44.416 44.416 0 0 1-15.893333-60.202667l195.605333-343.509333a43.136 43.136 0 0 1 59.370667-16.128z m15.232-92.864l282.346667 165.269333c15.573333 9.130667 20.906667 29.354667 11.925333 45.162667a32.362667 32.362667 0 0 1-44.544 12.096L395.050667 147.029333a33.301333 33.301333 0 0 1-11.946667-45.162666 32.362667 32.362667 0 0 1 44.544-12.096z"  /></svg>