<?xml version="1.0" standalone="no"?><!DOCTYPE svg PUBLIC "-//W3C//DTD SVG 1.1//EN" "http://www.w3.org/Graphics/SVG/1.1/DTD/svg11.dtd"><svg class="icon" width="64px" height="64.00px" viewBox="0 0 1024 1024" version="1.1" xmlns="http://www.w3.org/2000/svg"><path d="M920 192H104a40 40 0 0 0-40 40v560a40 40 0 0 0 40 40h816a40 40 0 0 0 40-40V232a40 40 0 0 0-40-40z m-32 568H136V604.9l122.8-122.1 209.2 186a111.9 111.9 0 0 0 74.4 28.2 111.9 111.9 0 0 0 79.2-32.8l118-118L888 674z m0-181L764.1 472.2a39.9 39.9 0 0 0-54.4 2.1l-139 139a40.1 40.1 0 0 1-54.9 1.6L284.1 409a40.1 40.1 0 0 0-54.8 1.5L136 503.4V264h752zM740 412a48 48 0 1 0-48-48 48 48 0 0 0 48 48z" /></svg>