<?xml version="1.0" standalone="no"?><!DOCTYPE svg PUBLIC "-//W3C//DTD SVG 1.1//EN" "http://www.w3.org/Graphics/SVG/1.1/DTD/svg11.dtd"><svg class="icon" width="32px" height="32.00px" viewBox="0 0 1024 1024" version="1.1" xmlns="http://www.w3.org/2000/svg"><path d="M768 384v533.333333a42.666667 42.666667 0 0 1-42.56-39.466666L725.333333 874.666667a42.666667 42.666667 0 0 0-85.226666-3.2L640 874.666667a42.666667 42.666667 0 0 1-85.226667 3.2L554.666667 874.666667a42.666667 42.666667 0 0 0-85.226667-3.2L469.333333 874.666667a42.666667 42.666667 0 0 1-85.226666 3.2L384 874.666667a42.666667 42.666667 0 0 0-85.226667-3.2L298.666667 874.666667a42.666667 42.666667 0 0 1-39.466667 42.56L256 917.333333V384h512z m-106.666667 277.333333H362.666667a21.333333 21.333333 0 0 0-2.496 42.517334L362.666667 704h298.666666a21.333333 21.333333 0 0 0 0-42.666667z m192-533.333333a85.333333 85.333333 0 0 1 85.333334 85.333333v256a85.333333 85.333333 0 0 1-85.333334 85.333334h-42.666666v-170.666667h10.666666a32 32 0 0 0 0-64h-618.666666a32 32 0 0 0-3.072 63.850667L202.666667 384h10.666666v170.666667H170.666667a85.333333 85.333333 0 0 1-85.333334-85.333334V213.333333a85.333333 85.333333 0 0 1 85.333334-85.333333h682.666666z m-192 384H362.666667a21.333333 21.333333 0 0 0-2.496 42.517333L362.666667 554.666667h298.666666a21.333333 21.333333 0 0 0 0-42.666667z"  /></svg>