<?xml version="1.0" standalone="no"?><!DOCTYPE svg PUBLIC "-//W3C//DTD SVG 1.1//EN" "http://www.w3.org/Graphics/SVG/1.1/DTD/svg11.dtd"><svg class="icon" width="32px" height="32.00px" viewBox="0 0 1024 1024" version="1.1" xmlns="http://www.w3.org/2000/svg"><path d="M701.041778 455.111111a56.888889 56.888889 0 0 1 56.888889 56.888889 56.888889 56.888889 0 0 1-56.888889 56.888889 56.888889 56.888889 0 0 1-56.888889-56.888889 56.888889 56.888889 0 0 1 56.888889-56.888889z"  /><path d="M359.708444 455.111111a56.888889 56.888889 0 0 1 56.888889 56.888889 56.888889 56.888889 0 0 1-56.888889 56.888889 56.888889 56.888889 0 0 1-56.888888-56.888889 56.888889 56.888889 0 0 1 56.888888-56.888889z"  /><path d="M530.375111 910.165333H134.314667l-2.218667-36.352V512a398.222222 398.222222 0 1 1 398.222222 398.222222z m-329.955555-68.266666h329.955555a329.955556 329.955556 0 1 0-329.955555-329.955556z"  /><path d="M530.375111 455.111111a56.888889 56.888889 0 0 1 56.888889 56.888889 56.888889 56.888889 0 0 1-56.888889 56.888889 56.888889 56.888889 0 0 1-56.888889-56.888889 56.888889 56.888889 0 0 1 56.888889-56.888889z"  /></svg>