<?xml version="1.0" standalone="no"?><!DOCTYPE svg PUBLIC "-//W3C//DTD SVG 1.1//EN" "http://www.w3.org/Graphics/SVG/1.1/DTD/svg11.dtd"><svg class="icon" width="32px" height="32.00px" viewBox="0 0 1024 1024" version="1.1" xmlns="http://www.w3.org/2000/svg"><path d="M531.626667 915.228444a66.616889 66.616889 0 0 1-51.598223-24.462222L120.092444 484.181333a66.503111 66.503111 0 0 1-4.835555-74.296889l130.844444-269.027555a66.673778 66.673778 0 0 1 56.888889-32.142222h456.362667a66.787556 66.787556 0 0 1 57.173333 32.312889l1.308445 2.503111 130.844444 266.524444a66.673778 66.673778 0 0 1-5.688889 74.296889l-1.194666 1.479111-358.741334 404.935111a66.787556 66.787556 0 0 1-51.655111 24.462222z m-359.253334-472.177777l359.253334 405.731555 1.194666-1.479111 358.115556-404.252444-1.365333-2.503111-129.877334-264.988445H303.616z"  /><path d="M531.626667 668.16a53.930667 53.930667 0 0 1-41.472-20.195556L270.165333 400.156444l49.948445-44.316444 211.512889 238.933333 211.740444-238.933333 49.948445 44.316444-220.216889 247.808a53.930667 53.930667 0 0 1-41.472 20.195556z"  /></svg>