<?xml version="1.0" standalone="no"?><!DOCTYPE svg PUBLIC "-//W3C//DTD SVG 1.1//EN" "http://www.w3.org/Graphics/SVG/1.1/DTD/svg11.dtd"><svg class="icon" width="64px" height="64.00px" viewBox="0 0 1024 1024" version="1.1" xmlns="http://www.w3.org/2000/svg"><path d="M810.666667 170.666667a64 64 0 0 1 64 64v149.333333a64 64 0 0 1-64 64h-42.666667v341.333333a64 64 0 0 1-64 64H320a64 64 0 0 1-64-64V448h-42.666667a64 64 0 0 1-64-64v-149.333333a64 64 0 0 1 64-64h597.333334zM320 789.333333h384V341.333333H320v448z m320-106.666666v64H384v-64h256z m170.666667-448H213.333333v149.333333h42.666667v-106.666667h512v106.666667h42.666667v-149.333333z" /></svg>