<?xml version="1.0" standalone="no"?><!DOCTYPE svg PUBLIC "-//W3C//DTD SVG 1.1//EN" "http://www.w3.org/Graphics/SVG/1.1/DTD/svg11.dtd"><svg class="icon" width="32px" height="32.00px" viewBox="0 0 1024 1024" version="1.1" xmlns="http://www.w3.org/2000/svg"><path d="M701.64898 117.446531l2.194285 3.552653L778.741551 250.77551H815.020408a114.938776 114.938776 0 0 1 114.855184 110.320327L929.959184 365.714286v355.265306a114.938776 114.938776 0 0 1-110.320327 114.855184L815.020408 835.918367h-606.040816a114.938776 114.938776 0 0 1-114.855184-110.320326L94.040816 720.979592v-355.265306a114.938776 114.938776 0 0 1 110.320327-114.855184L208.979592 250.77551h123.109877l271.67347-156.839183a73.289143 73.289143 0 0 1 97.886041 23.531102zM815.020408 313.469388h-606.040816a52.244898 52.244898 0 0 0-52.140408 48.817632L156.734694 365.714286v355.265306a52.244898 52.244898 0 0 0 48.817633 52.140408L208.979592 773.22449h606.040816a52.244898 52.244898 0 0 0 52.140408-48.817633L867.265306 720.979592V668.734694h-177.632653a114.938776 114.938776 0 0 1-114.855184-110.320327L574.693878 553.795918a114.938776 114.938776 0 0 1 114.938775-114.938775H867.265306v-73.142857a52.244898 52.244898 0 0 0-52.244898-52.244898z m52.244898 188.081632h-177.632653a52.244898 52.244898 0 0 0-52.140408 48.817633L637.387755 553.795918a52.244898 52.244898 0 0 0 52.244898 52.244898H867.265306v-104.489796z m-156.734694 20.89796a31.346939 31.346939 0 1 1 0 62.693877 31.346939 31.346939 0 0 1 0-62.693877zM636.969796 147.706776l-1.734531 0.794122L458.041469 250.77551H706.35102l-56.821551-98.429388a10.490776 10.490776 0 0 0-12.580571-4.639346z"  /></svg>