<?xml version="1.0" standalone="no"?><!DOCTYPE svg PUBLIC "-//W3C//DTD SVG 1.1//EN" "http://www.w3.org/Graphics/SVG/1.1/DTD/svg11.dtd"><svg class="icon" width="32px" height="32.00px" viewBox="0 0 1024 1024" version="1.1" xmlns="http://www.w3.org/2000/svg"><path d="M256 319.402667V320h576a117.162667 117.162667 0 0 1 106.581333 112.021333l0.085334 4.714667V512h-25.92l-2.986667-0.426667-3.093333-0.170666h-213.333334l-4.714666 0.106666a117.333333 117.333333 0 0 0-112.512 112.384l-0.106667 4.842667 0.085333 4.714667a117.333333 117.333333 0 0 0 112.426667 112.533333l4.821333 0.085333H874.666667V746.666667h64v52.736a117.333333 117.333333 0 0 1-112.618667 117.248l-4.714667 0.085333h-618.666666a117.333333 117.333333 0 0 1-117.248-112.618667L85.333333 799.424v-362.666667a117.333333 117.333333 0 0 1 112.618667-117.248l4.714667-0.106666H256z m682.666667 256v106.666666H693.333333l-3.498666-0.106666a53.333333 53.333333 0 0 1-49.706667-49.706667L640 628.736l0.106667-3.498667 0.341333-3.456a53.333333 53.333333 0 0 1 49.386667-46.250666l3.498666-0.128H938.666667z m-224 21.333333a32 32 0 1 0 0 64 32 32 0 0 0 0-64z m-9.066667-413.418667l2.24 3.626667 52.16 90.368h-73.898667l-33.706666-58.368a10.709333 10.709333 0 0 0-12.842667-4.757333l-1.749333 0.810666-107.968 62.314667h-128.597334l204.416-117.994667a74.816 74.816 0 0 1 99.946667 24zM512 213.333333h192v64h-192v-64z"  /></svg>