<?xml version="1.0" standalone="no"?><!DOCTYPE svg PUBLIC "-//W3C//DTD SVG 1.1//EN" "http://www.w3.org/Graphics/SVG/1.1/DTD/svg11.dtd"><svg class="icon" width="32px" height="32.00px" viewBox="0 0 1024 1024" version="1.1" xmlns="http://www.w3.org/2000/svg"><path d="M885.824 597.333333c17.408 0 31.509333 14.336 31.509333 32 0 16.64-12.501333 30.293333-28.458666 31.850667L184.533333 661.333333l135.317334 137.365334c11.52 11.712 12.266667 30.250667 2.176 42.816l-2.154667 2.432a31.146667 31.146667 0 0 1-42.154667 2.218666l-2.410666-2.197333-153.258667-155.584a53.930667 53.930667 0 0 1 0-75.413333 52.16 52.16 0 0 1 32.96-15.466667L159.168 597.333333h726.656zM745.6 177.834667l2.389333 2.197333 153.898667 155.584a53.76 53.76 0 0 1 0 75.413333 52.458667 52.458667 0 0 1-33.088 15.466667l-4.181333 0.170667-729.386667-0.149334c-17.450667 0-28.565333-14.314667-28.565333-32C106.666667 377.877333 119.36 362.666667 135.253333 362.666667h703.893334l-135.872-137.365334a32.277333 32.277333 0 0 1-2.176-42.816l2.154666-2.432a31.36 31.36 0 0 1 42.346667-2.218666z"  /></svg>