<?xml version="1.0" standalone="no"?><!DOCTYPE svg PUBLIC "-//W3C//DTD SVG 1.1//EN" "http://www.w3.org/Graphics/SVG/1.1/DTD/svg11.dtd"><svg class="icon" width="32px" height="32.00px" viewBox="0 0 1024 1024" version="1.1" xmlns="http://www.w3.org/2000/svg"><path d="M512 85.333333c235.648 0 426.666667 191.018667 426.666667 426.666667s-191.018667 426.666667-426.666667 426.666667S85.333333 747.648 85.333333 512 276.352 85.333333 512 85.333333z m182.997333 243.669334a30.72 30.72 0 0 0-43.456 0l-139.52 139.52-139.562666-139.52a30.72 30.72 0 1 0-43.456 43.456l139.562666 139.52-139.562666 139.562666a30.72 30.72 0 1 0 43.456 43.456L512 555.434667l139.52 139.562666a30.72 30.72 0 1 0 43.456-43.456L555.477333 512l139.52-139.52a30.72 30.72 0 0 0 0-43.456z"  /></svg>