<?xml version="1.0" standalone="no"?><!DOCTYPE svg PUBLIC "-//W3C//DTD SVG 1.1//EN" "http://www.w3.org/Graphics/SVG/1.1/DTD/svg11.dtd"><svg class="icon" width="32px" height="32.00px" viewBox="0 0 1024 1024" version="1.1" xmlns="http://www.w3.org/2000/svg"><path d="M506.389333 106.773333l13.888 0.106667c182.357333 3.754667 339.754667 129.024 384.725334 306.133333H542.293333a127.658667 127.658667 0 0 0-90.538666 37.205334 128.213333 128.213333 0 0 0-37.717334 90.453333 122.453333 122.453333 0 0 0 91.413334 118.250667L917.333333 773.76v-52.970667l-398.613333-111.232a71.509333 71.509333 0 0 1-53.333333-69.056 76.970667 76.970667 0 0 1 76.906666-76.586666h372.138667c1.92 16.128 2.901333 32.490667 2.901333 49.066666v261.717334a121.386667 121.386667 0 0 1-47.317333 96.213333 120.874667 120.874667 0 0 1-104.96 20.992L230.826667 749.098667c-43.008-11.52-78.08-42.666667-94.72-84.010667A404.266667 404.266667 0 0 1 106.666667 512.341333 405.781333 405.781333 0 0 1 228.266667 222.357333a404.053333 404.053333 0 0 1 291.989333-115.562666h-13.866667z m49.045334 410.005334A28.949333 28.949333 0 0 0 512 542.016c0 10.368 5.504 19.946667 14.464 25.173333a28.949333 28.949333 0 0 0 43.52-25.173333c0-10.432-5.546667-20.053333-14.549333-25.237333z"  /></svg>