<?xml version="1.0" standalone="no"?><!DOCTYPE svg PUBLIC "-//W3C//DTD SVG 1.1//EN" "http://www.w3.org/Graphics/SVG/1.1/DTD/svg11.dtd"><svg class="icon" width="32px" height="32.00px" viewBox="0 0 1024 1024" version="1.1" xmlns="http://www.w3.org/2000/svg"><path d="M565.888 174.784c5.824 12.8 9.194667 26.56 9.941333 40.533333l0.170667 6.016v105.258667l253.013333 137.024 2.624 1.216a113.941333 113.941333 0 0 1 64.256 97.152l0.106667 4.992v236.330667l-0.085333 4.586666c-2.389333 59.306667-50.752 106.944-110.933334 109.354667L780.16 917.333333 576 917.312V917.333333H245.333333c-63.210667 0-114.773333-48.853333-117.248-110.037333L128 802.688V313.962667c0-43.626667 25.322667-83.306667 65.024-102.613334l4.650667-2.133333 213.333333-92.650667c59.221333-25.706667 128.554667 0.362667 154.88 58.218667zM576 397.589333v222.890667c3.349333-1.173333 6.933333-1.813333 10.666667-1.813333h128a32 32 0 0 1 0 64h-128c-3.733333 0-7.317333-0.64-10.666667-1.813334v174.272h204.181333l3.456-0.085333c26.325333-1.706667 47.36-22.4 49.066667-48.32l0.128-3.413333V566.976l-0.149333-3.818667a51.797333 51.797333 0 0 0-27.626667-41.856l-3.498667-1.685333-2.389333-1.173333L576 397.589333z m-135.616-223.786666l-3.370667 1.344-213.333333 92.224a51.946667 51.946667 0 0 0-31.530667 43.584L192 314.773333v486.698667c0 27.498667 22.016 50.005333 49.834667 51.754667L245.333333 853.333333H512V222.549333c0-4.352-0.554667-8.682667-1.664-12.885333l-1.28-4.138667-1.642667-4.053333c-11.477333-25.066667-40.896-36.949333-67.029333-27.648zM416 618.666667a32 32 0 0 1 0 64h-128a32 32 0 0 1 0-64h128z m0-170.666667a32 32 0 0 1 0 64h-128a32 32 0 0 1 0-64h128z"  /></svg>