<?xml version="1.0" standalone="no"?><!DOCTYPE svg PUBLIC "-//W3C//DTD SVG 1.1//EN" "http://www.w3.org/Graphics/SVG/1.1/DTD/svg11.dtd"><svg class="icon" width="32px" height="32.00px" viewBox="0 0 1024 1024" version="1.1" xmlns="http://www.w3.org/2000/svg"><path d="M576 917.333333h42.666667V349.696l210.346666 113.92 2.624 1.216a113.941333 113.941333 0 0 1 64.256 97.152l0.106667 4.992v236.330667l-0.085333 4.586666c-2.389333 59.306667-50.752 106.944-110.933334 109.354667L780.16 917.333333 576 917.312V917.333333H245.333333c-63.210667 0-114.773333-48.853333-117.248-110.037333L128 802.688V313.962667c0-43.626667 25.322667-83.306667 65.024-102.613334l4.650667-2.133333 213.333333-92.650667c59.221333-25.706667 128.554667 0.362667 154.88 58.218667 5.824 12.8 9.194667 26.56 9.941333 40.533333l0.170667 6.016V917.333333z m-160-298.666666h-128a32 32 0 0 0-3.072 63.850666L288 682.666667h128a32 32 0 0 0 0-64z m362.666667 0H682.666667v64h96a32 32 0 0 0 0-64z m-362.666667-170.666667h-128a32 32 0 0 0-3.072 63.850667L288 512h128a32 32 0 0 0 0-64z"  /></svg>