<?xml version="1.0" standalone="no"?><!DOCTYPE svg PUBLIC "-//W3C//DTD SVG 1.1//EN" "http://www.w3.org/Graphics/SVG/1.1/DTD/svg11.dtd"><svg class="icon" width="32px" height="32.00px" viewBox="0 0 1024 1024" version="1.1" xmlns="http://www.w3.org/2000/svg"><path d="M421.333333 542.229333a60.437333 60.437333 0 0 1 60.437334 60.437334v211.562666A60.437333 60.437333 0 0 1 421.333333 874.666667H209.770667A60.437333 60.437333 0 0 1 149.333333 814.229333V602.666667a60.437333 60.437333 0 0 1 60.437334-60.437334h211.562666z m392.896 0A60.437333 60.437333 0 0 1 874.666667 602.666667v211.562666A60.437333 60.437333 0 0 1 814.229333 874.666667H602.666667a60.437333 60.437333 0 0 1-60.437334-60.437334V602.666667a60.437333 60.437333 0 0 1 60.437334-60.437334h211.562666zM421.333333 149.333333a60.437333 60.437333 0 0 1 60.437334 60.437334v211.562666a60.437333 60.437333 0 0 1-60.437334 60.437334H209.770667A60.437333 60.437333 0 0 1 149.333333 421.333333V209.770667A60.437333 60.437333 0 0 1 209.770667 149.333333h211.562666z m287.104 0a166.229333 166.229333 0 1 1 0 332.437334 166.229333 166.229333 0 0 1 0-332.437334z"  /></svg>