<?xml version="1.0" standalone="no"?><!DOCTYPE svg PUBLIC "-//W3C//DTD SVG 1.1//EN" "http://www.w3.org/Graphics/SVG/1.1/DTD/svg11.dtd"><svg class="icon" width="32px" height="32.00px" viewBox="0 0 1024 1024" version="1.1" xmlns="http://www.w3.org/2000/svg"><path d="M395.733333 583.189333a32.042667 32.042667 0 0 1 42.88 47.509334L237.333333 832H394.666667l3.072 0.149333A32 32 0 0 1 394.666667 896h-234.666667l-3.072-0.149333A32 32 0 0 1 128 864v-234.666667l0.149333-3.072A32 32 0 0 1 160 597.333333l3.072 0.149334A32 32 0 0 1 192 629.333333v157.333334l201.301333-201.28z m189.653334 2.197334c11.733333-11.733333 30.293333-12.458667 42.88-2.197334l2.432 2.197334L832 786.666667V629.333333l0.149333-3.072a32 32 0 0 1 28.778667-28.8L864 597.333333l3.072 0.149334a32 32 0 0 1 28.8 28.778666L896 629.333333v234.666667l-0.149333 3.072a32 32 0 0 1-28.778667 28.8L864 896h-234.666667l-3.072-0.149333a32 32 0 0 1 0-63.701334L629.333333 832h157.333334l-201.28-201.301333-2.197334-2.432a32.042667 32.042667 0 0 1 2.197334-42.88zM394.666667 128a32 32 0 0 1 3.072 63.850667L394.666667 192h-157.333334l201.28 201.301333a32.042667 32.042667 0 0 1-42.88 47.509334l-2.432-2.197334L192 237.333333V394.666667a32 32 0 0 1-28.928 31.850666L160 426.666667a32 32 0 0 1-31.850667-28.928L128 394.666667v-234.666667a32 32 0 0 1 28.928-31.850667L160 128h234.666667z m469.333333 0l3.072 0.149333a32 32 0 0 1 28.8 28.778667L896 160v234.666667l-0.149333 3.072a32 32 0 0 1-28.778667 28.8L864 426.666667l-3.072-0.149334a32 32 0 0 1-28.8-28.778666L832 394.666667v-157.333334l-201.301333 201.28-2.432 2.197334a32.042667 32.042667 0 0 1-45.077334-45.077334l2.197334-2.432L786.666667 192H629.333333l-3.072-0.149333a32 32 0 0 1 0-63.701334L629.333333 128h234.666667z"  /></svg>