<?xml version="1.0" standalone="no"?><!DOCTYPE svg PUBLIC "-//W3C//DTD SVG 1.1//EN" "http://www.w3.org/Graphics/SVG/1.1/DTD/svg11.dtd"><svg class="icon" width="32px" height="32.00px" viewBox="0 0 1024 1024" version="1.1" xmlns="http://www.w3.org/2000/svg"><path d="M289.5 613.5a128 128 0 1 0 0 181 127.5 127.5 0 0 0 0-181z m-50.9 130.1a56 56 0 0 1-79.2 0 56.1 56.1 0 0 1 0-79.2 56 56 0 0 1 79.2 0 56.1 56.1 0 0 1 0 79.2zM515 338a128 128 0 1 0-90.5-37.5A127.5 127.5 0 0 0 515 338z m-39.6-167.6a56 56 0 0 1 79.2 0 56.1 56.1 0 0 1 0 79.2 56 56 0 0 1-79.2 0 56.1 56.1 0 0 1 0-79.2z m439.1 456.1a128 128 0 1 0 0 181 127.5 127.5 0 0 0 0-181z m-50.9 130.1a56 56 0 0 1-79.2 0 56.1 56.1 0 0 1 0-79.2 56 56 0 0 1 79.2 0 56.1 56.1 0 0 1 0 79.2zM136.2 514.2a201.1 201.1 0 0 1 63.3-10.2h1.8a4 4 0 0 0 3.9-3.3 311.5 311.5 0 0 1 86.2-163.3 314.5 314.5 0 0 1 42.1-35.4 3.9 3.9 0 0 0 1.3-5 200.9 200.9 0 0 1-18.3-62.9 4.1 4.1 0 0 0-6.1-3c-96.6 59.7-164.7 161-179.4 278.8a3.9 3.9 0 0 0 5.2 4.3z m573.4 366.5a198.2 198.2 0 0 1-26.5-22.3 208.3 208.3 0 0 1-20.1-23.3 3.8 3.8 0 0 0-5.1-1.2c-8 4.2-16.1 8.1-24.5 11.6a313 313 0 0 1-242.8 0 287.6 287.6 0 0 1-31.5-15.5 4.1 4.1 0 0 0-5.1 1 177.3 177.3 0 0 1-13.1 14.4 195.7 195.7 0 0 1-36.5 28.9 4 4 0 0 0 0 6.8 384.5 384.5 0 0 0 405 6.4 4.1 4.1 0 0 0 0.2-6.8z m-14.3-575.2a314 314 0 0 1 104.2 131.1 306.2 306.2 0 0 1 21.4 77.3 3.7 3.7 0 0 0 3.6 3.1 199.7 199.7 0 0 1 65.3 10.9 3.6 3.6 0 0 0 4.7-3.7c-10.6-121.5-77.7-226.7-174.9-289.3a3.6 3.6 0 0 0-5.5 2.6 200.7 200.7 0 0 1-19.8 63.4 3.6 3.6 0 0 0 1 4.6z" /></svg>