<?xml version="1.0" standalone="no"?><!DOCTYPE svg PUBLIC "-//W3C//DTD SVG 1.1//EN" "http://www.w3.org/Graphics/SVG/1.1/DTD/svg11.dtd"><svg class="icon" width="32px" height="32.00px" viewBox="0 0 1024 1024" version="1.1" xmlns="http://www.w3.org/2000/svg"><path d="M512 967.68c251.668 0 455.68-204.012 455.68-455.68S763.668 56.32 512 56.32 56.32 260.332 56.32 512 260.332 967.68 512 967.68z m0-71.68c-212.07 0-384-171.93-384-384s171.93-384 384-384 384 171.93 384 384-171.93 384-384 384z"  /><path d="M544.297 405.279a77.599 77.599 0 1 1 77.599 77.578 30.72 30.72 0 0 0 0 61.44c76.78 0 139.028-62.249 139.028-139.029S698.675 266.24 621.896 266.24s-139.039 62.249-139.039 139.028a30.72 30.72 0 0 0 61.44 0z m-61.44 213.217a77.588 77.588 0 0 1-155.177 0 77.588 77.588 0 0 1 77.588-77.599 30.72 30.72 0 0 0 0-61.44c-76.769 0-139.028 62.239-139.028 139.039 0 76.78 62.249 139.028 139.028 139.028 76.79 0 139.029-62.248 139.029-139.028a30.72 30.72 0 0 0-61.44 0z"  /><path d="M482.857 402.156V619.93h61.44V402.156z"  /></svg>