<?xml version="1.0" standalone="no"?><!DOCTYPE svg PUBLIC "-//W3C//DTD SVG 1.1//EN" "http://www.w3.org/Graphics/SVG/1.1/DTD/svg11.dtd"><svg class="icon" width="64px" height="64.00px" viewBox="0 0 1024 1024" version="1.1" xmlns="http://www.w3.org/2000/svg"><path d="M704 268v-56a4 4 0 0 0-4-4H324a4 4 0 0 0-4 4v56a4 4 0 0 0 4 4h376a4 4 0 0 0 4-4z m-380 76a4 4 0 0 0-4 4v56a4 4 0 0 0 4 4h304a4 4 0 0 0 4-4v-56a4 4 0 0 0-4-4z m160 136H324a4 4 0 0 0-4 4v56a4 4 0 0 0 4 4h160a4 4 0 0 0 4-4v-56a4 4 0 0 0-4-4z m-24 344H248V136h528v348a4 4 0 0 0 4 4h64a4 4 0 0 0 4-4V104a40 40 0 0 0-40-40H216a40 40 0 0 0-40 40v752a40 40 0 0 0 40 40h244a4 4 0 0 0 4-4v-64a4 4 0 0 0-4-4z m56-116h378.4a16 16 0 0 0 12.3-26.2L796.9 549.9c-9.6-11.4-28.3-4.7-28.3 10.3V644H516a4 4 0 0 0-4 4v56a4 4 0 0 0 4 4z m390.4 64H528a16 16 0 0 0-12.3 26.2l109.9 131.9c9.6 11.4 28.3 4.7 28.3-10.3V836h252.5a4 4 0 0 0 4-4v-56a4 4 0 0 0-4-4z" /></svg>