<?xml version="1.0" standalone="no"?><!DOCTYPE svg PUBLIC "-//W3C//DTD SVG 1.1//EN" "http://www.w3.org/Graphics/SVG/1.1/DTD/svg11.dtd"><svg class="icon" width="32px" height="32.00px" viewBox="0 0 1024 1024" version="1.1" xmlns="http://www.w3.org/2000/svg"><path d="M512 554.666667c83.2 0 166.4 11.626667 249.6 34.858666a183.829333 183.829333 0 0 1 134.4 177.066667V810.666667a85.333333 85.333333 0 0 1-85.333333 85.333333H213.333333a85.333333 85.333333 0 0 1-85.333333-85.333333v-44.096a183.829333 183.829333 0 0 1 134.4-177.066667C345.6 566.314667 428.8 554.666667 512 554.666667z m-0.064 42.666666c-20.245333 0-30.698667 7.104-31.36 21.333334L450.133333 776.704a21.333333 21.333333 0 0 0 5.674667 18.944l40.938667 42.026667a21.333333 21.333333 0 0 0 30.549333 0l40.96-42.026667a21.333333 21.333333 0 0 0 5.653333-18.944L543.402667 618.666667c-0.725333-14.229333-11.221333-21.333333-31.466667-21.333334zM512 106.666667c117.824 0 213.333333 95.509333 213.333333 213.333333s-95.509333 213.333333-213.333333 213.333333-213.333333-95.509333-213.333333-213.333333S394.176 106.666667 512 106.666667z"  /></svg>