<?xml version="1.0" standalone="no"?><!DOCTYPE svg PUBLIC "-//W3C//DTD SVG 1.1//EN" "http://www.w3.org/Graphics/SVG/1.1/DTD/svg11.dtd"><svg class="icon" width="32px" height="32.00px" viewBox="0 0 1024 1024" version="1.1" xmlns="http://www.w3.org/2000/svg"><path d="M693.333333 128A32 32 0 0 1 725.333333 160V192h74.666667a117.333333 117.333333 0 0 1 117.248 112.618667L917.333333 309.333333v448a117.333333 117.333333 0 0 1-112.618666 117.248L800 874.666667h-576a117.333333 117.333333 0 0 1-117.248-112.618667L106.666667 757.333333v-448a117.333333 117.333333 0 0 1 112.618666-117.248L224 192H298.666667V160a32 32 0 0 1 64 0V192h298.666666V160A32 32 0 0 1 693.333333 128zM853.333333 426.666667H170.666667v330.666666a53.333333 53.333333 0 0 0 49.834666 53.226667L224 810.666667h576a53.333333 53.333333 0 0 0 53.226667-49.834667L853.333333 757.333333V426.666667z m-554.666666-170.666667h-74.666667a53.333333 53.333333 0 0 0-53.226667 49.834667L170.666667 309.333333V362.666667h682.666666v-53.333334a53.333333 53.333333 0 0 0-49.834666-53.226666L800 256H725.333333v10.666667a32 32 0 0 1-64 0V256H362.666667v10.666667a32 32 0 0 1-64 0V256z"  /></svg>