<?xml version="1.0" standalone="no"?><!DOCTYPE svg PUBLIC "-//W3C//DTD SVG 1.1//EN" "http://www.w3.org/Graphics/SVG/1.1/DTD/svg11.dtd"><svg class="icon" width="32px" height="32.00px" viewBox="0 0 1024 1024" version="1.1" xmlns="http://www.w3.org/2000/svg"><path d="M693.333333 128A32 32 0 0 1 725.333333 160V192h74.666667a117.333333 117.333333 0 0 1 117.248 112.618667L917.333333 309.333333v448a117.333333 117.333333 0 0 1-117.333333 117.333334h-576A117.333333 117.333333 0 0 1 106.666667 757.333333v-448A117.333333 117.333333 0 0 1 224 192H298.666667V160a32 32 0 0 1 64 0V192h298.666666V160A32 32 0 0 1 693.333333 128zM298.666667 256h-74.666667A53.333333 53.333333 0 0 0 170.666667 309.333333v448a53.333333 53.333333 0 0 0 53.333333 53.333334h576a53.333333 53.333333 0 0 0 53.333333-53.333334v-448a53.333333 53.333333 0 0 0-53.333333-53.333333H725.333333v10.666667a32 32 0 0 1-64 0V256H362.666667v10.666667a32 32 0 0 1-64 0V256z m32 362.666667a32 32 0 0 1 0 64h-64a32 32 0 0 1 0-64h64z m213.333333 0a32 32 0 0 1 0 64h-64a32 32 0 0 1 0-64h64z m213.333333 0a32 32 0 0 1 0 64h-64a32 32 0 0 1 0-64h64z m-426.666666-192a32 32 0 0 1 0 64h-64a32 32 0 0 1 0-64h64z m213.333333 0a32 32 0 0 1 0 64h-64a32 32 0 0 1 0-64h64z m213.333333 0a32 32 0 0 1 0 64h-64a32 32 0 0 1 0-64h64z"  /></svg>