<?xml version="1.0" standalone="no"?><!DOCTYPE svg PUBLIC "-//W3C//DTD SVG 1.1//EN" "http://www.w3.org/Graphics/SVG/1.1/DTD/svg11.dtd"><svg class="icon" width="32px" height="32.00px" viewBox="0 0 1024 1024" version="1.1" xmlns="http://www.w3.org/2000/svg"><path d="M160 640a32 32 0 0 1 31.850667 28.928L192 672v118.848l0.128 3.221333a41.152 41.152 0 0 0 37.632 37.802667l3.392 0.128H352l3.072 0.149333a32 32 0 0 1 0 63.701334L352 896h-118.848l-4.565333-0.106667a105.152 105.152 0 0 1-100.48-100.352L128 790.848V672l0.149333-3.072A32 32 0 0 1 160 640z m704 0a32 32 0 0 1 31.850667 28.928L896 672v118.848a105.152 105.152 0 0 1-100.586667 105.045333l-4.565333 0.106667H672a32 32 0 0 1-3.072-63.850667L672 832h118.848a41.152 41.152 0 0 0 41.024-37.930667l0.128-3.2V672a32 32 0 0 1 32-32z m0-160a32 32 0 0 1 0 64h-704a32 32 0 0 1 0-64h704zM352 128a32 32 0 0 1 3.072 63.850667L352 192h-118.848a41.152 41.152 0 0 0-41.024 37.930667l-0.128 3.2V352a32 32 0 0 1-63.850667 3.072L128 352v-118.848a105.152 105.152 0 0 1 100.586667-105.045333L233.152 128H352z m438.848 0l4.565333 0.106667a105.152 105.152 0 0 1 100.48 100.352l0.106667 4.693333V352l-0.149333 3.072a32 32 0 0 1-63.701334 0L832 352v-118.848l-0.128-3.221333a41.152 41.152 0 0 0-37.632-37.802667L790.848 192H672l-3.072-0.149333a32 32 0 0 1 0-63.701334L672 128h118.848z"  /></svg>