<?xml version="1.0" standalone="no"?><!DOCTYPE svg PUBLIC "-//W3C//DTD SVG 1.1//EN" "http://www.w3.org/Graphics/SVG/1.1/DTD/svg11.dtd"><svg class="icon" width="64px" height="64.00px" viewBox="0 0 1024 1024" version="1.1" xmlns="http://www.w3.org/2000/svg"><path d="M708 665.5a54 54 0 1 0 54 54 54 54 0 0 0-54-54z m12-122H304a176 176 0 0 0 0 352h416a176 176 0 0 0 0-352z m0 280H304a104 104 0 0 1 0-208h416a104 104 0 0 1 0 208z m-404-465a54 54 0 1 0-54-54 54 54 0 0 0 54 54z m-12 122h416a176 176 0 0 0 0-352H304a176 176 0 0 0 0 352z m0-280h416a104 104 0 0 1 0 208H304a104 104 0 0 1 0-208z" /></svg>