<?xml version="1.0" standalone="no"?><!DOCTYPE svg PUBLIC "-//W3C//DTD SVG 1.1//EN" "http://www.w3.org/Graphics/SVG/1.1/DTD/svg11.dtd"><svg class="icon" width="32px" height="32.00px" viewBox="0 0 1024 1024" version="1.1" xmlns="http://www.w3.org/2000/svg"><path d="M947.6 575.6l-74.3-74.4a42.9 42.9 0 0 0-30.5-12.3 49.4 49.4 0 0 0-34.8 14.7l-279 279a50.1 50.1 0 0 0-13.8 25.5L488 942a16 16 0 0 0 15.6 19.2 12.4 12.4 0 0 0 3.3-0.4l133.9-27.1a50.9 50.9 0 0 0 25.4-13.8l279.1-279.1c18.6-18.6 19.7-47.9 2.3-65.2zM623.8 871.8l-58.7 11.9 11.9-58.6 184.2-184.2 46.8 46.7zM847.6 648l-46.8-46.7 41-41 46.8 46.7zM512 604c144.7 0 262-117.3 262-262S656.7 80 512 80 250 197.3 250 342a261.7 261.7 0 0 0 117.4 218.5c-140 57.4-239.3 195.4-239.3 355.5v25.5a4 4 0 0 0 4 4h64a4 4 0 0 0 4-4V916a307.1 307.1 0 0 1 24.6-120.9 315.1 315.1 0 0 1 166.4-166.5A307.9 307.9 0 0 1 512 604zM377.6 476.4A190.2 190.2 0 1 1 512 532a189.1 189.1 0 0 1-134.4-55.6z" /></svg>