<?xml version="1.0" standalone="no"?><!DOCTYPE svg PUBLIC "-//W3C//DTD SVG 1.1//EN" "http://www.w3.org/Graphics/SVG/1.1/DTD/svg11.dtd"><svg class="icon" width="32px" height="32.00px" viewBox="0 0 1024 1024" version="1.1" xmlns="http://www.w3.org/2000/svg"><path d="M744 251.1a40.1 40.1 0 0 0-31.3-15.1H640v-68a40 40 0 0 0-40-40H104a40 40 0 0 0-40 40v560a40 40 0 0 0 40 40h88a128 128 0 0 0 256 0h188a128 128 0 0 0 256 0h28a40 40 0 0 0 40-40V536.5a39.9 39.9 0 0 0-8.7-24.9zM697.3 308l95.5 120H640V308zM320 824a56 56 0 1 1 56-56 56 56 0 0 1-56 56z m248-128H425.8a127.9 127.9 0 0 0-211.6 0H136V200h432v496z m-120.1 67.6z m-0.3-5.5z m-0.4-4.4c0-0.3-0.1-0.6-0.1-1s0.1 0.7 0.1 1z m-0.7-5.3z m-0.7-4.3a2.9 2.9 0 0 1-0.2-0.9 2.9 2.9 0 0 0 0.2 0.9z m-1.1-5.2a0.1 0.1 0 0 0-0.1-0.1 0.1 0.1 0 0 1 0.1 0.1z m-1.1-4.2c-0.1-0.3-0.1-0.5-0.2-0.8s0.1 0.5 0.2 0.8z m-1.4-5a0.1 0.1 0 0 0-0.1-0.1 0.1 0.1 0 0 1 0.1 0.1z m-1.4-4.1a2.5 2.5 0 0 1-0.2-0.7 2.5 2.5 0 0 0 0.2 0.7z m-1.8-4.8z m-1.7-4.1l-0.2-0.5z m-4.1-8.5c-0.1-0.1-0.1-0.3-0.2-0.4s0.1 0.3 0.2 0.4z m-4.7-8.1l-0.2-0.3z m-236.4 63.5z m0.3-5.5z m0.4-4.4c0-0.3 0.1-0.6 0.1-1s-0.1 0.7-0.1 1z m0.7-5.3z m0.7-4.3a2.9 2.9 0 0 0 0.2-0.9 2.9 2.9 0 0 1-0.2 0.9z m1.1-5.2a0.1 0.1 0 0 1 0.1-0.1 0.1 0.1 0 0 0-0.1 0.1z m1.1-4.2c0.1-0.3 0.1-0.5 0.2-0.8s-0.1 0.5-0.2 0.8z m1.4-5a0.1 0.1 0 0 1 0.1-0.1 0.1 0.1 0 0 0-0.1 0.1z m1.4-4.1a2.5 2.5 0 0 0 0.2-0.7 2.5 2.5 0 0 1-0.2 0.7z m1.8-4.8z m1.7-4.1l0.2-0.5z m4.1-8.5c0.1-0.1 0.1-0.3 0.2-0.4s-0.1 0.3-0.2 0.4z m4.7-8.1l0.2-0.3zM764 824a56 56 0 1 1 56-56 56 56 0 0 1-56 56z m0-184a127.7 127.7 0 0 0-105.8 56H640V492h203.7l44.3 55.7V696h-18.2A127.7 127.7 0 0 0 764 640z m-123.6 94.7c0.1-0.3 0.1-0.5 0.2-0.8s-0.1 0.5-0.2 0.8z m1.4-5a0.1 0.1 0 0 1 0.1-0.1 0.1 0.1 0 0 0-0.1 0.1z m1.4-4.1a2.5 2.5 0 0 0 0.2-0.7 2.5 2.5 0 0 1-0.2 0.7z m1.8-4.8z m1.7-4.1l0.2-0.5z m4.1-8.5c0.1-0.1 0.1-0.3 0.2-0.4s-0.1 0.3-0.2 0.4z m4.7-8.1l0.2-0.3z m232.1 34.6c-0.1-0.3-0.1-0.5-0.2-0.8s0.1 0.5 0.2 0.8z m-1.4-5a0.1 0.1 0 0 0-0.1-0.1 0.1 0.1 0 0 1 0.1 0.1z m-1.4-4.1a2.5 2.5 0 0 1-0.2-0.7 2.5 2.5 0 0 0 0.2 0.7z m-1.8-4.8z m-1.7-4.1l-0.2-0.5z m-4.1-8.5c-0.1-0.1-0.1-0.3-0.2-0.4s0.1 0.3 0.2 0.4z m-4.7-8.1l-0.2-0.3z m19.4 62.4z m-3.3-23.7a0.1 0.1 0 0 1 0.1 0.1 0.1 0.1 0 0 0-0.1-0.1z m1 4.4a2.9 2.9 0 0 0 0.2 0.9 2.9 2.9 0 0 1-0.2-0.9z m0.9 5.1z m0.6 4.4c0 0.4 0.1 0.7 0.1 1s-0.1-0.6-0.1-1z m0.5 5.3z" /></svg>