<?xml version="1.0" standalone="no"?><!DOCTYPE svg PUBLIC "-//W3C//DTD SVG 1.1//EN" "http://www.w3.org/Graphics/SVG/1.1/DTD/svg11.dtd"><svg class="icon" width="32px" height="32.00px" viewBox="0 0 1024 1024" version="1.1" xmlns="http://www.w3.org/2000/svg"><path d="M552 593.8a44 44 0 1 0 44-44 44 44 0 0 0-44 44z m368-140h-88v-140a40 40 0 0 0-40-40H569.2l-82.9-143.6a40.2 40.2 0 0 0-54.7-14.7L150.8 277.7a39.9 39.9 0 0 0-22.8 36.1v560a40 40 0 0 0 40 40h624a40 40 0 0 0 40-40v-140h88a40 40 0 0 0 40-40v-200a40 40 0 0 0-40-40zM439.9 193.9l46.2 79.9H301.5zM760 841.8H200v-496h560v108H588a140 140 0 0 0 0 280h172z m136-172H588a76 76 0 0 1 0-152h308z" /></svg>