<?xml version="1.0" standalone="no"?><!DOCTYPE svg PUBLIC "-//W3C//DTD SVG 1.1//EN" "http://www.w3.org/Graphics/SVG/1.1/DTD/svg11.dtd"><svg class="icon" width="32px" height="32.00px" viewBox="0 0 1024 1024" version="1.1" xmlns="http://www.w3.org/2000/svg"><path d="M860 760H296.3a88 88 0 1 0 0 72H860a4 4 0 0 0 4-4v-64a4 4 0 0 0-4-4zM216 316a87.8 87.8 0 0 0 80.3-52H860a4 4 0 0 0 4-4v-64a4 4 0 0 0-4-4H296.3A88 88 0 1 0 216 316z m592 108a87.8 87.8 0 0 0-80.3 52H164a4 4 0 0 0-4 4v64a4 4 0 0 0 4 4h563.7A88 88 0 1 0 808 424z" /></svg>