<?xml version="1.0" standalone="no"?><!DOCTYPE svg PUBLIC "-//W3C//DTD SVG 1.1//EN" "http://www.w3.org/Graphics/SVG/1.1/DTD/svg11.dtd"><svg class="icon" width="32px" height="32.00px" viewBox="0 0 1024 1024" version="1.1" xmlns="http://www.w3.org/2000/svg"><path d="M864 704a32 32 0 0 1 31.850667 28.928L896 736v21.333333a117.333333 117.333333 0 0 1-112.618667 117.248L778.666667 874.666667h-533.333334a117.333333 117.333333 0 0 1-117.248-112.618667L128 757.333333v-21.333333a32 32 0 0 1 63.850667-3.072L192 736v21.333333a53.333333 53.333333 0 0 0 49.834667 53.226667L245.333333 810.666667h533.333334a53.333333 53.333333 0 0 0 53.226666-49.834667L832 757.333333v-21.333333a32 32 0 0 1 32-32zM512 149.333333c4.16 0 8.128 0.789333 11.776 2.24l0.32 0.106667c3.861333 1.514667 7.488 3.797333 10.624 6.826667L779.946667 394.88c12.544 12.16 12.544 31.893333 0 44.053333a32.853333 32.853333 0 0 1-45.44 0L544 255.424V714.666667a32 32 0 0 1-64 0V255.424l-190.464 183.509333a32.853333 32.853333 0 0 1-45.44 0 30.485333 30.485333 0 0 1 0-44.053333L489.258667 158.506667c3.157333-3.029333 6.805333-5.333333 10.688-6.848A32.213333 32.213333 0 0 1 512 149.333333z"  /></svg>