<?xml version="1.0" standalone="no"?><!DOCTYPE svg PUBLIC "-//W3C//DTD SVG 1.1//EN" "http://www.w3.org/Graphics/SVG/1.1/DTD/svg11.dtd"><svg class="icon" width="32px" height="32.00px" viewBox="0 0 1024 1024" version="1.1" xmlns="http://www.w3.org/2000/svg"><path d="M512 234.666667l320 170.666666v405.333334a85.333333 85.333333 0 0 1-85.333333 85.333333H277.333333a85.333333 85.333333 0 0 1-85.333333-85.333333V405.333333l320-170.666666z m0 149.333333a32 32 0 0 0-32 32v213.333333A32 32 0 0 0 512 661.333333h192a32 32 0 0 0 0-64h-160.021333l0.021333-181.333333a32 32 0 0 0-28.928-31.850667z m12.16-253.76l3.285333 1.493333 372.458667 209.408c16.021333 8.234667 22.101333 27.477333 13.568 42.944-8.021333 14.570667-26.133333 20.629333-41.6 14.421334l-2.858667-1.301334-356.992-201.450666-356.992 201.365333a33.557333 33.557333 0 0 1-42.837333-10.389333l-1.642667-2.645334a31.146667 31.146667 0 0 1 10.773334-41.386666l2.709333-1.578667 372.48-209.365333a33.898667 33.898667 0 0 1 27.648-1.493334z"  /></svg>