<?xml version="1.0" standalone="no"?><!DOCTYPE svg PUBLIC "-//W3C//DTD SVG 1.1//EN" "http://www.w3.org/Graphics/SVG/1.1/DTD/svg11.dtd"><svg class="icon" width="32px" height="32.00px" viewBox="0 0 1024 1024" version="1.1" xmlns="http://www.w3.org/2000/svg"><path d="M640 213.333333a42.666667 42.666667 0 0 0-39.466667-42.56L597.333333 170.666667h-170.666666a42.666667 42.666667 0 0 0-42.56 39.466666L384 213.333333v21.333334h-64v-21.333334a106.666667 106.666667 0 0 1 102.037333-106.56L426.666667 106.666667h170.666666a106.666667 106.666667 0 0 1 106.56 102.037333L704 213.333333v21.333334h149.333333a85.333333 85.333333 0 0 1 85.333334 85.333333v469.333333a85.333333 85.333333 0 0 1-85.333334 85.333334H170.666667a85.333333 85.333333 0 0 1-85.333334-85.333334V320a85.333333 85.333333 0 0 1 85.333334-85.333333h469.333333v-21.333334z m213.333333 170.666667H170.666667a21.333333 21.333333 0 0 0-2.496 42.517333L170.666667 426.666667h256v21.333333a42.666667 42.666667 0 0 0 39.466666 42.56L469.333333 490.666667h85.333334a42.666667 42.666667 0 0 0 42.56-39.466667L597.333333 448v-21.333333h256a21.333333 21.333333 0 0 0 2.496-42.517334L853.333333 384z"  /></svg>