<?xml version="1.0" standalone="no"?><!DOCTYPE svg PUBLIC "-//W3C//DTD SVG 1.1//EN" "http://www.w3.org/Graphics/SVG/1.1/DTD/svg11.dtd"><svg class="icon" width="32px" height="32.00px" viewBox="0 0 1024 1024" version="1.1" xmlns="http://www.w3.org/2000/svg"><path d="M618.666667 170.666667a32 32 0 0 1 3.072 63.850666L618.666667 234.666667H202.666667a53.333333 53.333333 0 0 0-53.226667 49.834666L149.333333 288.021333v448c0 8.533333 2.005333 16.64 5.589334 23.808l174.442666-174.442666a32 32 0 0 1 42.837334-2.197334l2.432 2.197334 85.312 85.333333 169.450666-150.613333a32 32 0 0 1 40.170667-1.92l2.474667 2.005333 2.304 2.304 199.936 219.946667 0.277333-3.2 0.106667-3.221334V490.666667l0.149333-3.072a32 32 0 0 1 63.701333 0L938.666667 490.666667v245.333333a117.333333 117.333333 0 0 1-112.618667 117.248l-4.714667 0.106667h-618.666666a117.333333 117.333333 0 0 1-117.248-112.64L85.333333 736.042667v-448a117.333333 117.333333 0 0 1 112.618667-117.248l4.714667-0.085334L618.666667 170.666667z m29.610666 418.282666l-142.997333 127.104 61.354667 61.333334c3.477333 3.498667 5.994667 7.594667 7.552 11.968H821.333333c2.88 0 5.717333-0.234667 8.490667-0.682667l-181.546667-199.722667zM352 653.269333L215.893333 789.333333h272.192L352 653.226667zM341.333333 298.666667a106.666667 106.666667 0 1 1 0 213.333333 106.666667 106.666667 0 0 1 0-213.333333zM789.333333 170.666667a32 32 0 0 1 32 32v85.312l85.333334 0.021333a32 32 0 0 1 0 64l-85.354667-0.021333 0.021333 85.354666a32 32 0 0 1-64 0l-0.021333-85.354666-85.312 0.021333a32 32 0 0 1 0-64l85.333333-0.021333V202.666667A32 32 0 0 1 789.333333 170.666667z m-448 192a42.666667 42.666667 0 1 0 0 85.333333 42.666667 42.666667 0 0 0 0-85.333333z"  /></svg>