<?xml version="1.0" standalone="no"?><!DOCTYPE svg PUBLIC "-//W3C//DTD SVG 1.1//EN" "http://www.w3.org/Graphics/SVG/1.1/DTD/svg11.dtd"><svg class="icon" width="32px" height="32.00px" viewBox="0 0 1024 1024" version="1.1" xmlns="http://www.w3.org/2000/svg"><path d="M512 106.666667a106.666667 106.666667 0 0 1 106.581333 102.378666L618.666667 213.333333h245.333333a32 32 0 0 1 0 64H789.333333v522.666667a117.333333 117.333333 0 0 1-112.618666 117.248L672 917.333333h-341.333333a117.333333 117.333333 0 0 1-117.248-112.618666L213.333333 800V277.333333H160a32 32 0 0 1 0-64H405.333333a106.666667 106.666667 0 0 1 106.666667-106.666666z m213.333333 170.666666H277.333333v522.666667a53.333333 53.333333 0 0 0 49.834667 53.226667L330.666667 853.333333h341.333333a53.333333 53.333333 0 0 0 53.226667-49.834666L725.333333 800V277.333333z m-309.333333 149.333334a32 32 0 0 1 32 32v234.666666a32 32 0 0 1-64 0v-234.666666a32 32 0 0 1 32-32z m170.666667 0a32 32 0 0 1 32 32v234.666666a32 32 0 0 1-64 0v-234.666666a32 32 0 0 1 32-32zM512 164.842667c-25.706667 0-46.72 20.010667-48.384 45.312l-0.106667 3.178666h96.981334A48.490667 48.490667 0 0 0 512 164.842667z"  /></svg>