<?xml version="1.0" standalone="no"?><!DOCTYPE svg PUBLIC "-//W3C//DTD SVG 1.1//EN" "http://www.w3.org/Graphics/SVG/1.1/DTD/svg11.dtd"><svg class="icon" width="32px" height="32.00px" viewBox="0 0 1024 1024" version="1.1" xmlns="http://www.w3.org/2000/svg"><path d="M512 106.666667a106.666667 106.666667 0 0 1 106.581333 102.378666L618.666667 213.333333h245.333333a32 32 0 0 1 0 64H789.333333v522.666667a117.333333 117.333333 0 0 1-112.618666 117.248L672 917.333333h-341.333333a117.333333 117.333333 0 0 1-117.248-112.618666L213.333333 800V277.333333H160a32 32 0 0 1 0-64H405.333333a106.666667 106.666667 0 0 1 106.666667-106.666666z m-96 320a32 32 0 0 0-32 32v234.666666a32 32 0 0 0 64 0v-234.666666a32 32 0 0 0-32-32z m170.666667 0a32 32 0 0 0-32 32v234.666666a32 32 0 0 0 64 0v-234.666666a32 32 0 0 0-32-32z"  /></svg>