<?xml version="1.0" standalone="no"?><!DOCTYPE svg PUBLIC "-//W3C//DTD SVG 1.1//EN" "http://www.w3.org/Graphics/SVG/1.1/DTD/svg11.dtd"><svg class="icon" width="32px" height="32.00px" viewBox="0 0 1024 1024" version="1.1" xmlns="http://www.w3.org/2000/svg"><path d="M853.333333 576a85.333333 85.333333 0 0 1 85.333334 85.333333v106.666667a85.333333 85.333333 0 0 1-85.333334 85.333333H170.666667a85.333333 85.333333 0 0 1-85.333334-85.333333v-106.666667a85.333333 85.333333 0 0 1 85.333334-85.333333h682.666666z m-288 106.666667h-106.666666a32 32 0 0 0-3.072 63.850666L458.666667 746.666667h106.666666a32 32 0 0 0 0-64zM853.333333 256a85.333333 85.333333 0 0 1 85.333334 85.333333v106.666667a85.333333 85.333333 0 0 1-85.333334 85.333333H170.666667a85.333333 85.333333 0 0 1-85.333334-85.333333v-106.666667a85.333333 85.333333 0 0 1 85.333334-85.333333h682.666666z m-288 106.666667h-106.666666a32 32 0 0 0-3.072 63.850666L458.666667 426.666667h106.666666a32 32 0 0 0 0-64z m167.317334-234.666667a85.333333 85.333333 0 0 1 60.352 25.002667L853.333333 213.333333H170.666667l60.330666-60.330666A85.333333 85.333333 0 0 1 291.349333 128h441.301334z"  /></svg>