<?xml version="1.0" standalone="no"?><!DOCTYPE svg PUBLIC "-//W3C//DTD SVG 1.1//EN" "http://www.w3.org/Graphics/SVG/1.1/DTD/svg11.dtd"><svg class="icon" width="64px" height="64.00px" viewBox="0 0 1024 1024" version="1.1" xmlns="http://www.w3.org/2000/svg"><path d="M395.946667 234.666667v64H256v469.333333h512V522.666667h64V768a64 64 0 0 1-64 64H256a64 64 0 0 1-64-64V298.666667a64 64 0 0 1 64-64h139.946667z m335.850666-87.914667l150.848 150.826667-158.378666 158.4-45.269334-45.248L748.394667 341.333333H672c-121.685333 0-220.714667 97.024-223.914667 217.941334L448 565.333333v85.333334h-64v-85.333334C384 406.272 512.938667 277.333333 672 277.333333h99.861333l-85.312-85.333333 45.248-45.248z" /></svg>