<?xml version="1.0" standalone="no"?><!DOCTYPE svg PUBLIC "-//W3C//DTD SVG 1.1//EN" "http://www.w3.org/Graphics/SVG/1.1/DTD/svg11.dtd"><svg class="icon" width="32px" height="32.00px" viewBox="0 0 1024 1024" version="1.1" xmlns="http://www.w3.org/2000/svg"><path d="M853.333333 170.666667a85.333333 85.333333 0 0 1 85.333334 85.333333v208.32a63.744 63.744 0 0 0-37.781334-16.128L896 448h-128a64 64 0 0 0-63.893333 60.245333L704 512v256h-128v42.666667h74.666667a32 32 0 0 1 0 64h-277.333334a32 32 0 0 1 0-64H448v-42.666667H170.666667a85.333333 85.333333 0 0 1-85.333334-85.333333V256a85.333333 85.333333 0 0 1 85.333334-85.333333h682.666666z m21.333334 320a42.666667 42.666667 0 0 1 42.666666 42.666666v298.666667a42.666667 42.666667 0 0 1-42.666666 42.666667h-85.333334a42.666667 42.666667 0 0 1-42.666666-42.666667V533.333333a42.666667 42.666667 0 0 1 42.666666-42.666666h85.333334z m-21.333334 277.333333h-42.666666a21.333333 21.333333 0 0 0-2.496 42.517333L810.666667 810.666667h42.666666a21.333333 21.333333 0 0 0 0-42.666667z"  /></svg>