<?xml version="1.0" standalone="no"?><!DOCTYPE svg PUBLIC "-//W3C//DTD SVG 1.1//EN" "http://www.w3.org/Graphics/SVG/1.1/DTD/svg11.dtd"><svg class="icon" width="32px" height="32.00px" viewBox="0 0 1024 1024" version="1.1" xmlns="http://www.w3.org/2000/svg"><path d="M512 85.333333c145.984 0 265.642667 112.810667 276.522667 256H906.666667a32 32 0 0 1 0 64H896l-54.656 437.248A85.333333 85.333333 0 0 1 756.650667 917.333333H267.349333a85.333333 85.333333 0 0 1-84.672-74.752L128 405.333333h-10.666667a32 32 0 0 1 0-64h118.144C246.357333 198.144 366.016 85.333333 512 85.333333z m-96 469.333334a32 32 0 0 0-32 32v149.333333a32 32 0 0 0 64 0v-149.333333a32 32 0 0 0-32-32z m192 0a32 32 0 0 0-32 32v149.333333a32 32 0 0 0 64 0v-149.333333a32 32 0 0 0-32-32zM512 146.965333c-111.936 0-203.946667 85.248-214.656 194.368h429.312C715.946667 232.213333 623.936 146.986667 512 146.986667z"  /></svg>