<?xml version="1.0" standalone="no"?><!DOCTYPE svg PUBLIC "-//W3C//DTD SVG 1.1//EN" "http://www.w3.org/Graphics/SVG/1.1/DTD/svg11.dtd"><svg class="icon" width="32px" height="32.00px" viewBox="0 0 1024 1024" version="1.1" xmlns="http://www.w3.org/2000/svg"><path d="M467.626667 199.253333a116.330667 116.330667 0 0 1 165.461333 12.906667A119.68 119.68 0 0 1 661.333333 289.472V734.506667C661.333333 800.149333 608.810667 853.333333 544 853.333333a116.48 116.48 0 0 1-76.373333-28.586666l-148.8-129.152H224c-63.210667 0-114.773333-50.624-117.248-114.026667L106.666667 576.789333v-129.578666c0-65.621333 52.522667-118.805333 117.333333-118.805334h94.805333z m335.274666 43.712C873.813333 304.832 917.333333 405.205333 917.333333 512c0 108.437333-42.944 207.936-114.709333 269.269333-14.890667 12.736-36.586667 10.090667-48.448-5.909333-11.861333-16-9.386667-39.317333 5.504-52.053333 54.997333-47.018667 88.682667-125.013333 88.682667-211.306667 0-84.693333-34.346667-163.882667-88.96-211.541333-14.784-12.906667-17.024-36.224-5.013334-52.117334 12.010667-15.872 33.728-18.282667 48.512-5.376z m-218.410666 11.349334a52.885333 52.885333 0 0 0-75.2-5.845334l-166.784 144.746667H224c-29.44 0-53.333333 24.170667-53.333333 53.973333v129.6c0 29.824 23.893333 54.016 53.333333 54.016h118.506667l166.784 144.725334c9.664 8.384 21.973333 13.013333 34.709333 13.013333 29.44 0 53.333333-24.192 53.333333-54.016V289.493333a54.4 54.4 0 0 0-12.842666-35.157333z"  /></svg>