<?xml version="1.0" standalone="no"?><!DOCTYPE svg PUBLIC "-//W3C//DTD SVG 1.1//EN" "http://www.w3.org/Graphics/SVG/1.1/DTD/svg11.dtd"><svg class="icon" width="32px" height="32.00px" viewBox="0 0 1024 1024" version="1.1" xmlns="http://www.w3.org/2000/svg"><path d="M666.325333 128a118.101333 118.101333 0 0 1 102.208 58.816l154.325334 266.368a117.290667 117.290667 0 0 1 0 117.632l-154.325334 266.368A118.101333 118.101333 0 0 1 666.325333 896H357.674667a118.101333 118.101333 0 0 1-102.208-58.816L101.12 570.816a117.290667 117.290667 0 0 1 0-117.632l154.325333-266.368A118.101333 118.101333 0 0 1 357.674667 128z m0 64.170667H357.674667c-19.157333 0-36.864 10.176-46.464 26.730666L156.906667 485.269333c-9.6 16.533333-9.6 36.906667 0 53.461334l154.304 266.368a53.696 53.696 0 0 0 46.464 26.730666h308.650666c19.157333 0 36.864-10.176 46.464-26.730666l154.304-266.368c9.6-16.533333 9.6-36.906667 0-53.461334L712.789333 218.88a53.696 53.696 0 0 0-46.464-26.730667zM512 362.666667a149.333333 149.333333 0 1 1 0 298.666666 149.333333 149.333333 0 0 1 0-298.666666z m0 64a85.333333 85.333333 0 1 0 0 170.666666 85.333333 85.333333 0 0 0 0-170.666666z"  /></svg>