<?xml version="1.0" standalone="no"?><!DOCTYPE svg PUBLIC "-//W3C//DTD SVG 1.1//EN" "http://www.w3.org/Graphics/SVG/1.1/DTD/svg11.dtd"><svg class="icon" width="32px" height="32.00px" viewBox="0 0 1024 1024" version="1.1" xmlns="http://www.w3.org/2000/svg"><path d="M512 106.666667c87.978667 0 161.130667 64.469333 176 149.376 58.218667 1.066667 106.453333 45.888 112.832 104.32l0.426667 4.906666 30.464 426.666667c4.394667 64.64-43.712 120.661333-107.456 125.12l-3.968 0.213333-3.989334 0.064H307.669333C243.797333 917.333333 192 864.810667 192 800l0.064-4.053333 0.213333-4.010667 30.464-426.666667c4.053333-59.904 51.968-106.752 110.613334-109.162666l2.624-0.064 1.045333-5.397334C353.984 168.426667 425.877333 106.666667 512 106.666667z m173.866667 213.333333h-347.733334c-26.474667 0-48.64 19.925333-52.096 46.208l-0.362666 3.456-30.549334 428.501333-0.021333 1.834667c0 28.266667 21.696 51.413333 49.109333 53.226667l3.456 0.106666h408.64l3.626667-0.128c27.818667-1.941333 49.066667-25.493333 48.96-53.376l-0.128-3.498666-30.464-426.666667C736.426667 341.717333 713.493333 320 685.866667 320zM437.333333 405.333333a32 32 0 1 1 0 64 32 32 0 0 1 0-64z m149.333334 0a32 32 0 1 1 0 64 32 32 0 0 1 0-64zM512 170.666667c-52.949333 0-97.6 36.096-111.317333 85.333333h222.634666C609.6 206.784 564.949333 170.666667 512 170.666667z"  /></svg>