<?xml version="1.0" standalone="no"?><!DOCTYPE svg PUBLIC "-//W3C//DTD SVG 1.1//EN" "http://www.w3.org/Graphics/SVG/1.1/DTD/svg11.dtd"><svg class="icon" width="32px" height="32.00px" viewBox="0 0 1024 1024" version="1.1" xmlns="http://www.w3.org/2000/svg"><path d="M512 106.666667c87.978667 0 161.130667 64.469333 176 149.376 58.218667 1.066667 106.453333 45.888 112.832 104.32l0.426667 4.906666 30.464 426.666667c4.394667 64.64-43.712 120.661333-107.456 125.12l-3.968 0.213333-3.989334 0.064H307.669333C243.797333 917.333333 192 864.810667 192 800l0.064-4.053333 0.213333-4.010667 30.464-426.666667c4.053333-59.904 51.968-106.752 110.613334-109.162666l2.624-0.064 1.045333-5.397334C353.984 168.426667 425.877333 106.666667 512 106.666667z m-74.666667 298.666666a32 32 0 1 0 0 64 32 32 0 0 0 0-64z m149.333334 0a32 32 0 1 0 0 64 32 32 0 0 0 0-64zM512 170.666667c-52.949333 0-97.6 36.096-111.317333 85.333333h222.634666C609.6 206.784 564.949333 170.666667 512 170.666667z"  /></svg>