<?xml version="1.0" standalone="no"?><!DOCTYPE svg PUBLIC "-//W3C//DTD SVG 1.1//EN" "http://www.w3.org/Graphics/SVG/1.1/DTD/svg11.dtd"><svg class="icon" width="64px" height="64.00px" viewBox="0 0 1024 1024" version="1.1" xmlns="http://www.w3.org/2000/svg"><path d="M887.8 246H304.1l-4.6-91.6L298 124a40 40 0 0 0-39.9-38H100.2a4 4 0 0 0-4 4v64a4 4 0 0 0 4 4h127.4l22.7 451.6 7.1 142.4c0 0.7 0.1 1.4 0.1 2.1l0.2 3.5A110 110 0 1 0 445.4 790h213.5a110 110 0 1 0 213.3 38 109.4 109.4 0 0 0-32.5-78l87.4-456.5a40 40 0 0 0-39.3-47.5zM342.2 866a38 38 0 1 1 38-38 38 38 0 0 1-38 38z m420 0a38 38 0 1 1 38-38 38 38 0 0 1-38 38z m10.3-148H327.8l-5.6-112-14.3-288h541.2z m-352.3-72h248a4 4 0 0 0 4-4v-64a4 4 0 0 0-4-4h-248a4 4 0 0 0-4 4v64a4 4 0 0 0 4 4z" /></svg>