<?xml version="1.0" standalone="no"?><!DOCTYPE svg PUBLIC "-//W3C//DTD SVG 1.1//EN" "http://www.w3.org/Graphics/SVG/1.1/DTD/svg11.dtd"><svg class="icon" width="32px" height="32.00px" viewBox="0 0 1024 1024" version="1.1" xmlns="http://www.w3.org/2000/svg"><path d="M437.482667 134.784a112.810667 112.810667 0 0 1 149.034666 0l256.021334 205.717333A94.613333 94.613333 0 0 1 874.666667 411.648v390.613333C874.666667 865.813333 823.722667 917.333333 760.896 917.333333H263.104C200.277333 917.333333 149.333333 865.813333 149.333333 802.261333v-390.613333c0-27.306667 11.733333-53.269333 32.128-71.146667z m108.373333 47.424a51.285333 51.285333 0 0 0-67.733333 0l-256.021334 205.717333c-6.805333 5.973333-10.709333 14.613333-10.709333 23.722667v390.613333c0 28.885333 23.146667 52.309333 51.712 52.309334h497.792c28.565333 0 51.712-23.424 51.712-52.309334v-390.613333c0-9.109333-3.904-17.749333-10.709333-23.722667zM608 640a32 32 0 0 1 0 64h-192a32 32 0 0 1 0-64h192z"  /></svg>