<?xml version="1.0" standalone="no"?><!DOCTYPE svg PUBLIC "-//W3C//DTD SVG 1.1//EN" "http://www.w3.org/Graphics/SVG/1.1/DTD/svg11.dtd"><svg class="icon" width="32px" height="32.00px" viewBox="0 0 1024 1024" version="1.1" xmlns="http://www.w3.org/2000/svg"><path d="M706.986667 106.666667a85.333333 85.333333 0 0 1 85.333333 85.333333l-0.021333 355.626667h59.562666a42.666667 42.666667 0 0 1 29.461334 11.84l2.56 2.624a42.666667 42.666667 0 0 1-1.173334 57.685333l-2.645333 2.56-311.658667 274.56a85.333333 85.333333 0 0 1-109.312 2.944l-3.498666-2.944-311.658667-274.56a42.666667 42.666667 0 0 1 25.024-74.581333l3.2-0.128h59.52V192a85.333333 85.333333 0 0 1 85.333333-85.333333h389.973334z m-96.490667 215.786666a32 32 0 0 0-41.685333 2.069334l-59.221334 56.234666-59.178666-56.234666a32 32 0 0 0-44.074667 0l-0.853333 0.789333a29.952 29.952 0 0 0 0 43.456l40.106666 38.08h-32.234666a30.72 30.72 0 0 0 0 61.44h66.304v40.96h-44.757334a30.72 30.72 0 0 0 0 61.44h44.736v49.941333a32 32 0 0 0 32 32h0.704a32 32 0 0 0 32-32v-49.92h44.757334a30.72 30.72 0 0 0 0-61.44l-44.778667-0.021333 0.021333-40.96h66.304a30.72 30.72 0 1 0 0-61.44h-37.034666l40.106666-38.08 2.133334-2.218667a29.973333 29.973333 0 0 0-2.133334-41.237333l-0.832-0.789333z"  /></svg>