<?xml version="1.0" standalone="no"?><!DOCTYPE svg PUBLIC "-//W3C//DTD SVG 1.1//EN" "http://www.w3.org/Graphics/SVG/1.1/DTD/svg11.dtd"><svg class="icon" width="32px" height="32.00px" viewBox="0 0 1024 1024" version="1.1" xmlns="http://www.w3.org/2000/svg"><path d="M631.936 584.042667c43.242667 5.802667 86.464 14.741333 129.685333 26.816a183.829333 183.829333 0 0 1 134.378667 177.066666V832a85.333333 85.333333 0 0 1-85.333333 85.333333H213.333333a85.333333 85.333333 0 0 1-85.333333-85.333333v-44.096a183.829333 183.829333 0 0 1 134.4-177.066667 958.506667 958.506667 0 0 1 111.146667-24.106666l18.538666-2.688 89.749334 89.792c7.893333 7.893333 18.112 12.032 28.437333 12.458666h3.456l3.434667-0.277333a42.474667 42.474667 0 0 0 25.002666-12.181333l89.770667-89.792z m22.336 68.16l-66.837333 66.88a106.666667 106.666667 0 0 1-147.008 3.669333l-3.84-3.669333-66.88-66.88-3.648 0.64c-23.04 4.032-46.08 9.024-69.162667 14.997333l-17.28 4.650667a119.829333 119.829333 0 0 0-87.509333 110.229333L192 787.904V832a21.333333 21.333333 0 0 0 18.837333 21.184L213.333333 853.333333h597.333334a21.333333 21.333333 0 0 0 21.184-18.837333L832 832v-44.096a119.829333 119.829333 0 0 0-87.594667-115.413333 900.629333 900.629333 0 0 0-86.442666-19.669334l-3.690667-0.618666zM512 128c117.824 0 213.333333 95.509333 213.333333 213.333333 0 115.84-92.309333 210.090667-207.36 213.248L512 554.666667c-117.824 0-213.333333-95.509333-213.333333-213.333334 0-115.84 92.309333-210.090667 207.36-213.248L512 128z m0 64a149.333333 149.333333 0 1 0 0 298.666667 149.333333 149.333333 0 0 0 0-298.666667z"  /></svg>