<?xml version="1.0" standalone="no"?><!DOCTYPE svg PUBLIC "-//W3C//DTD SVG 1.1//EN" "http://www.w3.org/Graphics/SVG/1.1/DTD/svg11.dtd"><svg class="icon" width="32px" height="32.00px" viewBox="0 0 1024 1024" version="1.1" xmlns="http://www.w3.org/2000/svg"><path d="M956.8 502.4C918.9 452.3 734.2 224 512 224S105.1 452.3 67.2 502.4a15.9 15.9 0 0 0 0 19.2C105.1 571.7 289.8 800 512 800s406.9-228.3 444.8-278.4a15.9 15.9 0 0 0 0-19.2zM758.4 623.5c-39.7 31.9-79.4 57-118.1 74.4-44.2 20-87.4 30.1-128.3 30.1s-84.1-10.1-128.3-30.1c-38.7-17.4-78.4-42.5-118.1-74.4-48.7-39.2-88.3-81.7-113.7-111.5 25.4-29.8 65-72.3 113.7-111.5 39.7-31.9 79.4-57 118.1-74.4 44.2-20 87.4-30.1 128.3-30.1s84.1 10.1 128.3 30.1c38.7 17.4 78.4 42.5 118.1 74.4 48.7 39.2 88.3 81.7 113.7 111.5-25.4 29.8-65 72.3-113.7 111.5zM513 384a128 128 0 1 0 128 128 128 128 0 0 0-128-128z m0 192a64 64 0 1 1 64-64 64.1 64.1 0 0 1-64 64z" /></svg>