<?xml version="1.0" standalone="no"?><!DOCTYPE svg PUBLIC "-//W3C//DTD SVG 1.1//EN" "http://www.w3.org/Graphics/SVG/1.1/DTD/svg11.dtd"><svg class="icon" width="64px" height="64.00px" viewBox="0 0 1024 1024" version="1.1" xmlns="http://www.w3.org/2000/svg"><path d="M512.054613 234.040889a494.933333 494.933333 0 0 0-299.918222 130.161778 823.352889 823.352889 0 0 0-132.949333 140.856889 886.272 886.272 0 0 0 130.389333 140.288A491.349333 491.349333 0 0 0 512.054613 780.174222a494.193778 494.193778 0 0 0 302.990223-139.605333 994.133333 994.133333 0 0 0 124.359111-131.811556 1035.377778 1035.377778 0 0 0-133.916445-141.596444A461.653333 461.653333 0 0 0 512.054613 234.040889m0-68.266667c282.737778 0 508.757333 339.854222 512 341.333334s-229.205333 341.333333-512 341.333333-507.847111-321.479111-512-341.333333 229.432889-341.333333 512-341.333334zM511.997724 677.774222a170.666667 170.666667 0 0 1-170.666666-170.666666 170.666667 170.666667 0 0 1 170.666666-170.666667 170.666667 170.666667 0 0 1 170.666667 170.666667 170.666667 170.666667 0 0 1-170.666667 170.666666z m0-273.066666a102.4 102.4 0 0 0-102.4 102.4 102.4 102.4 0 0 0 102.4 102.4 102.4 102.4 0 0 0 102.4-102.4 102.4 102.4 0 0 0-102.4-102.456889z" /></svg>