<?xml version="1.0" standalone="no"?><!DOCTYPE svg PUBLIC "-//W3C//DTD SVG 1.1//EN" "http://www.w3.org/Graphics/SVG/1.1/DTD/svg11.dtd"><svg class="icon" width="32px" height="32.00px" viewBox="0 0 1024 1024" version="1.1" xmlns="http://www.w3.org/2000/svg"><path d="M563.050667 865.706667c-11.690667 11.946667-30.613333 11.946667-42.282667 0a31.146667 31.146667 0 0 1 0-43.306667l295.765333-302.933333a10.666667 10.666667 0 0 0 0-14.933334L520.768 201.6a31.146667 31.146667 0 0 1 0-43.306667 29.397333 29.397333 0 0 1 42.282667 0l324.181333 332.053334a31.146667 31.146667 0 0 1 0 43.306666L563.050667 865.706667z"  /><path d="M179.050667 865.706667c-11.690667 11.946667-30.613333 11.946667-42.282667 0a31.146667 31.146667 0 0 1 0-43.306667l295.765333-302.933333a10.666667 10.666667 0 0 0 0-14.933334L136.768 201.6a31.146667 31.146667 0 0 1 0-43.306667 29.397333 29.397333 0 0 1 42.282667 0l324.181333 332.053334a31.146667 31.146667 0 0 1 0 43.306666L179.050667 865.706667z"  /></svg>