<?xml version="1.0" standalone="no"?><!DOCTYPE svg PUBLIC "-//W3C//DTD SVG 1.1//EN" "http://www.w3.org/Graphics/SVG/1.1/DTD/svg11.dtd"><svg class="icon" width="32px" height="32.00px" viewBox="0 0 1024 1024" version="1.1" xmlns="http://www.w3.org/2000/svg"><path d="M460.949333 865.706667c11.690667 11.946667 30.613333 11.946667 42.282667 0a31.146667 31.146667 0 0 0 0-43.306667L207.466667 519.466667a10.666667 10.666667 0 0 1 0-14.933334l295.765333-302.933333a31.146667 31.146667 0 0 0 0-43.306667 29.397333 29.397333 0 0 0-42.282667 0L136.768 490.346667a31.146667 31.146667 0 0 0 0 43.306666L460.949333 865.706667z"  /><path d="M844.949333 865.706667c11.690667 11.946667 30.613333 11.946667 42.282667 0a31.146667 31.146667 0 0 0 0-43.306667l-295.765333-302.933333a10.666667 10.666667 0 0 1 0-14.933334l295.765333-302.933333a31.146667 31.146667 0 0 0 0-43.306667 29.397333 29.397333 0 0 0-42.282667 0L520.768 490.346667a31.146667 31.146667 0 0 0 0 43.306666L844.949333 865.706667z"  /></svg>