<?xml version="1.0" standalone="no"?><!DOCTYPE svg PUBLIC "-//W3C//DTD SVG 1.1//EN" "http://www.w3.org/Graphics/SVG/1.1/DTD/svg11.dtd"><svg class="icon" width="32px" height="32.00px" viewBox="0 0 1024 1024" version="1.1" xmlns="http://www.w3.org/2000/svg"><path d="M882.688 395.690667l42.133333-11.306667a10.986667 10.986667 0 0 1 13.056 14.762667l-36.864 92.096a32.96 32.96 0 0 1-50.986666 13.696l-77.824-61.290667a11.050667 11.050667 0 0 1 3.946666-19.306667l46.336-12.458666c-49.706667-161.664-223.552-256.533333-392.746666-212.608-172.16 44.693333-274.325333 216.170667-228.181334 382.997333 46.122667 166.826667 223.082667 265.813333 395.221334 221.12 16.661333-4.330667 33.792 5.248 38.250666 21.397333 4.48 16.149333-5.418667 32.746667-22.08 37.077334C407.466667 915.2 196.266667 797.056 141.226667 597.930667 86.165333 398.826667 208.106667 194.154667 413.568 140.8c202.346667-52.522667 410.24 61.269333 469.12 254.890667z"  /></svg>