<?xml version="1.0" standalone="no"?><!DOCTYPE svg PUBLIC "-//W3C//DTD SVG 1.1//EN" "http://www.w3.org/Graphics/SVG/1.1/DTD/svg11.dtd"><svg class="icon" width="32px" height="32.00px" viewBox="0 0 1024 1024" version="1.1" xmlns="http://www.w3.org/2000/svg"><path d="M309.8 595.7a4.1 4.1 0 0 0 5.7-0.3l86.9-96.9a4 4 0 0 1 5.8-0.2L520.4 611a16.2 16.2 0 0 0 22.7 0l221.7-222.6a3.9 3.9 0 0 0 0-5.6l-39.6-39.6a4.2 4.2 0 0 0-5.7 0L534.6 528.8a4 4 0 0 1-5.7 0L405.8 405.2a4.1 4.1 0 0 0-5.9 0.1L267.8 552.7a4 4 0 0 0 0.4 5.6zM732 688H292a4 4 0 0 0-4 4v56a4 4 0 0 0 4 4h440a4 4 0 0 0 4-4v-56a4 4 0 0 0-4-4z m124-560H168a40 40 0 0 0-40 40v688a40 40 0 0 0 40 40h688a40 40 0 0 0 40-40V168a40 40 0 0 0-40-40z m-32 696H200V200h624z" /></svg>