<?xml version="1.0" standalone="no"?><!DOCTYPE svg PUBLIC "-//W3C//DTD SVG 1.1//EN" "http://www.w3.org/Graphics/SVG/1.1/DTD/svg11.dtd"><svg class="icon" width="32px" height="32.00px" viewBox="0 0 1024 1024" version="1.1" xmlns="http://www.w3.org/2000/svg"><path d="M746.666667 128a170.666667 170.666667 0 0 1 170.666666 170.666667v426.666666a170.666667 170.666667 0 0 1-170.666666 170.666667H277.333333a170.666667 170.666667 0 0 1-170.666666-170.666667V298.666667a170.666667 170.666667 0 0 1 170.666666-170.666667h469.333334zM320 426.666667a32 32 0 0 0-32 32v277.333333a32 32 0 0 0 64 0v-277.333333A32 32 0 0 0 320 426.666667z m384 85.333333a32 32 0 0 0-32 32v192a32 32 0 0 0 64 0v-192A32 32 0 0 0 704 512z m-192-256a32 32 0 0 0-32 32v448a32 32 0 0 0 64 0v-448A32 32 0 0 0 512 256z"  /></svg>