<?xml version="1.0" standalone="no"?><!DOCTYPE svg PUBLIC "-//W3C//DTD SVG 1.1//EN" "http://www.w3.org/Graphics/SVG/1.1/DTD/svg11.dtd"><svg class="icon" width="32px" height="32.00px" viewBox="0 0 1024 1024" version="1.1" xmlns="http://www.w3.org/2000/svg"><path d="M490.666667 170.666667a21.333333 21.333333 0 0 1 21.333333 21.333333v298.794667c0 23.488 19.093333 42.538667 42.538667 42.538666H853.333333a21.333333 21.333333 0 0 1 21.333334 21.333334c0 212.074667-171.925333 384-384 384S106.666667 766.741333 106.666667 554.666667 278.592 170.666667 490.666667 170.666667z m103.296-42.666667C772.565333 128 917.333333 272.768 917.333333 451.370667a17.962667 17.962667 0 0 1-18.005333 17.962666H618.666667a42.666667 42.666667 0 0 1-42.666667-42.666666V145.962667c0-9.92 8.042667-17.962667 17.962667-17.962667z"  /></svg>