<?xml version="1.0" standalone="no"?><!DOCTYPE svg PUBLIC "-//W3C//DTD SVG 1.1//EN" "http://www.w3.org/Graphics/SVG/1.1/DTD/svg11.dtd"><svg class="icon" width="32px" height="32.00px" viewBox="0 0 1024 1024" version="1.1" xmlns="http://www.w3.org/2000/svg"><path d="M583.2 64a4.1 4.1 0 0 0-4.2 4.1V444a4 4 0 0 0 4 4h375.8a4.2 4.2 0 0 0 4.2-4.2C960.8 235 792 66.2 583.2 64zM643 384V134.4a310.4 310.4 0 0 1 62.1 19.4 320.7 320.7 0 0 1 168.1 168.1 312.5 312.5 0 0 1 19.4 62.1z m310 128h-64a4 4 0 0 0-4 4c-1.1 103.2-43.5 199.9-119.5 270.9A375.7 375.7 0 0 1 505.7 888c-98.1-0.9-190.3-39-260.2-107.8A376.2 376.2 0 0 1 133.2 525c-3.5-105.3 35.9-204.8 109.9-278.9A373.4 373.4 0 0 1 505 136a4 4 0 0 0 4-4V68a4 4 0 0 0-4-4 448.3 448.3 0 1 0 452 452 4 4 0 0 0-4-4z" /></svg>