<?xml version="1.0" standalone="no"?><!DOCTYPE svg PUBLIC "-//W3C//DTD SVG 1.1//EN" "http://www.w3.org/Graphics/SVG/1.1/DTD/svg11.dtd"><svg class="icon" width="64px" height="64.00px" viewBox="0 0 1024 1024" version="1.1" xmlns="http://www.w3.org/2000/svg"><path d="M856 128H588a40 40 0 0 0-40 40v544a40 40 0 0 0 40 40h268a40 40 0 0 0 40-40V168a40 40 0 0 0-40-40z m-32 552H620V200h204z m68 144H552a4 4 0 0 0-4 4v28a40 40 0 0 0 40 40h268a40 40 0 0 0 40-40v-28a4 4 0 0 0-4-4zM436 272H168a40 40 0 0 0-40 40v544a40 40 0 0 0 40 40h268a40 40 0 0 0 40-40V312a40 40 0 0 0-40-40z m-32 552H200V344h204z m32-696H168a40 40 0 0 0-40 40v28a4 4 0 0 0 4 4h340a4 4 0 0 0 4-4v-28a40 40 0 0 0-40-40z" /></svg>