<?xml version="1.0" standalone="no"?><!DOCTYPE svg PUBLIC "-//W3C//DTD SVG 1.1//EN" "http://www.w3.org/Graphics/SVG/1.1/DTD/svg11.dtd"><svg class="icon" width="32px" height="32.00px" viewBox="0 0 1024 1024" version="1.1" xmlns="http://www.w3.org/2000/svg"><path d="M435.825778 486.684444H284.273778a186.595556 186.595556 0 1 1 186.652444-186.595555v185.685333zM284.273778 181.703111a118.385778 118.385778 0 0 0 0 236.714667h118.328889v-118.328889A118.499556 118.499556 0 0 0 284.444444 181.987556z"  /><path d="M284.444444 910.165333A186.595556 186.595556 0 0 1 284.444444 537.031111h185.514667l0.967111 34.986667v151.552A186.88 186.88 0 0 1 284.444444 910.165333z m0-304.924444a118.328889 118.328889 0 1 0 118.328889 118.328889v-118.328889z"  /><path d="M707.697778 486.684444H522.069333l-0.967111-35.043555V300.088889a186.652444 186.652444 0 1 1 186.595556 186.595555z m-118.272-68.266666h118.272a118.385778 118.385778 0 1 0-118.272-118.328889z"  /><path d="M707.754667 910.165333a186.88 186.88 0 0 1-186.652445-186.595555V537.884444l35.100445-0.853333h151.552a186.595556 186.595556 0 0 1 0 373.134222z m-118.328889-304.924444v118.328889a118.272 118.272 0 1 0 118.328889-118.328889z"  /></svg>