<?xml version="1.0" standalone="no"?><!DOCTYPE svg PUBLIC "-//W3C//DTD SVG 1.1//EN" "http://www.w3.org/Graphics/SVG/1.1/DTD/svg11.dtd"><svg class="icon" width="32px" height="32.00px" viewBox="0 0 1024 1024" version="1.1" xmlns="http://www.w3.org/2000/svg"><path d="M428.309333 149.333333c154.048 0 278.954667 124.885333 278.954667 278.954667a277.76 277.76 0 0 1-60.245333 173.184l175.68 175.722667a32 32 0 0 1 2.197333 42.816l-2.197333 2.432-0.256 0.256a32 32 0 0 1-45.248 0l-175.722667-175.68a277.781333 277.781333 0 0 1-173.162667 60.224C274.24 707.242667 149.333333 582.357333 149.333333 428.288S274.24 149.333333 428.309333 149.333333z m0 64.384c-118.528 0-214.613333 96.064-214.613333 214.570667s96.085333 214.592 214.613333 214.592c57.749333 0 110.165333-22.826667 148.736-59.925333 0.768-1.066667 1.664-2.069333 2.602667-3.029334l0.277333-0.256c0.981333-0.981333 1.984-1.877333 3.050667-2.688a213.674667 213.674667 0 0 0 59.904-148.693333c0-118.506667-96.064-214.570667-214.570667-214.570667z"  /></svg>