<?xml version="1.0" standalone="no"?><!DOCTYPE svg PUBLIC "-//W3C//DTD SVG 1.1//EN" "http://www.w3.org/Graphics/SVG/1.1/DTD/svg11.dtd"><svg class="icon" width="32px" height="32.00px" viewBox="0 0 1024 1024" version="1.1" xmlns="http://www.w3.org/2000/svg"><path d="M821.610667 302.293333l-199.658667 116.053334a218.730667 218.730667 0 0 1-219.904 0l-199.68-116.053334a21.333333 21.333333 0 0 1 0-36.885333L469.12 110.293333a85.333333 85.333333 0 0 1 85.802667 0l266.709333 155.114667a21.333333 21.333333 0 0 1 0 36.906667zM191.786667 764.224l266.922666 155.733333a21.333333 21.333333 0 0 0 32.085334-18.432V668.672c0-79.402667-41.941333-152.682667-109.930667-192.426667l-199.338667-116.202666a21.333333 21.333333 0 0 0-32.064 18.410666v312.064a85.333333 85.333333 0 0 0 42.325334 73.706667zM533.333333 668.714667V901.546667a21.333333 21.333333 0 0 0 32.085334 18.410666l266.922666-155.733333A85.333333 85.333333 0 0 0 874.666667 690.474667V378.453333a21.333333 21.333333 0 0 0-32.085334-18.410666l-199.296 116.288c-68.096 39.68-109.952 113.066667-109.952 192.362666z"  /></svg>