<?xml version="1.0" standalone="no"?><!DOCTYPE svg PUBLIC "-//W3C//DTD SVG 1.1//EN" "http://www.w3.org/Graphics/SVG/1.1/DTD/svg11.dtd"><svg class="icon" width="32px" height="32.00px" viewBox="0 0 1024 1024" version="1.1" xmlns="http://www.w3.org/2000/svg"><path d="M512 106.666667c58.901333 0 106.666667 49.322667 106.666667 110.165333 0 5.610667-0.426667 11.178667-1.216 16.64 114.133333 45.44 195.050667 162.496 195.050666 299.136v119.296l2.325334 0.853333a92.8 92.8 0 0 1 59.733333 82.197334l0.106667 4.352c0 51.2-41.749333 92.693333-93.248 92.693333h-141.802667c-5.013333 71.594667-60.245333 128-127.616 128-67.370667 0-122.602667-56.405333-127.616-128H242.56C191.082667 832 149.333333 790.506667 149.333333 739.306667a92.736 92.736 0 0 1 59.84-86.570667l2.346667-0.832v-119.616l0.064-6.762667c2.730667-133.76 82.901333-247.424 195.008-292.010666a108.266667 108.266667 0 0 1-1.258667-16.682667C405.333333 155.989333 453.098667 106.666667 512 106.666667z m0 73.429333c-19.2 0-34.88 15.744-35.541333 35.434667a288.021333 288.021333 0 0 1 71.04 0l0.064 1.28c0-20.266667-15.936-36.693333-35.562667-36.693334z"  /></svg>