<?xml version="1.0" standalone="no"?><!DOCTYPE svg PUBLIC "-//W3C//DTD SVG 1.1//EN" "http://www.w3.org/Graphics/SVG/1.1/DTD/svg11.dtd"><svg class="icon" width="32px" height="32.00px" viewBox="0 0 1024 1024" version="1.1" xmlns="http://www.w3.org/2000/svg"><path d="M512 85.333333c58.901333 0 106.666667 49.322667 106.666667 110.165334 0 5.610667-0.426667 11.178667-1.216 16.64 114.133333 45.44 195.050667 162.496 195.050666 299.136v119.296l2.325334 0.853333a92.8 92.8 0 0 1 59.733333 82.197333l0.106667 4.352c0 51.2-41.749333 92.693333-93.248 92.693334h-141.802667c-5.013333 71.594667-60.245333 128-127.616 128-67.370667 0-122.602667-56.405333-127.616-128H242.56C191.082667 810.666667 149.333333 769.173333 149.333333 717.973333a92.736 92.736 0 0 1 59.84-86.570666l2.346667-0.832v-119.616l0.064-6.762667c2.730667-133.76 82.901333-247.424 195.008-292.010667A108.266667 108.266667 0 0 1 405.333333 195.498667C405.333333 134.656 453.098667 85.333333 512 85.333333z m68.224 725.333334h-136.448c4.778667 36.202667 33.493333 64 68.224 64 34.709333 0 63.445333-27.797333 68.224-64zM512 253.824c-129.088 0-235.392 111.445333-238.250667 251.328l-0.064 6.144v144.917333c0 17.066667-13.930667 30.890667-31.104 30.890667l-2.986666 0.149333a30.976 30.976 0 0 0-28.096 30.741334c0 17.066667 13.930667 30.890667 31.082666 30.890666H781.44c17.152 0 31.082667-13.824 31.082667-30.890666 0-17.066667-13.930667-30.890667-31.082667-30.890667l-2.986667-0.149333a30.976 30.976 0 0 1-28.117333-30.741334v-144.917333c0-142.698667-107.221333-257.493333-238.314667-257.493333z m0-95.04c-19.2 0-34.88 15.744-35.541333 35.434667a288.021333 288.021333 0 0 1 71.04 0l0.064 1.28c0-20.266667-15.936-36.693333-35.562667-36.693334z"  /></svg>