<?xml version="1.0" standalone="no"?><!DOCTYPE svg PUBLIC "-//W3C//DTD SVG 1.1//EN" "http://www.w3.org/Graphics/SVG/1.1/DTD/svg11.dtd"><svg class="icon" width="32px" height="32.00px" viewBox="0 0 1024 1024" version="1.1" xmlns="http://www.w3.org/2000/svg"><path d="M768 106.666667a85.333333 85.333333 0 0 1 85.333333 85.333333v640a85.333333 85.333333 0 0 1-85.333333 85.333333H256a85.333333 85.333333 0 0 1-85.333333-85.333333v-106.666667h53.333333a32 32 0 0 0 31.850667-28.928L256 693.333333a32 32 0 0 0-28.928-31.850666L224 661.333333H170.666667v-106.666666h53.333333a32 32 0 0 0 31.850667-28.928L256 522.666667a32 32 0 0 0-28.928-31.850667L224 490.666667H170.666667v-106.666667h53.333333a32 32 0 0 0 31.850667-28.928L256 352a32 32 0 0 0-28.928-31.850667L224 320H170.666667V192a85.333333 85.333333 0 0 1 85.333333-85.333333h512zM554.666667 551.296c-36.970667 0-73.962667 5.205333-110.933334 15.594667a82.154667 82.154667 0 0 0-59.733333 79.210666v19.733334c0 21.077333 16.981333 38.165333 37.930667 38.165333h265.472c20.949333 0 37.930667-17.088 37.930666-38.186667v-19.712a82.154667 82.154667 0 0 0-59.733333-79.210666 408.298667 408.298667 0 0 0-110.933333-15.573334zM554.666667 341.333333c-52.373333 0-94.805333 42.730667-94.805334 95.445334 0 52.693333 42.453333 95.424 94.805334 95.424 52.373333 0 94.805333-42.730667 94.805333-95.424C649.472 384.064 607.018667 341.333333 554.666667 341.333333z"  /></svg>