<?xml version="1.0" standalone="no"?><!DOCTYPE svg PUBLIC "-//W3C//DTD SVG 1.1//EN" "http://www.w3.org/Graphics/SVG/1.1/DTD/svg11.dtd"><svg class="icon" width="64px" height="64.00px" viewBox="0 0 1024 1024" version="1.1" xmlns="http://www.w3.org/2000/svg"><path d="M888 384H712a40 40 0 0 0-40 40v176a40 40 0 0 0 40 40h176a40 40 0 0 0 40-40V424a40 40 0 0 0-40-40z m-32 184H744V456h112z m-504 32V424a40 40 0 0 0-40-40H136a40 40 0 0 0-40 40v176a40 40 0 0 0 40 40h176a40 40 0 0 0 40-40z m-72-32H168V456h112z m541 145.6l-180.9 20.5a4 4 0 0 0-2.7 6.5l41.8 50.1a316.3 316.3 0 0 1-372.6-55.3 298.7 298.7 0 0 1-26.4-29.9 4.2 4.2 0 0 0-3.2-1.5h-77.3a4 4 0 0 0-3.4 6.1 391.9 391.9 0 0 0 59.3 76.3A388.5 388.5 0 0 0 681 869.5a380.3 380.3 0 0 0 45.1-22.7l39.8 47.7a4 4 0 0 0 6.9-1.4l52.5-174.4a3.9 3.9 0 0 0-4.3-5.1zM221 310.4l180.9-20.5a4 4 0 0 0 2.7-6.5l-41.8-50.1a316.3 316.3 0 0 1 372.6 55.3 298.7 298.7 0 0 1 26.4 29.9 4.2 4.2 0 0 0 3.2 1.5h77.3a4 4 0 0 0 3.4-6.1 391.9 391.9 0 0 0-59.3-76.3A388.5 388.5 0 0 0 361 154.5a380.3 380.3 0 0 0-45.1 22.7l-39.8-47.7a4 4 0 0 0-6.9 1.4l-52.5 174.4a3.9 3.9 0 0 0 4.3 5.1z" /></svg>