<?xml version="1.0" standalone="no"?><!DOCTYPE svg PUBLIC "-//W3C//DTD SVG 1.1//EN" "http://www.w3.org/Graphics/SVG/1.1/DTD/svg11.dtd"><svg class="icon" width="32px" height="32.00px" viewBox="0 0 1024 1024" version="1.1" xmlns="http://www.w3.org/2000/svg"><path d="M394.666667 597.333333l3.072 0.149334A32 32 0 0 1 426.666667 629.333333v234.666667l-0.149334 3.072A32 32 0 0 1 394.666667 896l-3.072-0.149333A32 32 0 0 1 362.666667 864V661.333333H160l-3.072-0.149333A32 32 0 0 1 160 597.333333h234.666667z m469.333333 0l3.072 0.149334a32 32 0 0 1 0 63.701333L864 661.333333H661.333333v202.666667l-0.149333 3.072a32 32 0 0 1-28.778667 28.8L629.333333 896a32 32 0 0 1-31.850666-28.928L597.333333 864v-234.666667l0.149334-3.072a32 32 0 0 1 28.778666-28.8L629.333333 597.333333h234.666667z m-469.333333-469.333333a32 32 0 0 1 31.850666 28.928L426.666667 160v234.666667a32 32 0 0 1-28.928 31.850666L394.666667 426.666667h-234.666667a32 32 0 0 1-3.072-63.850667L160 362.666667H362.666667V160a32 32 0 0 1 28.928-31.850667L394.666667 128z m234.666666 0l3.072 0.149333a32 32 0 0 1 28.8 28.778667L661.333333 160V362.666667h202.666667l3.072 0.149333a32 32 0 0 1 0 63.701333L864 426.666667h-234.666667l-3.072-0.149334a32 32 0 0 1-28.8-28.778666L597.333333 394.666667v-234.666667l0.149334-3.072A32 32 0 0 1 629.333333 128z"  /></svg>