<?xml version="1.0" standalone="no"?><!DOCTYPE svg PUBLIC "-//W3C//DTD SVG 1.1//EN" "http://www.w3.org/Graphics/SVG/1.1/DTD/svg11.dtd"><svg class="icon" width="32px" height="32.00px" viewBox="0 0 1024 1024" version="1.1" xmlns="http://www.w3.org/2000/svg"><path d="M880.896 180.8a73.216 73.216 0 0 1 28.245333 96.917333l-2.026666 3.648-323.562667 546.752a94.570667 94.570667 0 0 1-19.925333 23.701334 95.424 95.424 0 0 1-130.709334-6.4l-3.285333-3.605334-29.141333-33.664-38.314667 35.946667a74.112 74.112 0 0 1-46.016 19.882667l-4.693333 0.149333c-39.466667 0-71.68-30.72-73.813334-69.418667l-0.106666-4.032v-97.642666l312.746666-253.717334a10.666667 10.666667 0 0 0-11.562666-17.770666l-337.493334 172.416-31.936-35.904-0.064-0.213334-39.381333-45.226666a94.272 94.272 0 0 1-19.413333-35.52c-14.165333-48.64 12.757333-99.413333 60.416-115.626667l4.394666-1.365333 647.594667-186.538667c19.52-5.632 40.533333-2.986667 58.026667 7.253333z"  /></svg>