<?xml version="1.0" standalone="no"?><!DOCTYPE svg PUBLIC "-//W3C//DTD SVG 1.1//EN" "http://www.w3.org/Graphics/SVG/1.1/DTD/svg11.dtd"><svg class="icon" width="32px" height="32.00px" viewBox="0 0 1024 1024" version="1.1" xmlns="http://www.w3.org/2000/svg"><path d="M352 653.248L552.085333 853.333333H202.666667a117.034667 117.034667 0 0 1-42.730667-8.021333L352 653.226667z m296.277333-64.32l230.528 249.386667A116.8 116.8 0 0 1 821.333333 853.333333h-178.752l-137.301333-137.301333 142.997333-127.104zM821.333333 170.666667a117.333333 117.333333 0 0 1 117.333334 117.333333v448c0 20.650667-5.333333 40.064-14.72 56.917333L674.346667 522.453333l-2.304-2.282666-2.474667-2.026667a32 32 0 0 0-40.170667 1.92l-169.450666 150.613333-85.333334-85.333333-2.410666-2.197333a32 32 0 0 0-42.837334 2.197333L108.586667 806.144A116.821333 116.821333 0 0 1 85.333333 736v-448A117.333333 117.333333 0 0 1 202.666667 170.666667zM341.333333 298.666667a106.666667 106.666667 0 1 0 0 213.333333 106.666667 106.666667 0 0 0 0-213.333333z m0 64a42.666667 42.666667 0 1 1 0 85.333333 42.666667 42.666667 0 0 1 0-85.333333z"  /></svg>