<?xml version="1.0" standalone="no"?><!DOCTYPE svg PUBLIC "-//W3C//DTD SVG 1.1//EN" "http://www.w3.org/Graphics/SVG/1.1/DTD/svg11.dtd"><svg class="icon" width="32px" height="32.00px" viewBox="0 0 1024 1024" version="1.1" xmlns="http://www.w3.org/2000/svg"><path d="M892 824H200V132a4 4 0 0 0-4-4h-64a4 4 0 0 0-4 4v760a4 4 0 0 0 4 4h760a4 4 0 0 0 4-4v-64a4 4 0 0 0-4-4z m-616-72h64a4 4 0 0 0 4-4V636a4 4 0 0 0-4-4h-64a4 4 0 0 0-4 4v112a4 4 0 0 0 4 4z m160-240a4 4 0 0 0-4 4v232a4 4 0 0 0 4 4h64a4 4 0 0 0 4-4V516a4 4 0 0 0-4-4z m160 80a4 4 0 0 0-4 4v152a4 4 0 0 0 4 4h64a4 4 0 0 0 4-4V596a4 4 0 0 0-4-4z m160-160a4 4 0 0 0-4 4v312a4 4 0 0 0 4 4h64a4 4 0 0 0 4-4V436a4 4 0 0 0-4-4z m-427.4 52a4 4 0 0 0 5.6-0.2l135.5-146.5 130.5 121.6a40.1 40.1 0 0 0 57-2.5l139.2-153.9 37.1 28.3a4.2 4.2 0 0 0 6.8-2.9l16.3-156.6a4.2 4.2 0 0 0-5.7-4.4l-146.7 57.2a4.2 4.2 0 0 0-1 7.3l42.1 32.1L626 395.4 495.7 274.1a39.9 39.9 0 0 0-56.6 2.1L287.2 440.3a4.1 4.1 0 0 0 0.2 5.7z" /></svg>