<?xml version="1.0" standalone="no"?><!DOCTYPE svg PUBLIC "-//W3C//DTD SVG 1.1//EN" "http://www.w3.org/Graphics/SVG/1.1/DTD/svg11.dtd"><svg class="icon" width="32px" height="32.00px" viewBox="0 0 1024 1024" version="1.1" xmlns="http://www.w3.org/2000/svg"><path d="M956.1 320H739.9a4 4 0 0 0-3.9 3.9v56.2a4 4 0 0 0 3.9 3.9h216.2a4 4 0 0 0 3.9-3.9v-56.2a4 4 0 0 0-3.9-3.9zM676 256h280a4 4 0 0 0 4-4v-56a4 4 0 0 0-4-4H676a4 4 0 0 0-4 4v56a4 4 0 0 0 4 4z m280 192H676a4 4 0 0 0-4 4v56a4 4 0 0 0 4 4h280a4 4 0 0 0 4-4v-56a4 4 0 0 0-4-4z m-408.4 57.6A209.6 209.6 0 0 0 626 342c0-116-94-210-210-210s-210 94-210 210a209.3 209.3 0 0 0 78.2 163.7C155.4 558.1 64 684.9 64 831.9V888a4 4 0 0 0 4 4h64a4 4 0 0 0 4-4v-56.1a276.2 276.2 0 0 1 22-108.5 283.5 283.5 0 0 1 60.3-89.2 279.3 279.3 0 0 1 89.2-60.2 273.8 273.8 0 0 1 104.9-22h7.2a273.8 273.8 0 0 1 104.9 22 279.3 279.3 0 0 1 89.2 60.2 283.5 283.5 0 0 1 60.3 89.2 276.2 276.2 0 0 1 22 108.5V888a4 4 0 0 0 4 4h64a4 4 0 0 0 4-4v-56.1c0-147.1-91.5-273.9-220.4-326.3z m-34-66a137 137 0 0 1-93.6 40.3h-8a137.9 137.9 0 1 1 101.6-40.3z" /></svg>