<?xml version="1.0" standalone="no"?><!DOCTYPE svg PUBLIC "-//W3C//DTD SVG 1.1//EN" "http://www.w3.org/Graphics/SVG/1.1/DTD/svg11.dtd"><svg class="icon" width="32px" height="32.00px" viewBox="0 0 1024 1024" version="1.1" xmlns="http://www.w3.org/2000/svg"><path d="M511 604c144.7 0 262-117.3 262-262S655.7 80 511 80 249 197.3 249 342c0 91.2 46.6 171.5 117.4 218.5C226.3 617.9 127 755.9 127 916v25.5a4 4 0 0 0 4 4h64a3.9 3.9 0 0 0 4-4V916a307.1 307.1 0 0 1 24.6-120.9 315.8 315.8 0 0 1 166.5-166.5A307.1 307.1 0 0 1 511 604zM376.6 476.4A190.2 190.2 0 1 1 511 532a189.1 189.1 0 0 1-134.4-55.6zM892 864H644a4 4 0 0 0-4 4v56a4 4 0 0 0 4 4h248a4 4 0 0 0 4-4v-56a4 4 0 0 0-4-4z m-356-32a64 64 0 1 0 64 64 64.1 64.1 0 0 0-64-64z m0 80a16 16 0 1 1 16-16 16 16 0 0 1-16 16z m356-240H644a4 4 0 0 0-4 4v56a4 4 0 0 0 4 4h248a4 4 0 0 0 4-4v-56a4 4 0 0 0-4-4z m-356-32a64 64 0 1 0 64 64 64.1 64.1 0 0 0-64-64z m0 80a16 16 0 1 1 16-16 16 16 0 0 1-16 16z" /></svg>