<?xml version="1.0" standalone="no"?><!DOCTYPE svg PUBLIC "-//W3C//DTD SVG 1.1//EN" "http://www.w3.org/Graphics/SVG/1.1/DTD/svg11.dtd"><svg class="icon" width="64px" height="64.00px" viewBox="0 0 1024 1024" version="1.1" xmlns="http://www.w3.org/2000/svg"><path d="M128 942a4 4 0 0 0 4 4h64a4 4 0 0 0 4-4v-25.5a308.1 308.1 0 0 1 24.6-121.1 315.2 315.2 0 0 1 166.5-166.7A307.1 307.1 0 0 1 512 604.1a307.1 307.1 0 0 1 120.9 24.6 315.2 315.2 0 0 1 166.5 166.7A308.1 308.1 0 0 1 824 916.5V942a4 4 0 0 0 4 4h64a4 4 0 0 0 4-4v-25.5c0-160.3-99.3-298.5-239.4-356A261.7 261.7 0 0 0 774 342c0-144.7-117.3-262-262-262S250 197.3 250 342a261.7 261.7 0 0 0 117.4 218.5C227.3 618 128 756.2 128 916.5z m194-600a189.8 189.8 0 1 1 55.6 134.4A189.1 189.1 0 0 1 322 342z" /></svg>