<?xml version="1.0" standalone="no"?><!DOCTYPE svg PUBLIC "-//W3C//DTD SVG 1.1//EN" "http://www.w3.org/Graphics/SVG/1.1/DTD/svg11.dtd"><svg class="icon" width="64px" height="64.00px" viewBox="0 0 1024 1024" version="1.1" xmlns="http://www.w3.org/2000/svg"><path d="M556 556a44 44 0 1 0-44-44 44 44 0 0 0 44 44z m300-428H168a40 40 0 0 0-40 40v688a40 40 0 0 0 40 40h688a40 40 0 0 0 40-40V168a40 40 0 0 0-40-40z m-32 454H480V442h344z m0-204H456a40 40 0 0 0-40 40v188a40 40 0 0 0 40 40h368v178H200V200h624z" /></svg>