<?xml version="1.0" standalone="no"?><!DOCTYPE svg PUBLIC "-//W3C//DTD SVG 1.1//EN" "http://www.w3.org/Graphics/SVG/1.1/DTD/svg11.dtd"><svg class="icon" width="64px" height="64.00px" viewBox="0 0 1024 1024" version="1.1" xmlns="http://www.w3.org/2000/svg"><path d="M71.168 700.229818l23.970909-83.898182A296.680727 296.680727 0 0 1 46.545455 453.818182C46.545455 280.576 197.934545 139.636364 384 139.636364c136.168727 0 257.489455 75.636364 310.202182 190.673454l2.024727 0.069818c0.651636 0 1.303273-0.093091 1.954909-0.093091 4.352 0 8.587636 0.442182 12.893091 0.628364 5.026909 0.209455 10.077091 0.256 15.034182 0.698182 4.933818 0.442182 9.751273 1.256727 14.615273 1.908364 4.747636 0.651636 9.565091 1.186909 14.242909 2.048 5.376 1.000727 10.589091 2.373818 15.848727 3.630545 3.979636 0.954182 8.005818 1.745455 11.915636 2.862545 6.144 1.745455 12.101818 3.886545 18.082909 5.981091 2.816 1.000727 5.725091 1.838545 8.494546 2.909091 6.981818 2.699636 13.730909 5.794909 20.433454 8.983273 1.629091 0.768 3.328 1.419636 4.933819 2.234182 7.842909 3.886545 15.429818 8.145455 22.830545 12.683636l1.163636 0.651637c62.650182 38.795636 108.334545 99.537455 124.229819 170.449454l0.139636 0.512c1.768727 7.959273 3.048727 16.081455 4.049455 24.250182 0.116364 0.977455 0.372364 1.931636 0.488727 2.909091a256.395636 256.395636 0 0 1-39.121455 166.260363l19.618909 68.654546a34.909091 34.909091 0 0 1-43.170909 43.170909l-72.168727-20.642909a304.058182 304.058182 0 0 1-187.554909 39.796364c-2.466909-0.279273-4.910545-0.721455-7.354182-1.070546a299.822545 299.822545 0 0 1-25.669818-4.375273c-2.280727-0.512-4.491636-1.070545-6.772364-1.629091a307.735273 307.735273 0 0 1-59.438545-21.015272l-0.884364-0.395637a293.655273 293.655273 0 0 1-55.668363-34.955636c-0.930909-0.744727-1.815273-1.536-2.746182-2.304-7.074909-5.794909-13.824-11.869091-20.270546-18.269091-1.745455-1.745455-3.421091-3.514182-5.12-5.282909a265.146182 265.146182 0 0 1-16.337454-18.734545c-0.954182-1.140364-2.048-2.164364-2.955637-3.351273-88.715636 19.665455-183.226182 4.584727-259.746909-41.216l-87.901091 25.111273a34.839273 34.839273 0 0 1-43.147636-43.147637z m811.054545 12.869818c24.226909-33.093818 37.050182-71.656727 37.050182-111.592727 0-111.057455-99.188364-201.402182-221.090909-201.402182-7.866182 0-15.639273 0.442182-23.319273 1.140364-110.987636 10.658909-197.771636 96.395636-197.771636 200.261818a186.414545 186.414545 0 0 0 29.160727 99.560727c4.724364 7.517091 10.007273 14.661818 15.662546 21.480728l1.256727 1.559272a213.829818 213.829818 0 0 0 41.006546 37.236364c7.284364 5.050182 14.848 9.704727 22.714181 13.917091l0.768 0.418909a233.890909 233.890909 0 0 0 51.083637 19.618909c1.442909 0.372364 2.909091 0.698182 4.398545 1.047273 7.144727 1.675636 14.452364 3.002182 21.806546 4.049454 2.094545 0.279273 4.142545 0.628364 6.237091 0.861091a233.797818 233.797818 0 0 0 156.904727-37.073454 34.792727 34.792727 0 0 1 28.904727-4.491637l26.693818 7.610182-6.865454-23.994182a34.978909 34.978909 0 0 1 5.399272-30.208zM384 209.454545C236.427636 209.454545 116.363636 319.069091 116.363636 453.818182c0 48.523636 15.569455 95.441455 45.032728 135.633454 6.353455 8.704 8.354909 19.874909 5.399272 30.231273l-11.217454 39.284364 42.472727-12.125091c9.867636-2.839273 20.410182-1.163636 28.904727 4.491636 57.390545 38.144 129.140364 53.224727 198.4 43.450182a253.277091 253.277091 0 0 1-18.082909-93.277091c0-124.555636 90.647273-229.492364 213.573818-261.189818C575.255273 260.701091 484.887273 209.454545 384 209.454545z m-93.090909 186.181819a34.909091 34.909091 0 1 0-0.023273-69.841455A34.909091 34.909091 0 0 0 290.909091 395.636364m186.181818 0a34.909091 34.909091 0 1 0-0.023273-69.841455A34.909091 34.909091 0 0 0 477.090909 395.636364m128 116.363636a34.909091 34.909091 0 1 0 0.023273 69.841455A34.909091 34.909091 0 0 0 605.090909 512m186.181818 0a34.909091 34.909091 0 1 0 0.023273 69.841455A34.909091 34.909091 0 0 0 791.272727 512"  /></svg>