<?xml version="1.0" standalone="no"?><!DOCTYPE svg PUBLIC "-//W3C//DTD SVG 1.1//EN" "http://www.w3.org/Graphics/SVG/1.1/DTD/svg11.dtd"><svg class="icon" width="32px" height="32.00px" viewBox="0 0 1024 1024" version="1.1" xmlns="http://www.w3.org/2000/svg"><path d="M615.936 374.570667c132.544 0 239.04 96.426667 239.04 214.08 0 61.482667-29.12 118.890667-79.466667 159.36l-15.573333 12.501333 17.322667 63.36-67.136-37.973333-13.248 4.266666c-25.728 8.277333-52.970667 12.586667-80.938667 12.586667-132.565333 0-239.04-96.426667-239.04-214.101333s106.474667-214.08 239.04-214.08zM408.064 170.666667c115.989333 0 217.088 59.946667 267.434667 148.117333a328.96 328.96 0 0 0-59.562667-5.397333c-165.930667 0-301.397333 122.666667-301.397333 275.264 0 45.930667 12.266667 89.152 33.941333 127.146666a228.48 228.48 0 0 1-7.168-1.386666l-9.770667-2.176-7.466666-1.941334-65.066667 36.864a52.650667 52.650667 0 0 1-66.944-12.778666l-2.133333-2.922667-1.898667-2.965333a50.133333 50.133333 0 0 1-6.101333-34.730667l0.917333-3.925333 13.162667-48.32-1.642667-1.450667c-51.733333-47.466667-83.221333-110.784-87.253333-179.136l-0.341334-7.616L106.666667 445.930667C106.666667 293.333333 242.133333 170.666667 408.064 170.666667z"  /></svg>