<?xml version="1.0" standalone="no"?><!DOCTYPE svg PUBLIC "-//W3C//DTD SVG 1.1//EN" "http://www.w3.org/Graphics/SVG/1.1/DTD/svg11.dtd"><svg class="icon" width="32px" height="32.00px" viewBox="0 0 1024 1024" version="1.1" xmlns="http://www.w3.org/2000/svg"><path d="M408.064 149.333333c115.989333 0 217.088 59.946667 267.434667 148.117334C813.098667 322.645333 917.333333 433.493333 917.333333 567.317333c0 72.746667-31.061333 140.8-84.864 191.509334l-2.090666 1.877333 13.610666 49.792c7.125333 26.112-7.744 52.906667-33.493333 61.461333l-3.264 0.981334a52.842667 52.842667 0 0 1-39.424-5.098667l-65.130667-36.906667-5.76 1.578667c-22.869333 5.824-46.528 9.173333-70.613333 9.898667l-10.368 0.170666c-115.989333 0-217.088-59.946667-267.456-148.138666a228.48 228.48 0 0 1-7.168-1.365334l-9.770667-2.176-7.466666-1.941333-65.066667 36.864a52.650667 52.650667 0 0 1-66.944-12.778667l-2.133333-2.922666-1.898667-2.965334a50.133333 50.133333 0 0 1-6.101333-34.730666l0.917333-3.925334 13.162667-48.32-1.642667-1.450666c-51.733333-47.466667-83.221333-110.784-87.253333-179.136l-0.341334-7.616L106.666667 424.597333C106.666667 272 242.133333 149.333333 408.064 149.333333z m207.872 203.904c-132.565333 0-239.04 96.426667-239.04 214.08 0 117.674667 106.474667 214.08 239.04 214.08 27.946667 0 55.210667-4.266667 80.938667-12.586666l13.226666-4.266667 67.157334 38.016-17.301334-63.36 15.573334-12.522667c50.346667-40.469333 79.445333-97.877333 79.445333-159.36 0-117.674667-106.496-214.08-239.04-214.08z m-207.872-142.72c-132.544 0-239.04 96.405333-239.04 214.08 0 60.16 27.882667 116.416 76.202667 156.693334l5.44 4.394666 15.914666 12.501334-17.024 62.357333 66.773334-37.802667 4.629333 1.450667a253.824 253.824 0 0 1-6.421333-56.874667c0-146.496 124.864-265.429333 281.685333-274.688-43.626667-49.92-111.530667-82.133333-188.16-82.133333z"  /></svg>