<?xml version="1.0" standalone="no"?><!DOCTYPE svg PUBLIC "-//W3C//DTD SVG 1.1//EN" "http://www.w3.org/Graphics/SVG/1.1/DTD/svg11.dtd"><svg class="icon" width="32px" height="32.00px" viewBox="0 0 1024 1024" version="1.1" xmlns="http://www.w3.org/2000/svg"><path d="M512 576c83.2 0 166.4 11.626667 249.6 34.858667a183.829333 183.829333 0 0 1 134.4 177.066666V832a85.333333 85.333333 0 0 1-85.333333 85.333333H213.333333a85.333333 85.333333 0 0 1-85.333333-85.333333v-44.096a183.829333 183.829333 0 0 1 134.4-177.066667C345.6 587.648 428.8 576 512 576z m0-469.333333c117.824 0 213.333333 95.509333 213.333333 213.333333s-95.509333 213.333333-213.333333 213.333333-213.333333-95.509333-213.333333-213.333333S394.176 106.666667 512 106.666667z"  /></svg>