<?xml version="1.0" standalone="no"?><!DOCTYPE svg PUBLIC "-//W3C//DTD SVG 1.1//EN" "http://www.w3.org/Graphics/SVG/1.1/DTD/svg11.dtd"><svg class="icon" width="32px" height="32.00px" viewBox="0 0 1024 1024" version="1.1" xmlns="http://www.w3.org/2000/svg"><path d="M589.162667 170.666667a117.333333 117.333333 0 0 1 111.317333 80.234666l3.925333 11.84a21.333333 21.333333 0 0 0 20.266667 14.592H800a117.333333 117.333333 0 0 1 117.248 112.618667L917.333333 394.666667v341.333333a117.333333 117.333333 0 0 1-117.333333 117.333333h-576A117.333333 117.333333 0 0 1 106.666667 736v-341.333333a117.333333 117.333333 0 0 1 117.333333-117.333334h75.328a21.333333 21.333333 0 0 0 20.245333-14.592l3.946667-11.84a117.333333 117.333333 0 0 1 106.282667-80.128L434.837333 170.666667z m0 64h-154.325334a53.333333 53.333333 0 0 0-50.602666 36.48l-13.674667 41.024A42.666667 42.666667 0 0 1 330.090667 341.333333H224A53.333333 53.333333 0 0 0 170.666667 394.666667v341.333333a53.333333 53.333333 0 0 0 53.333333 53.333333h576a53.333333 53.333333 0 0 0 53.333333-53.333333v-341.333333a53.333333 53.333333 0 0 0-53.333333-53.333334h-106.112a42.666667 42.666667 0 0 1-40.469333-29.184l-13.653334-41.024A53.333333 53.333333 0 0 0 589.162667 234.666667zM512 405.333333a149.333333 149.333333 0 1 1 0 298.666667 149.333333 149.333333 0 0 1 0-298.666667z m0 64a85.333333 85.333333 0 1 0 0 170.666667 85.333333 85.333333 0 0 0 0-170.666667z"  /></svg>