<?xml version="1.0" standalone="no"?><!DOCTYPE svg PUBLIC "-//W3C//DTD SVG 1.1//EN" "http://www.w3.org/Graphics/SVG/1.1/DTD/svg11.dtd"><svg class="icon" width="32px" height="32.00px" viewBox="0 0 1024 1024" version="1.1" xmlns="http://www.w3.org/2000/svg"><path d="M512 85.333333c235.648 0 426.666667 191.018667 426.666667 426.666667s-191.018667 426.666667-426.666667 426.666667c-7.146667 0-14.250667-0.170667-21.333333-0.533334V938.666667H170.666667a85.333333 85.333333 0 0 1-85.333334-85.333334V533.333333h0.533334A433.749333 433.749333 0 0 1 85.333333 512C85.333333 276.352 276.352 85.333333 512 85.333333z m0 64C311.701333 149.333333 149.333333 311.701333 149.333333 512c0 6.08 0.149333 12.16 0.426667 18.197333 0.149333 2.538667 0.128 5.034667-0.042667 7.509334l-0.384 3.84V853.333333a21.333333 21.333333 0 0 0 18.837334 21.184L170.666667 874.666667h311.722666a65.706667 65.706667 0 0 1 7.616-0.512l3.84 0.064c6.016 0.298667 12.074667 0.448 18.154667 0.448 200.298667 0 362.666667-162.368 362.666667-362.666667 0-197.973333-158.656-358.933333-355.776-362.602667L512 149.333333z m-192 341.333334a42.666667 42.666667 0 1 1 0 85.333333 42.666667 42.666667 0 0 1 0-85.333333z m192 0a42.666667 42.666667 0 1 1 0 85.333333 42.666667 42.666667 0 0 1 0-85.333333z m192 0a42.666667 42.666667 0 1 1 0 85.333333 42.666667 42.666667 0 0 1 0-85.333333z"  /></svg>