<?xml version="1.0" standalone="no"?><!DOCTYPE svg PUBLIC "-//W3C//DTD SVG 1.1//EN" "http://www.w3.org/Graphics/SVG/1.1/DTD/svg11.dtd"><svg class="icon" width="32px" height="32.00px" viewBox="0 0 1024 1024" version="1.1" xmlns="http://www.w3.org/2000/svg"><path d="M512 64C264.6 64 64 264.6 64 512s200.6 448 448 448 448-200.6 448-448S759.4 64 512 64z m265.9 713.9a377.2 377.2 0 0 1-119.6 80.6 377.5 377.5 0 0 1-292.6 0 377.1 377.1 0 0 1-200.2-200.2 377.5 377.5 0 0 1 0-292.6 377.1 377.1 0 0 1 200.2-200.2 377.5 377.5 0 0 1 292.6 0 377.1 377.1 0 0 1 200.2 200.2 377.5 377.5 0 0 1 0 292.6 377.2 377.2 0 0 1-80.6 119.6zM312 454a58 58 0 1 0 58 58 58 58 0 0 0-58-58z m200 0a58 58 0 1 0 58 58 58 58 0 0 0-58-58z m200 0a58 58 0 1 0 58 58 58 58 0 0 0-58-58z" /></svg>