<?xml version="1.0" standalone="no"?><!DOCTYPE svg PUBLIC "-//W3C//DTD SVG 1.1//EN" "http://www.w3.org/Graphics/SVG/1.1/DTD/svg11.dtd"><svg class="icon" width="32px" height="32.00px" viewBox="0 0 1024 1024" version="1.1" xmlns="http://www.w3.org/2000/svg"><path d="M821.333333 170.666667a117.333333 117.333333 0 0 1 117.333334 117.333333v448a117.333333 117.333333 0 0 1-117.333334 117.333333h-618.666666A117.333333 117.333333 0 0 1 85.333333 736v-448A117.333333 117.333333 0 0 1 202.666667 170.666667z m0 64h-618.666666A53.333333 53.333333 0 0 0 149.333333 288v448A53.333333 53.333333 0 0 0 202.666667 789.333333h618.666666a53.333333 53.333333 0 0 0 53.333334-53.333333v-448a53.333333 53.333333 0 0 0-53.333334-53.333333z m-469.333333 64a160 160 0 0 1 128 256v99.413333c0 21.12-13.738667 39.893333-34.24 47.36l-3.690667 1.194667-68.48 19.669333a78.357333 78.357333 0 0 1-38.442666 1.194667l-4.714667-1.194667-68.501333-19.669333c-21.269333-6.101333-36.202667-24.042667-37.781334-44.864l-0.149333-3.690667V554.666667l-2.261333-3.072A160 160 0 0 1 352 298.666667z m64 306.688a159.466667 159.466667 0 0 1-64 13.312 159.466667 159.466667 0 0 1-64-13.312v41.173333l60.928 17.493333c1.322667 0.384 2.730667 0.512 4.117333 0.384l2.026667-0.384 60.928-17.493333v-41.173333zM757.333333 554.666667a32 32 0 0 1 0 64h-149.333333a32 32 0 0 1 0-64h149.333333z m-405.333333-192a96 96 0 1 0 0 192 96 96 0 0 0 0-192z m405.333333 42.666666a32 32 0 0 1 0 64h-149.333333a32 32 0 0 1 0-64h149.333333z"  /></svg>