<?xml version="1.0" standalone="no"?><!DOCTYPE svg PUBLIC "-//W3C//DTD SVG 1.1//EN" "http://www.w3.org/Graphics/SVG/1.1/DTD/svg11.dtd"><svg class="icon" width="32px" height="32.00px" viewBox="0 0 1024 1024" version="1.1" xmlns="http://www.w3.org/2000/svg"><path d="M821.333333 192a117.333333 117.333333 0 0 1 117.333334 117.333333v405.333334a117.333333 117.333333 0 0 1-117.333334 117.333333h-618.666666A117.333333 117.333333 0 0 1 85.333333 714.666667v-405.333334A117.333333 117.333333 0 0 1 202.666667 192zM874.666667 426.666667H149.333333v288A53.333333 53.333333 0 0 0 202.666667 768h618.666666a53.333333 53.333333 0 0 0 53.333334-53.333333V426.666667z m-96 64a32 32 0 0 1 0 64h-64a32 32 0 0 1 0-64h64z m42.666666-234.666667h-618.666666A53.333333 53.333333 0 0 0 149.333333 309.333333V362.666667h725.333334v-53.333334a53.333333 53.333333 0 0 0-53.333334-53.333333z"  /></svg>