<?xml version="1.0" standalone="no"?><!DOCTYPE svg PUBLIC "-//W3C//DTD SVG 1.1//EN" "http://www.w3.org/Graphics/SVG/1.1/DTD/svg11.dtd"><svg class="icon" width="32px" height="32.00px" viewBox="0 0 1024 1024" version="1.1" xmlns="http://www.w3.org/2000/svg"><path d="M512 85.333333c235.648 0 426.666667 191.018667 426.666667 426.666667s-191.018667 426.666667-426.666667 426.666667S85.333333 747.648 85.333333 512 276.352 85.333333 512 85.333333z m0 64C311.701333 149.333333 149.333333 311.701333 149.333333 512s162.368 362.666667 362.666667 362.666667 362.666667-162.368 362.666667-362.666667S712.298667 149.333333 512 149.333333z m0 533.333334a42.666667 42.666667 0 1 1 0 85.333333 42.666667 42.666667 0 0 1 0-85.333333z m0-426.666667c88.362667 0 160 67.861333 160 151.573333 0 75.029333-43.157333 135.189333-125.248 178.688l-2.752 1.408v22.016c0 15.765333-12.693333 28.714667-28.928 30.165334L512 640c-16.64 0-30.293333-12.032-31.850667-27.392l-0.149333-2.922667v-40.426666c0-11.584 6.976-22.186667 17.984-27.242667 75.136-34.688 110.016-78.762667 110.016-134.442667 0-50.218667-42.986667-90.944-96-90.944s-96 40.725333-96 90.944c0 16.746667-14.336 30.314667-32 30.314667s-32-13.568-32-30.293333C352 323.84 423.637333 256 512 256z"  /></svg>