<?xml version="1.0" standalone="no"?><!DOCTYPE svg PUBLIC "-//W3C//DTD SVG 1.1//EN" "http://www.w3.org/Graphics/SVG/1.1/DTD/svg11.dtd"><svg class="icon" width="32px" height="32.00px" viewBox="0 0 1024 1024" version="1.1" xmlns="http://www.w3.org/2000/svg"><path d="M532.053333 138.069333c43.861333-43.861333 117.312-41.493333 164.074667 5.290667l184.768 184.746667c46.762667 46.784 49.130667 120.234667 5.290667 164.096L568.234667 810.154667a108.16 108.16 0 0 1-70.677334 31.210666l-196.8 11.2c-63.637333 3.626667-121.514667-45.333333-129.237333-109.354666a116.266667 116.266667 0 0 1-0.64-20.992l11.904-195.84a108.117333 108.117333 0 0 1 31.189333-70.229334z m120.768 48.597334c-21.248-21.269333-54.634667-22.336-74.581333-2.410667l-318.08 318.08c-8.405333 8.426667-13.44 19.712-14.165333 31.914667l-11.904 195.84c-0.213333 3.178667-0.106667 6.357333 0.277333 9.557333 3.52 29.098667 29.824 51.349333 58.752 49.706667l196.8-11.221334a49.152 49.152 0 0 0 32.128-14.186666l317.952-317.952c19.925333-19.925333 18.837333-53.333333-2.410667-74.581334z m-205.568 300.970666a93.802667 93.802667 0 0 1 93.696 93.888 93.802667 93.802667 0 0 1-93.696 93.909334 93.802667 93.802667 0 0 1-93.696-93.909334 93.802667 93.802667 0 0 1 93.696-93.888z m0 62.592c-17.237333 0-31.232 14.016-31.232 31.296s13.994667 31.317333 31.232 31.317334c17.237333 0 31.232-14.016 31.232-31.317334 0-17.28-13.994667-31.296-31.232-31.296z"  /></svg>