<?xml version="1.0" standalone="no"?><!DOCTYPE svg PUBLIC "-//W3C//DTD SVG 1.1//EN" "http://www.w3.org/Graphics/SVG/1.1/DTD/svg11.dtd"><svg class="icon" width="32px" height="32.00px" viewBox="0 0 1024 1024" version="1.1" xmlns="http://www.w3.org/2000/svg"><path d="M821.333333 170.666667a117.333333 117.333333 0 0 1 117.333334 117.333333v448a117.333333 117.333333 0 0 1-117.333334 117.333333h-618.666666A117.333333 117.333333 0 0 1 85.333333 736v-448A117.333333 117.333333 0 0 1 202.666667 170.666667z m52.842667 110.058666L576 571.072a91.093333 91.093333 0 0 1-124.373333 3.370667l-3.669334-3.370667-298.154666-290.346667A53.802667 53.802667 0 0 0 149.333333 288v448A53.333333 53.333333 0 0 0 202.666667 789.333333h618.666666a53.333333 53.333333 0 0 0 53.333334-53.333333v-448c0-2.474667-0.170667-4.906667-0.490667-7.274667zM821.333333 234.666667h-618.666666c-2.922667 0-5.76 0.213333-8.554667 0.682666l296.533333 288.789334c11.2 10.901333 28.245333 11.626667 40.213334 2.197333l2.474666-2.197333 296.554667-288.789334A53.717333 53.717333 0 0 0 821.333333 234.666667z"  /></svg>