<?xml version="1.0" standalone="no"?><!DOCTYPE svg PUBLIC "-//W3C//DTD SVG 1.1//EN" "http://www.w3.org/Graphics/SVG/1.1/DTD/svg11.dtd"><svg class="icon" width="32px" height="32.00px" viewBox="0 0 1024 1024" version="1.1" xmlns="http://www.w3.org/2000/svg"><path d="M347.392 116.693333C275.2 140.032 196.693333 209.152 148.266667 288.426667a427.605333 427.605333 0 0 0 19.754666 476.053333c102.698667 140.053333 276.074667 202.24 446.122667 162.325333 11.242667-2.645333 17.408-9.045333 23.744-18.474666 55.978667-83.413333 33.066667-198.442667-51.114667-253.546667-34.773333-22.762667-73.6-31.893333-114.304-34.176-39.296-2.197333-78.592-3.925333-116.224-17.194667-59.669333-21.056-85.802667-59.84-81.941333-123.221333 3.52-57.664 29.866667-106.858667 58.517333-155.093333 4.672-7.829333 12.992-14.208 7.509334-25.813334-28.16-59.648-25.386667-119.082667 7.04-182.570666m526.08 619.797333c138.602667-225.728 46.634667-511.04-184.682667-616.533333-32.362667-14.762667-145.813333-48.938667-271.36-28.010667-19.114667 3.2-30.144 13.866667-39.232 29.76-52.928 92.586667-14.954667 212.266667 81.877333 256.810667 35.498667 16.341333 73.216 21.866667 111.786667 22.826666 38.656 0.981333 76.373333 6.421333 111.978667 22.528 47.658667 21.589333 72.32 67.669333 65.813333 119.808-6.848 54.848-29.056 103.552-58.133333 149.333334-8.682667 13.696-9.088 24.597333-3.946667 39.957333 9.92 29.610667 17.002667 60.8 12.202667 92.245333-4.117333 26.922667-10.837333 53.653333-24.106667 78.997334 78.677333-35.541333 145.408-84.117333 189.973333-159.445334 2.624-2.752 5.888-5.12 7.829334-8.277333z"  /></svg>