<?xml version="1.0" standalone="no"?><!DOCTYPE svg PUBLIC "-//W3C//DTD SVG 1.1//EN" "http://www.w3.org/Graphics/SVG/1.1/DTD/svg11.dtd"><svg class="icon" width="32px" height="32.00px" viewBox="0 0 1024 1024" version="1.1" xmlns="http://www.w3.org/2000/svg"><path d="M512 85.333333c235.648 0 426.666667 191.018667 426.666667 426.666667s-191.018667 426.666667-426.666667 426.666667S85.333333 747.648 85.333333 512 276.352 85.333333 512 85.333333z m0 64C311.701333 149.333333 149.333333 311.701333 149.333333 512s162.368 362.666667 362.666667 362.666667 362.666667-162.368 362.666667-362.666667S712.298667 149.333333 512 149.333333z m191.232 321.237334c16.192 4.864 25.557333 22.570667 20.928 39.552-27.648 101.632-89.173333 159.914667-180.138667 170.709333L544 757.333333a32 32 0 0 1-64 0v-76.501333c-90.965333-10.794667-152.512-69.077333-180.16-170.709333-4.608-16.981333 4.757333-34.688 20.928-39.552 16.213333-4.842667 33.066667 4.992 37.696 21.973333C381.845333 578.56 430.997333 618.666667 512 618.666667c81.024 0 130.154667-40.106667 153.557333-126.122667 4.629333-16.981333 21.504-26.816 37.674667-21.973333zM512 234.666667c57.386667 0 104.213333 46.933333 106.581333 105.770666l0.085334 4.650667v120.490667C618.666667 526.549333 570.901333 576 512 576c-57.386667 0-104.213333-46.933333-106.581333-105.770667L405.333333 465.578667v-120.490667C405.333333 284.117333 453.098667 234.666667 512 234.666667z m0 60.245333c-25.664 0-46.677333 20.629333-48.362667 46.741333l-0.128 3.434667v120.490667c0 27.712 21.717333 50.176 48.490667 50.176 25.664 0 46.677333-20.629333 48.362667-46.741334l0.128-3.434666v-120.490667c0-27.712-21.717333-50.176-48.490667-50.176z"  /></svg>