<?xml version="1.0" standalone="no"?><!DOCTYPE svg PUBLIC "-//W3C//DTD SVG 1.1//EN" "http://www.w3.org/Graphics/SVG/1.1/DTD/svg11.dtd"><svg class="icon" width="32px" height="32.00px" viewBox="0 0 1024 1024" version="1.1" xmlns="http://www.w3.org/2000/svg"><path d="M815.253333 573.866667c17.493333 0 33.749333 8.789333 43.456 23.274666l1.984 3.2 68.565334 119.850667c8.704 15.210667 9.322667 33.706667 1.877333 49.386667l-1.877333 3.562666-68.565334 119.850667a52.416 52.416 0 0 1-41.706666 26.346667l-3.733334 0.128h-137.173333c-17.493333 0-33.749333-8.789333-43.456-23.274667l-1.984-3.2-68.565333-119.850667a53.354667 53.354667 0 0 1-1.877334-49.386666l1.877334-3.562667 68.565333-119.850667a52.416 52.416 0 0 1 41.706667-26.346666l3.733333-0.128h137.173333zM693.333333 106.666667A32 32 0 0 1 725.333333 138.666667V170.666667h74.666667a117.333333 117.333333 0 0 1 117.248 112.618666L917.333333 288v280.128l-11.882666-20.352a68.949333 68.949333 0 0 0-59.605334-34.048h-198.357333a68.949333 68.949333 0 0 0-59.605333 34.048l-89.984 154.176a67.456 67.456 0 0 0 0 68.096L546.496 853.333333H224a117.333333 117.333333 0 0 1-117.248-112.618666L106.666667 736v-448a117.333333 117.333333 0 0 1 112.618666-117.248L224 170.666667H298.666667V138.666667a32 32 0 0 1 64 0V170.666667h298.666666V138.666667A32 32 0 0 1 693.333333 106.666667zM746.666667 689.770667c-31.808 0-57.6 25.472-57.6 56.896 0 31.424 25.792 56.896 57.6 56.896s57.6-25.472 57.6-56.896c0-31.424-25.792-56.896-57.6-56.896z m-116.906667-298.453334l-2.453333 2.261334-149.077334 151.957333-0.341333 0.341333a21.333333 21.333333 0 0 1-28.16 1.408l-2.005333-1.813333-51.029334-52.416a32.256 32.256 0 0 0-45.866666 0 32.853333 32.853333 0 0 0-2.218667 43.733333l2.218667 2.474667 89.194666 91.157333c11.882667 11.968 30.656 12.714667 43.392 2.261334l2.474667-2.261334 187.285333-190.656a32.853333 32.853333 0 0 0 0-46.186666 32.256 32.256 0 0 0-43.392-2.261334z"  /></svg>