<?xml version="1.0" standalone="no"?><!DOCTYPE svg PUBLIC "-//W3C//DTD SVG 1.1//EN" "http://www.w3.org/Graphics/SVG/1.1/DTD/svg11.dtd"><svg class="icon" width="32px" height="32.00px" viewBox="0 0 1024 1024" version="1.1" xmlns="http://www.w3.org/2000/svg"><path d="M693.333333 106.666667A32 32 0 0 1 725.333333 138.666667V170.666667h74.666667a117.333333 117.333333 0 0 1 117.248 112.618666L917.333333 288v448a117.333333 117.333333 0 0 1-112.618666 117.248L800 853.333333h-576a117.333333 117.333333 0 0 1-117.248-112.618666L106.666667 736v-448a117.333333 117.333333 0 0 1 112.618666-117.248L224 170.666667H298.666667V138.666667a32 32 0 0 1 64 0V170.666667h298.666666V138.666667A32 32 0 0 1 693.333333 106.666667z m-20.16 286.912a32.256 32.256 0 0 0-45.866666 0l-149.077334 151.957333-0.341333 0.341333a21.333333 21.333333 0 0 1-30.165333-0.405333l-51.029334-52.416a32.256 32.256 0 0 0-45.866666 0 32.853333 32.853333 0 0 0 0 46.208l89.194666 91.157333a32.256 32.256 0 0 0 45.866667 0l187.285333-190.656a32.853333 32.853333 0 0 0 0-46.186666z"  /></svg>