<?xml version="1.0" standalone="no"?><!DOCTYPE svg PUBLIC "-//W3C//DTD SVG 1.1//EN" "http://www.w3.org/Graphics/SVG/1.1/DTD/svg11.dtd"><svg class="icon" width="32px" height="32.00px" viewBox="0 0 1024 1024" version="1.1" xmlns="http://www.w3.org/2000/svg"><path d="M650.048 135.424a33.066667 33.066667 0 0 1 44.266667 49.045333L644.053333 234.666667H778.666667a117.333333 117.333333 0 0 1 117.248 112.618666L896 352v384a117.333333 117.333333 0 0 1-117.333333 117.333333h-533.333334A117.333333 117.333333 0 0 1 128 736v-384a117.333333 117.333333 0 0 1 117.333333-117.333333h113.237334l-50.218667-50.197334a33.066667 33.066667 0 0 1 44.266667-49.066666l2.517333 2.282666L452.096 234.666667h98.453333l96.981334-96.981334zM778.666667 298.666667h-533.333334A53.333333 53.333333 0 0 0 192 352v384a53.333333 53.333333 0 0 0 53.333333 53.333333h533.333334a53.333333 53.333333 0 0 0 53.333333-53.333333v-384a53.333333 53.333333 0 0 0-53.333333-53.333333z m-352.064 138.709333c0-26.026667 29.44-41.152 50.602666-26.026667l149.333334 106.624a31.978667 31.978667 0 0 1 0 52.053334l-149.333334 106.624c-21.184 15.125333-50.602667 0-50.602666-26.026667z m64.021333 62.144v88.96l62.293333-44.48-62.293333-44.48z"  /></svg>