<?xml version="1.0" standalone="no"?><!DOCTYPE svg PUBLIC "-//W3C//DTD SVG 1.1//EN" "http://www.w3.org/Graphics/SVG/1.1/DTD/svg11.dtd"><svg class="icon" width="32px" height="32.00px" viewBox="0 0 1024 1024" version="1.1" xmlns="http://www.w3.org/2000/svg"><path d="M650.048 135.424a33.066667 33.066667 0 0 1 44.266667 49.045333L644.053333 234.666667H778.666667a117.333333 117.333333 0 0 1 117.248 112.618666L896 352v384a117.333333 117.333333 0 0 1-117.333333 117.333333h-533.333334A117.333333 117.333333 0 0 1 128 736v-384a117.333333 117.333333 0 0 1 117.333333-117.333333h113.237334l-50.218667-50.197334a33.066667 33.066667 0 0 1 44.266667-49.066666l2.517333 2.282666L452.096 234.666667h98.453333l96.981334-96.981334zM426.602667 437.376v213.248c0 26.026667 29.44 41.152 50.602666 26.026667l149.333334-106.624a31.978667 31.978667 0 0 0 0-52.053334l-149.333334-106.624c-21.184-15.125333-50.602667 0-50.602666 26.026667z"  /></svg>