<?xml version="1.0" standalone="no"?><!DOCTYPE svg PUBLIC "-//W3C//DTD SVG 1.1//EN" "http://www.w3.org/Graphics/SVG/1.1/DTD/svg11.dtd"><svg class="icon" width="32px" height="32.00px" viewBox="0 0 1024 1024" version="1.1" xmlns="http://www.w3.org/2000/svg"><path d="M469.568 127.530667c28.16-28.16 74.154667-27.776 102.762667 0.853333l2.986666 3.157333 2.816 3.370667 251.093334 318.293333c34.986667 44.373333 32.896 106.773333-4.224 147.477334l-3.584 3.733333-42.986667 42.986667 110.997333 110.976c34.56 34.581333 37.077333 88.938667 7.189334 125.376l-3.093334 3.584-3.029333 3.157333c-35.050667 35.072-91.648 35.712-128.597333 2.282667l-3.498667-3.349334-111.018667-110.976-42.944 42.965334c-38.186667 38.186667-98.005333 43.370667-143.04 13.696l-4.330666-2.986667-3.84-2.901333L134.912 578.133333c-31.765333-25.045333-37.610667-70.762667-13.077333-102.122666l2.752-3.306667 2.944-3.136L469.568 127.530667z m300.586667 350.570666l-292.053334 292.053334 13.205334 10.410666c19.882667 15.68 47.744 14.976 66.261333-1.237333l2.453333-2.304 86.656-86.656 155.392 155.392a31.146667 31.146667 0 0 0 44.032 0.341333c11.306667-11.306667 11.882667-29.333333 1.813334-41.642666l-2.154667-2.389334-155.413333-155.370666 86.677333-86.677334c17.493333-17.493333 19.754667-45.013333 5.866667-65.536l-2.325334-3.2-10.410666-13.184z m-449.408-112.96l-55.744 55.765334 72.021333 54.250666c13.034667 9.813333 16.256 27.84 7.893333 41.472l-1.706666 2.496c-9.813333 13.013333-27.84 16.256-41.472 7.893334l-2.496-1.706667-79.061334-59.584-48.661333 48.682667-0.405333 0.469333a10.389333 10.389333 0 0 0 0.490666 13.312l1.386667 1.28 255.466667 201.536 302.528-302.528-201.514667-255.488-0.832-0.938667a10.432 10.432 0 0 0-13.226667-1.322666l-1.450666 1.194666-48.256 48.277334 59.584 79.04a31.402667 31.402667 0 0 1-50.133334 37.802666l-54.272-72.021333-55.744 55.722667 81.408 81.408a31.402667 31.402667 0 0 1-44.416 44.373333l-81.386666-81.386667z"  /></svg>