<?xml version="1.0" standalone="no"?><!DOCTYPE svg PUBLIC "-//W3C//DTD SVG 1.1//EN" "http://www.w3.org/Graphics/SVG/1.1/DTD/svg11.dtd"><svg class="icon" width="32px" height="32.00px" viewBox="0 0 1024 1024" version="1.1" xmlns="http://www.w3.org/2000/svg"><path d="M814.058667 433.984l15.168 19.242667c34.986667 44.352 32.896 106.752-4.224 147.456l-3.584 3.733333-42.986667 42.986667 110.997333 110.976c34.56 34.581333 37.077333 88.938667 7.189334 125.376l-3.093334 3.584-3.029333 3.157333c-35.050667 35.072-91.648 35.712-128.597333 2.282667l-3.498667-3.349334-111.018667-110.976-42.944 42.965334c-38.186667 38.186667-98.005333 43.370667-143.04 13.696l-4.330666-2.986667-3.84-2.901333-19.242667-15.168 380.074667-380.074667zM572.330667 128.362667l2.986666 3.2 2.816 3.349333L774.186667 383.36 383.402667 774.144 134.912 578.133333c-31.765333-25.045333-37.610667-70.762667-13.077333-102.122666l2.752-3.306667 2.944-3.136 43.221333-43.221333 100.736 59.52 1.728 0.853333a10.666667 10.666667 0 0 0 11.946667-16.789333l-71.253334-86.741334 57.728-57.728 101.674667 66.026667 1.706667 0.896a10.666667 10.666667 0 0 0 13.013333-15.701333l-66.346667-101.269334 52.117334-52.117333 72.042666 68.117333 1.493334 1.194667a10.666667 10.666667 0 0 0 15.317333-13.845333l-49.173333-95.146667 56.106666-56.085333c28.138667-28.16 74.133333-27.776 102.741334 0.853333z"  /></svg>