<?xml version="1.0" standalone="no"?><!DOCTYPE svg PUBLIC "-//W3C//DTD SVG 1.1//EN" "http://www.w3.org/Graphics/SVG/1.1/DTD/svg11.dtd"><svg class="icon" width="32px" height="32.00px" viewBox="0 0 1024 1024" version="1.1" xmlns="http://www.w3.org/2000/svg"><path d="M519.04 575.978667H512h5.781333l4.501334-0.064h3.776l6.186666-0.128c89.92-1.664 173.12-14.528 234.922667-35.626667 21.973333-7.530667 39.978667-15.658667 53.845333-23.744 30.208-14.293333 55.594667-30.677333 74.965334-48.618667L896 490.666667l0.021333 45.162666-0.042666 0.021334L896 885.333333a32 32 0 0 1-64 0V582.528c-21.717333 10.688-46.976 20.053333-75.093333 27.925333l-10.24 2.730667V800a32 32 0 0 1-64 0v-173.312l-5.205334 0.917333-18.730666 2.773334-15.317334 2.005333-23.488 2.56-24.085333 2.048-16.341333 1.066667-8.256 0.448-16.682667 0.725333c-8.405333 0.298667-16.853333 0.512-25.386667 0.64L512 640l-17.152-0.128c-8.533333-0.128-17.002667-0.341333-25.386667-0.64l-20.842666-0.938667-20.48-1.301333-24.064-2.048-23.488-2.56-15.317334-1.984-15.018666-2.218667-8.938667-1.472L341.333333 800a32 32 0 0 1-64 0v-186.816l-10.24-2.730667c-28.138667-7.893333-53.397333-17.237333-75.114666-27.946666L192 864a32 32 0 0 1-64 0l-0.021333-328.170667L128 490.666667v-22.890667c19.370667 17.962667 44.778667 34.346667 75.029333 48.64 13.845333 8.085333 31.829333 16.213333 53.802667 23.722667 61.824 21.12 145.066667 33.984 234.986667 35.669333l6.08 0.085333 2.56 0.042667 5.76 0.042667H512l10.133333-0.064-3.093333 0.064zM512 106.666667c235.648 0 426.666667 95.509333 426.666667 213.333333s-191.018667 213.333333-426.666667 213.333333S85.333333 437.824 85.333333 320 276.352 106.666667 512 106.666667z"  /></svg>