<?xml version="1.0" standalone="no"?><!DOCTYPE svg PUBLIC "-//W3C//DTD SVG 1.1//EN" "http://www.w3.org/Graphics/SVG/1.1/DTD/svg11.dtd"><svg class="icon" width="32px" height="32.00px" viewBox="0 0 1024 1024" version="1.1" xmlns="http://www.w3.org/2000/svg"><path d="M512 234.666667l320 170.666666v405.333334a85.333333 85.333333 0 0 1-85.333333 85.333333H277.333333a85.333333 85.333333 0 0 1-85.333333-85.333333V405.333333l320-170.666666z m149.376 384h-298.666667l-2.432 0.128c-17.365333 1.856-25.514667 23.466667-12.629333 36.309333l85.610667 85.333333 2.005333 1.770667a21.333333 21.333333 0 0 0 28.16-1.813333l1.770667-2.005334a21.333333 21.333333 0 0 0-1.813334-28.16L414.336 661.333333h247.04l2.496-0.149333A21.333333 21.333333 0 0 0 661.376 618.666667z m-72.597333-166.208a21.333333 21.333333 0 0 0-28.16 1.813333l-1.770667 2.005333a21.333333 21.333333 0 0 0 1.813333 28.16L609.706667 533.333333H362.666667l-2.496 0.149334A21.333333 21.333333 0 0 0 362.666667 576h298.666666l2.432-0.128c17.365333-1.856 25.514667-23.466667 12.629334-36.309333l-85.610667-85.333334z m-64.64-322.218667l3.306666 1.493333 372.458667 209.408c16.021333 8.234667 22.101333 27.477333 13.568 42.944-8.021333 14.570667-26.133333 20.629333-41.6 14.421334l-2.858667-1.301334-356.992-201.450666-356.992 201.365333a33.557333 33.557333 0 0 1-42.837333-10.389333l-1.642667-2.645334a31.146667 31.146667 0 0 1 10.773334-41.386666l2.709333-1.578667 372.48-209.365333a33.898667 33.898667 0 0 1 27.648-1.493334z"  /></svg>