<?xml version="1.0" standalone="no"?><!DOCTYPE svg PUBLIC "-//W3C//DTD SVG 1.1//EN" "http://www.w3.org/Graphics/SVG/1.1/DTD/svg11.dtd"><svg class="icon" width="32px" height="32.00px" viewBox="0 0 1024 1024" version="1.1" xmlns="http://www.w3.org/2000/svg"><path d="M296.704 517.546667v-3.584l0.32-4.394667 0.704-6.549333 0.938667-6.186667 0.853333-4.736 1.066667-5.12 1.28-5.546667 1.536-5.952 1.834666-6.293333 2.133334-6.613333 2.453333-6.954667 2.816-7.210667 1.536-3.733333 3.370667-7.594667c21.461333-46.421333 64.96-105.173333 153.130666-153.258666 97.472-53.141333 170.176-12.416 220.117334 43.52l6.122666 7.061333c2.005333 2.389333 3.968 4.778667 5.888 7.189333l5.653334 7.274667 2.730666 3.669333 5.312 7.338667 5.056 7.36 4.842667 7.338667 4.608 7.253333 4.373333 7.168 4.138667 7.04 5.802667 10.218667 5.269333 9.728 9.024 17.557333 8 16.170667c9.365333 18.965333 25.130667 34.688 42.88 50.538666l21.952 19.285334c27.946667 24.725333 56.405333 52.736 70.528 95.36 27.285333 82.410667 14.101333 150.912-26.112 191.872l-9.984 10.069333-6.656 6.485333-7.168 6.613334-5.034667 4.458666-5.269333 4.416-5.461333 4.330667-5.674667 4.224-5.888 4.053333c-43.946667 29.184-104.448 42.624-177.706667-31.978666-36.864-37.546667-45.866667-63.658667-49.813333-86.144l-1.066667-6.634667-1.728-12.821333-0.96-6.272c-2.837333-16.661333-8.234667-33.002667-27.904-53.056-23.189333-23.616-36.394667-27.029333-52.416-25.408l-4.650666 0.576-18.474667 3.050666-6.186667 0.853334-3.264 0.362666-6.954666 0.576c-16.96 1.045333-38.954667-0.192-69.76-8.149333-62.208-16.106667-88.64-50.304-99.882667-76.373333l-2.048-5.098667a110.976 110.976 0 0 1-0.874667-2.453333l-1.514666-4.672-1.194667-4.352-1.28-5.781334-0.597333-3.328-0.682667-5.973333a52.544 52.544 0 0 1-0.064-0.768z m-165.888-106.730667c32.405333-32.981333 85.12-32.789333 117.76 0.469333 32.64 33.237333 32.832 86.933333 0.426667 119.893334-32.362667 33.002667-85.077333 32.789333-117.717334-0.426667-32.64-33.28-32.853333-86.954667-0.469333-119.936z m365.013333-270.506667a41.088 41.088 0 0 1 58.858667 0.213334c16.32 16.64 16.426667 43.477333 0.213333 59.968a41.088 41.088 0 0 1-58.88-0.213334 42.965333 42.965333 0 0 1-0.213333-59.968zM365.013333 190.997333a51.968 51.968 0 0 1 36.650667-37.333333c17.941333-4.821333 37.12 0.469333 50.325333 13.909333 20.394667 20.778667 20.522667 54.336 0.277334 74.965334a51.370667 51.370667 0 0 1-73.6-0.298667 53.973333 53.973333 0 0 1-13.653334-51.242667z m-124.608 66.794667a61.653333 61.653333 0 0 1 88.32 0.362667c24.469333 24.917333 24.618667 65.194667 0.32 89.941333a61.653333 61.653333 0 0 1-88.298666-0.362667c-24.469333-24.917333-24.64-65.194667-0.341334-89.941333z"  /></svg>