<?xml version="1.0" standalone="no"?><!DOCTYPE svg PUBLIC "-//W3C//DTD SVG 1.1//EN" "http://www.w3.org/Graphics/SVG/1.1/DTD/svg11.dtd"><svg class="icon" width="32px" height="32.00px" viewBox="0 0 1024 1024" version="1.1" xmlns="http://www.w3.org/2000/svg"><path d="M444.096 264.597333c99.733333-58.069333 199.381333-27.306667 259.477333 54.976 14.72 20.16 25.984 38.229333 38.698667 61.226667l21.056 38.613333 8.32 14.72 5.098667 8.64 4.992 8.128 5.12 8.021334 5.546666 8.32 6.122667 8.96c5.312 7.658667 10.88 15.210667 16.853333 22.826666l2.069334 2.56 7.978666 9.493334 33.024 38.485333 15.146667 17.898667 12.864 15.530666 8.192 10.24 4.48 5.909334 3.562667 4.949333 1.386666 2.090667c4.8 7.466667 8.832 14.848 12.16 22.314666 39.530667 88.789333 24.810667 194.773333-28.586666 252.885334-63.616 69.226667-200.085333 83.2-276.544 0-35.84-39.018667-51.541333-70.976-57.685334-108.394667l-0.896-5.141333c-4.928-26.688-12.586667-41.493333-31.253333-53.653334-9.770667-6.357333-28.266667-11.413333-55.445333-15.296l-4.544-0.64-9.856-1.258666-35.584-4.138667-8.853334-1.216-7.530666-1.216a175.146667 175.146667 0 0 1-3.413334-0.64l-6.208-1.408-2.922666-0.768c-62.570667-17.28-101.632-53.824-120.64-100.906667l-2.282667-6.122666-3.221333-10.325334-1.557334-6.186666-1.557333-7.637334-0.810667-5.290666-0.853333-8.405334v-8.490666l0.405333-5.973334 0.853334-8.170666 1.066666-7.509334 0.981334-5.76 1.216-6.250666 1.472-6.677334 1.749333-7.125333 2.048-7.530667 2.389333-7.893333 2.773334-8.234667 3.413333-9.386666 4.949333-12.074667c29.376-67.84 82.624-129.216 164.778667-177.066667z m203.989333 88.298667c-41.813333-54.336-104.96-72.469333-172.309333-32.96-70.165333 41.194667-114.069333 92.16-137.728 147.242667l-3.157333 7.637333-3.626667 9.770667-2.133333 6.464-1.856 6.186666-1.578667 5.824-1.344 5.461334-1.109333 5.098666-0.896 4.672-0.704 4.053334-0.768 5.333333-0.597334 5.610667-0.213333 2.517333-0.064 1.834667 0.341333 3.477333 0.277334 1.984 0.896 4.565333 0.810666 3.242667 1.578667 5.226667 1.792 4.821333c11.050667 27.648 34.368 49.6 77.013333 61.504l3.626667 0.853333 4.650667 0.896 5.802666 0.896 7.125334 0.96 39.936 4.736 10.24 1.386667c36.202667 5.226667 62.101333 12.373333 82.218666 25.557333 39.509333 25.92 54.613333 58.645333 62.4 106.517334l0.768 4.266666c4.416 22.464 14.506667 41.770667 40.042667 69.76 48.512 53.205333 142.293333 43.52 181.973333 0 34.688-38.037333 45.333333-115.328 16.64-180.352a101.696 101.696 0 0 0-7.317333-13.397333 84.458667 84.458667 0 0 0-3.370667-4.821333l-5.077333-6.570667-6.464-8.021333-15.829333-19.008-45.269334-53.290667-7.850666-9.536-1.792-2.282667a574.762667 574.762667 0 0 1-19.264-26.325333l-6.805334-10.005333-6.122666-9.258667-5.674667-8.938667-5.482667-9.002666-5.546666-9.472-5.845334-10.346667-6.4-11.626667-18.517333-34.261333a485.610667 485.610667 0 0 0-34.24-54.613333zM194.410667 381.589333c25.088 25.088 25.258667 65.6 0.341333 90.496-24.896 24.917333-65.408 24.746667-90.496-0.341333-25.088-25.088-25.258667-65.6-0.341333-90.496 24.896-24.917333 65.408-24.746667 90.496 0.341333z m88.490666-173.824a53.333333 53.333333 0 0 1 0.298667 75.434667 53.333333 53.333333 0 0 1-75.434667-0.298667 53.333333 53.333333 0 0 1-0.298666-75.434666 53.333333 53.333333 0 0 1 75.434666 0.298666z m131.157334-88.490666a42.666667 42.666667 0 0 1 0.213333 60.352 42.666667 42.666667 0 0 1-60.330667-0.234667 42.88 42.88 0 0 1-11.2-41.258667c3.882667-14.72 15.36-26.176 30.058667-30.058666a42.88 42.88 0 0 1 41.258667 11.2z m131.157333-24.490667a32 32 0 0 1 0.170667 45.269333 32 32 0 0 1-45.269334-0.170666 32 32 0 0 1-0.170666-45.269334 32 32 0 0 1 45.269333 0.170667z"  /></svg>